999
DXF created by CIMCO Edit
0
SECTION
2
ENTITIES
0
LINE
8
T1
62
1
10
137.785
20
410.479
30
0
11
137.785
21
410.479
31
-372
0
LINE
8
T1
62
1
10
137.785
20
410.479
30
-372
11
137.785
21
410.479
31
-402
0
LINE
8
T1
62
3
10
137.785
20
410.479
30
-402
11
137.785
21
410.479
31
-424
0
LINE
8
T1
62
3
10
137.785
20
410.479
30
-424
11
39.612
21
410.479
31
-424
0
LINE
8
T1
62
3
10
39.612
20
410.479
30
-424
11
17.653
21
410.479
31
-424
0
ARC
8
T1
62
3
10
17.653
20
406.479
30
-424
40
4
50
90
51
166.037
210
0
220
0
230
1
0
LINE
8
T1
62
3
10
13.7712
20
407.444
30
-424
11
13.772
21
407.444
31
-424
0
LINE
8
T1
62
3
10
13.772
20
407.444
30
-424
11
7.484
21
382.153
31
-424
0
LINE
8
T1
62
3
10
7.484
20
382.153
30
-424
11
6.705
21
378.62
31
-424
0
LINE
8
T1
62
3
10
6.705
20
378.62
30
-424
11
5.805
21
374.044
31
-424
0
LINE
8
T1
62
3
10
5.805
20
374.044
30
-424
11
3.648
21
361.816
31
-424
0
LINE
8
T1
62
3
10
3.648
20
361.816
30
-424
11
-2.165
21
324.739
31
-424
0
LINE
8
T1
62
3
10
-2.165
20
324.739
30
-424
11
-2.243
21
324.108
31
-424
0
LINE
8
T1
62
3
10
-2.243
20
324.108
30
-424
11
-4.44
21
303.226
31
-424
0
ARC
8
T1
62
3
10
-0.462
20
302.808
30
-424
40
3.9999
50
174.001
51
180
210
0
220
0
230
1
0
LINE
8
T1
62
3
10
-4.4619
20
302.808
30
-424
11
-4.462
21
302.808
31
-424
0
ARC
8
T1
62
3
10
-0.462
20
302.808
30
-424
40
4
50
180
51
-90.1576
210
0
220
0
230
1
0
LINE
8
T1
62
3
10
-0.473
20
298.808
30
-424
11
-0.473
21
298.808
31
-424
0
ARC
8
T1
62
3
10
-0.476
20
297.808
30
-424
40
1
50
0
51
89.8281
210
0
220
0
230
1
0
LINE
8
T1
62
3
10
0.524004
20
297.808
30
-424
11
0.524
21
297.808
31
-424
0
ARC
8
T1
62
3
10
-0.476
20
297.808
30
-424
40
1
50
-87.7071
51
0
210
0
220
0
230
1
0
LINE
8
T1
62
3
10
-0.435992
20
296.809
30
-424
11
-0.436
21
296.809
31
-424
0
ARC
8
T1
62
3
10
-0.277
20
292.812
30
-424
40
4.00016
50
92.278
51
180
210
0
220
0
230
1
0
LINE
8
T1
62
3
10
-4.27716
20
292.812
30
-424
11
-4.277
21
292.812
31
-424
0
ARC
8
T1
62
3
10
-0.277
20
292.812
30
-424
40
4
50
180
51
-179.112
210
0
220
0
230
1
0
LINE
8
T1
62
3
10
-4.27652
20
292.75
30
-424
11
-4.276
21
292.75
31
-424
0
LINE
8
T1
62
3
10
-4.276
20
292.75
30
-424
11
-4.24
21
290.374
31
-424
0
LINE
8
T1
62
3
10
-4.24
20
290.374
30
-424
11
-4.25
21
287.904
31
-424
0
LINE
8
T1
62
3
10
-4.25
20
287.904
30
-424
11
-4.571
21
277.435
31
-424
0
LINE
8
T1
62
3
10
-4.571
20
277.435
30
-424
11
-4.573
21
277.316
31
-424
0
LINE
8
T1
62
3
10
-4.573
20
277.316
30
-424
11
-4.572
21
277.184
31
-424
0
LINE
8
T1
62
3
10
-4.572
20
277.184
30
-424
11
-3.096
21
241.736
31
-424
0
LINE
8
T1
62
3
10
-3.096
20
241.736
30
-424
11
-1.049
21
212.997
31
-424
0
LINE
8
T1
62
3
10
-1.049
20
212.997
30
-424
11
1.373
21
189.708
31
-424
0
LINE
8
T1
62
3
10
1.373
20
189.708
30
-424
11
3.968
21
170.633
31
-424
0
LINE
8
T1
62
3
10
3.968
20
170.633
30
-424
11
5.713
21
159.733
31
-424
0
ARC
8
T1
62
3
10
9.663
20
160.365
30
-424
40
4.00024
50
-170.91
51
-90
210
0
220
0
230
1
0
LINE
8
T1
62
3
10
9.663
20
156.365
30
-424
11
9.663
21
156.365
31
-424
0
ARC
8
T1
62
3
10
9.663
20
160.365
30
-424
40
4
50
-90
51
-75.7275
210
0
220
0
230
1
0
LINE
8
T1
62
3
10
10.6491
20
156.488
30
-424
11
10.649
21
156.489
31
-424
0
ARC
8
T1
62
3
10
10.896
20
155.519
30
-424
40
1.00095
50
90
51
104.286
210
0
220
0
230
1
0
LINE
8
T1
62
3
10
10.896
20
156.52
30
-424
11
10.896
21
156.52
31
-424
0
ARC
8
T1
62
3
10
10.896
20
155.519
30
-424
40
1.001
50
0
51
90
210
0
220
0
230
1
0
LINE
8
T1
62
3
10
11.897
20
155.519
30
-424
11
11.897
21
155.519
31
-424
0
LINE
8
T1
62
3
10
11.897
20
155.519
30
-424
11
11.895
21
155.456
31
-424
0
LINE
8
T1
62
3
10
11.895
20
155.456
30
-424
11
11.889
21
155.393
31
-424
0
LINE
8
T1
62
3
10
11.889
20
155.393
30
-424
11
11.879
21
155.33
31
-424
0
LINE
8
T1
62
3
10
11.879
20
155.33
30
-424
11
11.865
21
155.269
31
-424
0
LINE
8
T1
62
3
10
11.865
20
155.269
30
-424
11
11.8472
21
155.208
31
-424
0
LINE
8
T1
62
3
10
11.8472
20
155.208
30
-424
11
11.8256
21
155.148
31
-424
0
LINE
8
T1
62
3
10
11.8256
20
155.148
30
-424
11
11.8003
21
155.09
31
-424
0
LINE
8
T1
62
3
10
11.8003
20
155.09
30
-424
11
11.7714
21
155.034
31
-424
0
LINE
8
T1
62
3
10
11.7714
20
155.034
30
-424
11
11.739
21
154.98
31
-424
0
LINE
8
T1
62
3
10
11.739
20
154.98
30
-424
11
11.7032
21
154.928
31
-424
0
LINE
8
T1
62
3
10
11.7032
20
154.928
30
-424
11
11.6642
21
154.878
31
-424
0
LINE
8
T1
62
3
10
11.6642
20
154.878
30
-424
11
11.6221
21
154.831
31
-424
0
LINE
8
T1
62
3
10
11.6221
20
154.831
30
-424
11
11.5772
21
154.786
31
-424
0
LINE
8
T1
62
3
10
11.5772
20
154.786
30
-424
11
11.5295
21
154.745
31
-424
0
LINE
8
T1
62
3
10
11.5295
20
154.745
30
-424
11
11.4793
21
154.706
31
-424
0
LINE
8
T1
62
3
10
11.4793
20
154.706
30
-424
11
11.4268
21
154.671
31
-424
0
LINE
8
T1
62
3
10
11.4268
20
154.671
30
-424
11
11.3721
21
154.639
31
-424
0
LINE
8
T1
62
3
10
11.3721
20
154.639
30
-424
11
11.3156
21
154.611
31
-424
0
LINE
8
T1
62
3
10
11.3156
20
154.611
30
-424
11
11.2574
21
154.586
31
-424
0
LINE
8
T1
62
3
10
11.2574
20
154.586
30
-424
11
11.1977
21
154.566
31
-424
0
LINE
8
T1
62
3
10
11.1977
20
154.566
30
-424
11
11.1369
21
154.548
31
-424
0
LINE
8
T1
62
3
10
11.1369
20
154.548
30
-424
11
11.0751
21
154.535
31
-424
0
LINE
8
T1
62
3
10
11.0751
20
154.535
30
-424
11
11.0125
21
154.526
31
-424
0
LINE
8
T1
62
3
10
11.0125
20
154.526
30
-424
11
11.004
21
154.525
31
-424
0
ARC
8
T1
62
3
10
11.44
20
150.549
30
-424
40
3.99983
50
96.2579
51
180
210
0
220
0
230
1
0
LINE
8
T1
62
3
10
7.44017
20
150.549
30
-424
11
7.44
21
150.549
31
-424
0
ARC
8
T1
62
3
10
11.44
20
150.549
30
-424
40
4
50
180
51
-168.389
210
0
220
0
230
1
0
LINE
8
T1
62
3
10
7.52185
20
149.744
30
-424
11
7.522
21
149.744
31
-424
0
LINE
8
T1
62
3
10
7.522
20
149.744
30
-424
11
9.721
21
139.046
31
-424
0
LINE
8
T1
62
3
10
9.721
20
139.046
30
-424
11
12.367
21
127.666
31
-424
0
LINE
8
T1
62
3
10
12.367
20
127.666
30
-424
11
15.566
21
115.276
31
-424
0
LINE
8
T1
62
3
10
15.566
20
115.276
30
-424
11
19.435
21
101.501
31
-424
0
LINE
8
T1
62
3
10
19.435
20
101.501
30
-424
11
22.917
21
89.888
31
-424
0
LINE
8
T1
62
3
10
22.917
20
89.888
30
-424
11
26.941
21
77.442
31
-424
0
LINE
8
T1
62
3
10
26.941
20
77.442
30
-424
11
31.581
21
64.399
31
-424
0
LINE
8
T1
62
3
10
31.581
20
64.399
30
-424
11
34.167
21
57.691
31
-424
0
LINE
8
T1
62
3
10
34.167
20
57.691
30
-424
11
36.933
21
50.927
31
-424
0
LINE
8
T1
62
3
10
36.933
20
50.927
30
-424
11
39.893
21
44.12
31
-424
0
LINE
8
T1
62
3
10
39.893
20
44.12
30
-424
11
43.059
21
37.298
31
-424
0
LINE
8
T1
62
3
10
43.059
20
37.298
30
-424
11
46.439
21
30.486
31
-424
0
LINE
8
T1
62
3
10
46.439
20
30.486
30
-424
11
50.044
21
23.715
31
-424
0
LINE
8
T1
62
3
10
50.044
20
23.715
30
-424
11
53.885
21
17.01
31
-424
0
LINE
8
T1
62
3
10
53.885
20
17.01
30
-424
11
57.962
21
10.417
31
-424
0
LINE
8
T1
62
3
10
57.962
20
10.417
30
-424
11
60.111
21
7.142
31
-424
0
LINE
8
T1
62
3
10
60.111
20
7.142
30
-424
11
62.315
21
3.916
31
-424
0
LINE
8
T1
62
3
10
62.315
20
3.916
30
-424
11
64.587
21
0.727
31
-424
0
LINE
8
T1
62
3
10
64.587
20
0.727
30
-424
11
66.901
21
-2.386
31
-424
0
ARC
8
T1
62
3
10
70.111
20
0
30
-424
40
3.99964
50
-143.376
51
-90
210
0
220
0
230
1
0
LINE
8
T1
62
3
10
70.111
20
-3.99964
30
-424
11
70.111
21
-4
31
-424
0
LINE
8
T1
62
3
10
70.111
20
-4
30
-424
11
1116.14
21
-4
31
-424
0
ARC
8
T1
62
3
10
1116.14
20
0
30
-424
40
4
50
-90
51
0
210
0
220
0
230
1
0
LINE
8
T1
62
3
10
1120.14
20
0
30
-424
11
1120.14
21
0
31
-424
0
LINE
8
T1
62
3
10
1120.14
20
0
30
-424
11
1120.14
21
223.23
31
-424
0
ARC
8
T1
62
3
10
1116.14
20
223.23
30
-424
40
4
50
0
51
90
210
0
220
0
230
1
0
LINE
8
T1
62
3
10
1116.14
20
227.23
30
-424
11
1116.14
21
227.23
31
-424
0
LINE
8
T1
62
3
10
1116.14
20
227.23
30
-424
11
203.088
21
227.23
31
-424
0
LINE
8
T1
62
3
10
203.088
20
227.23
30
-424
11
203.072
21
228.38
31
-424
0
LINE
8
T1
62
3
10
203.072
20
228.38
30
-424
11
202.598
21
256.037
31
-424
0
LINE
8
T1
62
3
10
202.598
20
256.037
30
-424
11
202.201
21
266.095
31
-424
0
LINE
8
T1
62
3
10
202.201
20
266.095
30
-424
11
201.959
21
270.201
31
-424
0
LINE
8
T1
62
3
10
201.959
20
270.201
30
-424
11
201.693
21
273.631
31
-424
0
ARC
8
T1
62
3
10
197.705
20
273.322
30
-424
40
3.99995
50
4.43057
51
90
210
0
220
0
230
1
0
LINE
8
T1
62
3
10
197.705
20
277.322
30
-424
11
197.705
21
277.322
31
-424
0
ARC
8
T1
62
3
10
197.705
20
273.322
30
-424
40
4
50
90
51
95.5524
210
0
220
0
230
1
0
LINE
8
T1
62
3
10
197.318
20
277.303
30
-424
11
197.318
21
277.303
31
-424
0
ARC
8
T1
62
3
10
197.222
20
278.298
30
-424
40
0.99962
50
-90
51
-84.489
210
0
220
0
230
1
0
LINE
8
T1
62
3
10
197.222
20
277.298
30
-424
11
197.222
21
277.298
31
-424
0
ARC
8
T1
62
3
10
197.222
20
278.298
30
-424
40
1
50
180
51
-90
210
0
220
0
230
1
0
LINE
8
T1
62
3
10
196.222
20
278.298
30
-424
11
196.222
21
278.298
31
-424
0
ARC
8
T1
62
3
10
197.222
20
278.298
30
-424
40
1
50
96.4287
51
180
210
0
220
0
230
1
0
LINE
8
T1
62
3
10
197.11
20
279.292
30
-424
11
197.11
21
279.292
31
-424
0
ARC
8
T1
62
3
10
196.665
20
283.267
30
-424
40
3.99983
50
-83.6124
51
0
210
0
220
0
230
1
0
LINE
8
T1
62
3
10
200.665
20
283.267
30
-424
11
200.665
21
283.267
31
-424
0
ARC
8
T1
62
3
10
196.665
20
283.267
30
-424
40
4
50
0
51
15.9474
210
0
220
0
230
1
0
LINE
8
T1
62
3
10
200.511
20
284.366
30
-424
11
200.511
21
284.366
31
-424
0
LINE
8
T1
62
3
10
200.511
20
284.366
30
-424
11
189.579
21
322.631
31
-424
0
LINE
8
T1
62
3
10
189.579
20
322.631
30
-424
11
177.615
21
351.94
31
-424
0
ARC
8
T1
62
3
10
173.912
20
350.428
30
-424
40
3.99979
50
22.2111
51
90
210
0
220
0
230
1
0
LINE
8
T1
62
3
10
173.912
20
354.428
30
-424
11
173.912
21
354.428
31
-424
0
ARC
8
T1
62
3
10
173.912
20
350.428
30
-424
40
4
50
90
51
114.098
210
0
220
0
230
1
0
LINE
8
T1
62
3
10
172.279
20
354.079
30
-424
11
172.279
21
354.079
31
-424
0
ARC
8
T1
62
3
10
171.87
20
354.992
30
-424
40
1.00042
50
-90
51
-65.8689
210
0
220
0
230
1
0
LINE
8
T1
62
3
10
171.87
20
353.992
30
-424
11
171.87
21
353.992
31
-424
0
ARC
8
T1
62
3
10
171.87
20
354.992
30
-424
40
1
50
180
51
-90
210
0
220
0
230
1
0
LINE
8
T1
62
3
10
170.87
20
354.992
30
-424
11
170.87
21
354.992
31
-424
0
ARC
8
T1
62
3
10
171.87
20
354.992
30
-424
40
1
50
115.079
51
180
210
0
220
0
230
1
0
LINE
8
T1
62
3
10
171.446
20
355.898
30
-424
11
171.446
21
355.898
31
-424
0
ARC
8
T1
62
3
10
169.749
20
359.52
30
-424
40
3.99984
50
-64.8957
51
-8.14222e-13
210
0
220
0
230
1
0
LINE
8
T1
62
3
10
173.749
20
359.52
30
-424
11
173.749
21
359.52
31
-424
0
ARC
8
T1
62
3
10
169.749
20
359.52
30
-424
40
4
50
0
51
34.2503
210
0
220
0
230
1
0
LINE
8
T1
62
3
10
173.055
20
361.771
30
-424
11
173.055
21
361.771
31
-424
0
LINE
8
T1
62
3
10
173.055
20
361.771
30
-424
11
141.092
21
408.729
31
-424
0
ARC
8
T1
62
3
10
137.785
20
406.479
30
-424
40
3.99984
50
34.2304
51
90
210
0
220
0
230
1
0
LINE
8
T1
62
3
10
137.785
20
410.479
30
-424
11
137.785
21
410.479
31
-424
0
LINE
8
T1
62
1
10
137.785
20
410.479
30
-424
11
137.785
21
410.479
31
-399
0
LINE
8
T1
62
1
10
137.785
20
410.479
30
-399
11
137.785
21
410.479
31
-372
0
LINE
8
T1
62
1
10
137.785
20
410.479
30
-372
11
360.834
21
439.821
31
-372
0
LINE
8
T1
62
1
10
360.834
20
439.821
30
-372
11
360.834
21
439.821
31
-402
0
LINE
8
T1
62
3
10
360.834
20
439.821
30
-402
11
360.834
21
439.821
31
-418
0
LINE
8
T1
62
3
10
360.834
20
439.821
30
-418
11
314.834
21
439.821
31
-418
0
ARC
8
T1
62
3
10
314.834
20
435.821
30
-418
40
4
50
90
51
180
210
0
220
0
230
1
0
LINE
8
T1
62
3
10
310.834
20
435.821
30
-418
11
310.834
21
435.821
31
-418
0
LINE
8
T1
62
3
10
310.834
20
435.821
30
-418
11
310.834
21
302.591
31
-418
0
ARC
8
T1
62
3
10
314.834
20
302.591
30
-418
40
4
50
180
51
-90
210
0
220
0
230
1
0
LINE
8
T1
62
3
10
314.834
20
298.591
30
-418
11
314.834
21
298.591
31
-418
0
LINE
8
T1
62
3
10
314.834
20
298.591
30
-418
11
331.834
21
298.591
31
-418
0
LINE
8
T1
62
3
10
331.834
20
298.591
30
-418
11
331.834
21
242.591
31
-418
0
ARC
8
T1
62
3
10
335.834
20
242.591
30
-418
40
4
50
180
51
-90
210
0
220
0
230
1
0
LINE
8
T1
62
3
10
335.834
20
238.591
30
-418
11
335.834
21
238.591
31
-418
0
LINE
8
T1
62
3
10
335.834
20
238.591
30
-418
11
1100.39
21
238.591
31
-418
0
ARC
8
T1
62
3
10
1100.39
20
242.591
30
-418
40
4
50
-90
51
0
210
0
220
0
230
1
0
LINE
8
T1
62
3
10
1104.39
20
242.591
30
-418
11
1104.39
21
242.591
31
-418
0
LINE
8
T1
62
3
10
1104.39
20
242.591
30
-418
11
1104.39
21
259.591
31
-418
0
LINE
8
T1
62
3
10
1104.39
20
259.591
30
-418
11
1150.25
21
259.591
31
-418
0
ARC
8
T1
62
3
10
1150.25
20
263.591
30
-418
40
4
50
-90
51
-5.39281
210
0
220
0
230
1
0
LINE
8
T1
62
3
10
1154.23
20
263.215
30
-418
11
1154.23
21
263.215
31
-418
0
LINE
8
T1
62
3
10
1154.23
20
263.215
30
-418
11
1173.79
21
470.528
31
-418
0
ARC
8
T1
62
3
10
1169.81
20
470.904
30
-418
40
3.99971
50
-5.39416
51
0
210
0
220
0
230
1
0
LINE
8
T1
62
3
10
1173.81
20
470.904
30
-418
11
1173.81
21
470.904
31
-418
0
ARC
8
T1
62
3
10
1169.81
20
470.904
30
-418
40
4
50
0
51
85.7276
210
0
220
0
230
1
0
LINE
8
T1
62
3
10
1170.11
20
474.893
30
-418
11
1170.11
21
474.893
31
-418
0
LINE
8
T1
62
3
10
1170.11
20
474.893
30
-418
11
1134.19
21
477.575
31
-418
0
LINE
8
T1
62
3
10
1134.19
20
477.575
30
-418
11
1135.12
21
490.54
31
-418
0
LINE
8
T1
62
3
10
1135.12
20
490.54
30
-418
11
1171
21
487.86
31
-418
0
ARC
8
T1
62
3
10
1171.3
20
491.848
30
-418
40
3.99912
50
-94.2734
51
-90
210
0
220
0
230
1
0
LINE
8
T1
62
3
10
1171.3
20
487.849
30
-418
11
1171.3
21
487.849
31
-418
0
ARC
8
T1
62
3
10
1171.3
20
491.848
30
-418
40
3.999
50
-90
51
-9.55653
210
0
220
0
230
1
0
LINE
8
T1
62
3
10
1175.24
20
491.184
30
-418
11
1175.24
21
491.184
31
-418
0
LINE
8
T1
62
3
10
1175.24
20
491.184
30
-418
11
1205
21
667.834
31
-418
0
ARC
8
T1
62
3
10
1201.06
20
668.499
30
-418
40
4.00066
50
-9.56827
51
1.62804e-12
210
0
220
0
230
1
0
LINE
8
T1
62
3
10
1205.06
20
668.499
30
-418
11
1205.06
21
668.499
31
-418
0
ARC
8
T1
62
3
10
1201.06
20
668.499
30
-418
40
4.001
50
0
51
85.7276
210
0
220
0
230
1
0
LINE
8
T1
62
3
10
1201.36
20
672.489
30
-418
11
1201.36
21
672.488
31
-418
0
LINE
8
T1
62
3
10
1201.36
20
672.488
30
-418
11
1165.44
21
675.17
31
-418
0
LINE
8
T1
62
3
10
1165.44
20
675.17
30
-418
11
1166.37
21
688.134
31
-418
0
LINE
8
T1
62
3
10
1166.37
20
688.134
30
-418
11
1202.25
21
685.454
31
-418
0
ARC
8
T1
62
3
10
1202.55
20
689.443
30
-418
40
4.00012
50
-94.2724
51
-90
210
0
220
0
230
1
0
LINE
8
T1
62
3
10
1202.55
20
685.443
30
-418
11
1202.55
21
685.443
31
-418
0
ARC
8
T1
62
3
10
1202.55
20
689.443
30
-418
40
4
50
-90
51
-0.888235
210
0
220
0
230
1
0
LINE
8
T1
62
3
10
1206.55
20
689.381
30
-418
11
1206.55
21
689.381
31
-418
0
LINE
8
T1
62
3
10
1206.55
20
689.381
30
-418
11
1209
21
846.7
31
-418
0
LINE
8
T1
62
3
10
1209
20
846.7
30
-418
11
1209
21
846.762
31
-418
0
ARC
8
T1
62
3
10
1205
20
846.762
30
-418
40
4
50
0
51
85.9287
210
0
220
0
230
1
0
LINE
8
T1
62
3
10
1205.28
20
850.752
30
-418
11
1205.28
21
850.752
31
-418
0
LINE
8
T1
62
3
10
1205.28
20
850.752
30
-418
11
1188.34
21
851.957
31
-418
0
LINE
8
T1
62
3
10
1188.34
20
851.957
30
-418
11
1191.02
21
887.756
31
-418
0
ARC
8
T1
62
3
10
1187.03
20
888.054
30
-418
40
4.00012
50
-4.27237
51
0
210
0
220
0
230
1
0
LINE
8
T1
62
3
10
1191.03
20
888.054
30
-418
11
1191.03
21
888.054
31
-418
0
ARC
8
T1
62
3
10
1187.03
20
888.054
30
-418
40
4
50
0
51
90
210
0
220
0
230
1
0
LINE
8
T1
62
3
10
1187.03
20
892.054
30
-418
11
1187.03
21
892.054
31
-418
0
LINE
8
T1
62
3
10
1187.03
20
892.054
30
-418
11
1095.21
21
892.054
31
-418
0
ARC
8
T1
62
3
10
1095.21
20
888.054
30
-418
40
4
50
90
51
180
210
0
220
0
230
1
0
LINE
8
T1
62
3
10
1091.21
20
888.054
30
-418
11
1091.21
21
888.054
31
-418
0
LINE
8
T1
62
3
10
1091.21
20
888.054
30
-418
11
1091.21
21
852.054
31
-418
0
LINE
8
T1
62
3
10
1091.21
20
852.054
30
-418
11
1071.43
21
852.054
31
-418
0
ARC
8
T1
62
3
10
1071.43
20
848.054
30
-418
40
4
50
90
51
173.15
210
0
220
0
230
1
0
LINE
8
T1
62
3
10
1067.46
20
848.531
30
-418
11
1067.46
21
848.531
31
-418
0
LINE
8
T1
62
3
10
1067.46
20
848.531
30
-418
11
1066.24
21
838.378
31
-418
0
LINE
8
T1
62
3
10
1066.24
20
838.378
30
-418
11
1064.81
21
828.375
31
-418
0
LINE
8
T1
62
3
10
1064.81
20
828.375
30
-418
11
1063.18
21
818.477
31
-418
0
LINE
8
T1
62
3
10
1063.18
20
818.477
30
-418
11
1061.34
21
808.685
31
-418
0
LINE
8
T1
62
3
10
1061.34
20
808.685
30
-418
11
1059.29
21
799
31
-418
0
LINE
8
T1
62
3
10
1059.29
20
799
30
-418
11
1057.03
21
789.42
31
-418
0
LINE
8
T1
62
3
10
1057.03
20
789.42
30
-418
11
1054.56
21
779.946
31
-418
0
LINE
8
T1
62
3
10
1054.56
20
779.946
30
-418
11
1051.89
21
770.578
31
-418
0
LINE
8
T1
62
3
10
1051.89
20
770.578
30
-418
11
1049.01
21
761.314
31
-418
0
LINE
8
T1
62
3
10
1049.01
20
761.314
30
-418
11
1045.91
21
752.156
31
-418
0
LINE
8
T1
62
3
10
1045.91
20
752.156
30
-418
11
1042.61
21
743.103
31
-418
0
LINE
8
T1
62
3
10
1042.61
20
743.103
30
-418
11
1039.11
21
734.155
31
-418
0
LINE
8
T1
62
3
10
1039.11
20
734.155
30
-418
11
1035.39
21
725.312
31
-418
0
LINE
8
T1
62
3
10
1035.39
20
725.312
30
-418
11
1031.46
21
716.573
31
-418
0
LINE
8
T1
62
3
10
1031.46
20
716.573
30
-418
11
1027.33
21
707.939
31
-418
0
LINE
8
T1
62
3
10
1027.33
20
707.939
30
-418
11
1022.99
21
699.409
31
-418
0
LINE
8
T1
62
3
10
1022.99
20
699.409
30
-418
11
1018.44
21
690.983
31
-418
0
LINE
8
T1
62
3
10
1018.44
20
690.983
30
-418
11
1013.68
21
682.661
31
-418
0
LINE
8
T1
62
3
10
1013.68
20
682.661
30
-418
11
1008.71
21
674.442
31
-418
0
LINE
8
T1
62
3
10
1008.71
20
674.442
30
-418
11
1003.53
21
666.328
31
-418
0
LINE
8
T1
62
3
10
1003.53
20
666.328
30
-418
11
998.144
21
658.317
31
-418
0
LINE
8
T1
62
3
10
998.144
20
658.317
30
-418
11
992.548
21
650.409
31
-418
0
LINE
8
T1
62
3
10
992.548
20
650.409
30
-418
11
986.743
21
642.605
31
-418
0
LINE
8
T1
62
3
10
986.743
20
642.605
30
-418
11
980.729
21
634.904
31
-418
0
LINE
8
T1
62
3
10
980.729
20
634.904
30
-418
11
974.505
21
627.306
31
-418
0
LINE
8
T1
62
3
10
974.505
20
627.306
30
-418
11
968.071
21
619.811
31
-418
0
LINE
8
T1
62
3
10
968.071
20
619.811
30
-418
11
961.427
21
612.419
31
-418
0
LINE
8
T1
62
3
10
961.427
20
612.419
30
-418
11
954.574
21
605.131
31
-418
0
LINE
8
T1
62
3
10
954.574
20
605.131
30
-418
11
947.51
21
597.945
31
-418
0
LINE
8
T1
62
3
10
947.51
20
597.945
30
-418
11
940.236
21
590.862
31
-418
0
LINE
8
T1
62
3
10
940.236
20
590.862
30
-418
11
932.752
21
583.883
31
-418
0
LINE
8
T1
62
3
10
932.752
20
583.883
30
-418
11
925.026
21
576.978
31
-418
0
ARC
8
T1
62
3
10
927.692
20
573.996
30
-418
40
3.99998
50
131.798
51
180
210
0
220
0
230
1
0
LINE
8
T1
62
3
10
923.692
20
573.996
30
-418
11
923.692
21
573.996
31
-418
0
LINE
8
T1
62
3
10
923.692
20
573.996
30
-418
11
923.692
21
533.996
31
-418
0
ARC
8
T1
62
3
10
927.692
20
533.996
30
-418
40
4
50
180
51
-90
210
0
220
0
230
1
0
LINE
8
T1
62
3
10
927.692
20
529.996
30
-418
11
927.692
21
529.996
31
-418
0
LINE
8
T1
62
3
10
927.692
20
529.996
30
-418
11
944.692
21
529.996
31
-418
0
LINE
8
T1
62
3
10
944.692
20
529.996
30
-418
11
944.692
21
497.996
31
-418
0
LINE
8
T1
62
3
10
944.692
20
497.996
30
-418
11
927.692
21
497.996
31
-418
0
ARC
8
T1
62
3
10
927.692
20
493.996
30
-418
40
4
50
90
51
180
210
0
220
0
230
1
0
LINE
8
T1
62
3
10
923.692
20
493.996
30
-418
11
923.692
21
493.996
31
-418
0
LINE
8
T1
62
3
10
923.692
20
493.996
30
-418
11
923.692
21
466.617
31
-418
0
LINE
8
T1
62
3
10
923.692
20
466.617
30
-418
11
917.692
21
466.617
31
-418
0
LINE
8
T1
62
3
10
917.692
20
466.617
30
-418
11
889.692
21
466.617
31
-418
0
ARC
8
T1
62
3
10
889.692
20
462.617
30
-418
40
4
50
90
51
180
210
0
220
0
230
1
0
LINE
8
T1
62
3
10
885.692
20
462.617
30
-418
11
885.692
21
462.617
31
-418
0
LINE
8
T1
62
3
10
885.692
20
462.617
30
-418
11
885.692
21
391.431
31
-418
0
LINE
8
T1
62
3
10
885.692
20
391.431
30
-418
11
843.692
21
391.431
31
-418
0
LINE
8
T1
62
3
10
843.692
20
391.431
30
-418
11
843.692
21
417.431
31
-418
0
ARC
8
T1
62
3
10
839.692
20
417.431
30
-418
40
4
50
0
51
90
210
0
220
0
230
1
0
LINE
8
T1
62
3
10
839.692
20
421.431
30
-418
11
839.692
21
421.431
31
-418
0
LINE
8
T1
62
3
10
839.692
20
421.431
30
-418
11
779.136
21
421.431
31
-418
0
LINE
8
T1
62
3
10
779.136
20
421.431
30
-418
11
767.34
21
418.087
31
-418
0
LINE
8
T1
62
3
10
767.34
20
418.087
30
-418
11
756.167
21
415.189
31
-418
0
LINE
8
T1
62
3
10
756.167
20
415.189
30
-418
11
745.039
21
412.574
31
-418
0
LINE
8
T1
62
3
10
745.039
20
412.574
30
-418
11
733.955
21
410.241
31
-418
0
LINE
8
T1
62
3
10
733.955
20
410.241
30
-418
11
722.915
21
408.191
31
-418
0
LINE
8
T1
62
3
10
722.915
20
408.191
30
-418
11
711.92
21
406.423
31
-418
0
LINE
8
T1
62
3
10
711.92
20
406.423
30
-418
11
700.969
21
404.938
31
-418
0
LINE
8
T1
62
3
10
700.969
20
404.938
30
-418
11
690.062
21
403.734
31
-418
0
LINE
8
T1
62
3
10
690.062
20
403.734
30
-418
11
679.199
21
402.812
31
-418
0
LINE
8
T1
62
3
10
679.199
20
402.812
30
-418
11
668.38
21
402.172
31
-418
0
LINE
8
T1
62
3
10
668.38
20
402.172
30
-418
11
657.604
21
401.813
31
-418
0
LINE
8
T1
62
3
10
657.604
20
401.813
30
-418
11
646.872
21
401.737
31
-418
0
LINE
8
T1
62
3
10
646.872
20
401.737
30
-418
11
636.183
21
401.941
31
-418
0
LINE
8
T1
62
3
10
636.183
20
401.941
30
-418
11
625.537
21
402.427
31
-418
0
LINE
8
T1
62
3
10
625.537
20
402.427
30
-418
11
614.933
21
403.195
31
-418
0
LINE
8
T1
62
3
10
614.933
20
403.195
30
-418
11
604.372
21
404.244
31
-418
0
LINE
8
T1
62
3
10
604.372
20
404.244
30
-418
11
593.854
21
405.574
31
-418
0
LINE
8
T1
62
3
10
593.854
20
405.574
30
-418
11
583.377
21
407.186
31
-418
0
LINE
8
T1
62
3
10
583.377
20
407.186
30
-418
11
572.943
21
409.08
31
-418
0
LINE
8
T1
62
3
10
572.943
20
409.08
30
-418
11
562.55
21
411.254
31
-418
0
LINE
8
T1
62
3
10
562.55
20
411.254
30
-418
11
552.198
21
413.711
31
-418
0
LINE
8
T1
62
3
10
552.198
20
413.711
30
-418
11
541.887
21
416.449
31
-418
0
LINE
8
T1
62
3
10
541.887
20
416.449
30
-418
11
531.618
21
419.469
31
-418
0
LINE
8
T1
62
3
10
531.618
20
419.469
30
-418
11
521.389
21
422.771
31
-418
0
LINE
8
T1
62
3
10
521.389
20
422.771
30
-418
11
511.201
21
426.355
31
-418
0
LINE
8
T1
62
3
10
511.201
20
426.355
30
-418
11
501.053
21
430.221
31
-418
0
LINE
8
T1
62
3
10
501.053
20
430.221
30
-418
11
490.946
21
434.369
31
-418
0
LINE
8
T1
62
3
10
490.946
20
434.369
30
-418
11
480.879
21
438.8
31
-418
0
LINE
8
T1
62
3
10
480.879
20
438.8
30
-418
11
470.852
21
443.513
31
-418
0
LINE
8
T1
62
3
10
470.852
20
443.513
30
-418
11
460.865
21
448.51
31
-418
0
LINE
8
T1
62
3
10
460.865
20
448.51
30
-418
11
450.918
21
453.789
31
-418
0
LINE
8
T1
62
3
10
450.918
20
453.789
30
-418
11
440.205
21
459.803
31
-418
0
LINE
8
T1
62
3
10
440.205
20
459.803
30
-418
11
365.153
21
465.808
31
-418
0
ARC
8
T1
62
3
10
364.834
20
461.821
30
-418
40
3.99974
50
85.4255
51
90
210
0
220
0
230
1
0
LINE
8
T1
62
3
10
364.834
20
465.821
30
-418
11
364.834
21
465.821
31
-418
0
ARC
8
T1
62
3
10
364.834
20
461.821
30
-418
40
4
50
90
51
180
210
0
220
0
230
1
0
LINE
8
T1
62
3
10
360.834
20
461.821
30
-418
11
360.834
21
461.821
31
-418
0
LINE
8
T1
62
3
10
360.834
20
461.821
30
-418
11
360.834
21
439.821
31
-418
0
LINE
8
T1
62
3
10
360.834
20
439.821
30
-418
11
360.834
21
439.821
31
-424
0
LINE
8
T1
62
3
10
360.834
20
439.821
30
-424
11
314.834
21
439.821
31
-424
0
ARC
8
T1
62
3
10
314.834
20
435.821
30
-424
40
4
50
90
51
180
210
0
220
0
230
1
0
LINE
8
T1
62
3
10
310.834
20
435.821
30
-424
11
310.834
21
435.821
31
-424
0
LINE
8
T1
62
3
10
310.834
20
435.821
30
-424
11
310.834
21
302.591
31
-424
0
ARC
8
T1
62
3
10
314.834
20
302.591
30
-424
40
4
50
180
51
-90
210
0
220
0
230
1
0
LINE
8
T1
62
3
10
314.834
20
298.591
30
-424
11
314.834
21
298.591
31
-424
0
LINE
8
T1
62
3
10
314.834
20
298.591
30
-424
11
331.834
21
298.591
31
-424
0
LINE
8
T1
62
3
10
331.834
20
298.591
30
-424
11
331.834
21
242.591
31
-424
0
ARC
8
T1
62
3
10
335.834
20
242.591
30
-424
40
4
50
180
51
-90
210
0
220
0
230
1
0
LINE
8
T1
62
3
10
335.834
20
238.591
30
-424
11
335.834
21
238.591
31
-424
0
LINE
8
T1
62
3
10
335.834
20
238.591
30
-424
11
1100.39
21
238.591
31
-424
0
ARC
8
T1
62
3
10
1100.39
20
242.591
30
-424
40
4
50
-90
51
0
210
0
220
0
230
1
0
LINE
8
T1
62
3
10
1104.39
20
242.591
30
-424
11
1104.39
21
242.591
31
-424
0
LINE
8
T1
62
3
10
1104.39
20
242.591
30
-424
11
1104.39
21
259.591
31
-424
0
LINE
8
T1
62
3
10
1104.39
20
259.591
30
-424
11
1150.25
21
259.591
31
-424
0
ARC
8
T1
62
3
10
1150.25
20
263.591
30
-424
40
4
50
-90
51
-5.39281
210
0
220
0
230
1
0
LINE
8
T1
62
3
10
1154.23
20
263.215
30
-424
11
1154.23
21
263.215
31
-424
0
LINE
8
T1
62
3
10
1154.23
20
263.215
30
-424
11
1173.79
21
470.528
31
-424
0
ARC
8
T1
62
3
10
1169.81
20
470.904
30
-424
40
3.99971
50
-5.39416
51
0
210
0
220
0
230
1
0
LINE
8
T1
62
3
10
1173.81
20
470.904
30
-424
11
1173.81
21
470.904
31
-424
0
ARC
8
T1
62
3
10
1169.81
20
470.904
30
-424
40
4
50
0
51
85.7276
210
0
220
0
230
1
0
LINE
8
T1
62
3
10
1170.11
20
474.893
30
-424
11
1170.11
21
474.893
31
-424
0
LINE
8
T1
62
3
10
1170.11
20
474.893
30
-424
11
1134.19
21
477.575
31
-424
0
LINE
8
T1
62
3
10
1134.19
20
477.575
30
-424
11
1135.12
21
490.54
31
-424
0
LINE
8
T1
62
3
10
1135.12
20
490.54
30
-424
11
1171
21
487.86
31
-424
0
ARC
8
T1
62
3
10
1171.3
20
491.848
30
-424
40
3.99912
50
-94.2734
51
-90
210
0
220
0
230
1
0
LINE
8
T1
62
3
10
1171.3
20
487.849
30
-424
11
1171.3
21
487.849
31
-424
0
ARC
8
T1
62
3
10
1171.3
20
491.848
30
-424
40
3.999
50
-90
51
-9.55653
210
0
220
0
230
1
0
LINE
8
T1
62
3
10
1175.24
20
491.184
30
-424
11
1175.24
21
491.184
31
-424
0
LINE
8
T1
62
3
10
1175.24
20
491.184
30
-424
11
1205
21
667.834
31
-424
0
ARC
8
T1
62
3
10
1201.06
20
668.499
30
-424
40
4.00066
50
-9.56827
51
1.62804e-12
210
0
220
0
230
1
0
LINE
8
T1
62
3
10
1205.06
20
668.499
30
-424
11
1205.06
21
668.499
31
-424
0
ARC
8
T1
62
3
10
1201.06
20
668.499
30
-424
40
4.001
50
0
51
85.7276
210
0
220
0
230
1
0
LINE
8
T1
62
3
10
1201.36
20
672.489
30
-424
11
1201.36
21
672.488
31
-424
0
LINE
8
T1
62
3
10
1201.36
20
672.488
30
-424
11
1165.44
21
675.17
31
-424
0
LINE
8
T1
62
3
10
1165.44
20
675.17
30
-424
11
1166.37
21
688.134
31
-424
0
LINE
8
T1
62
3
10
1166.37
20
688.134
30
-424
11
1202.25
21
685.454
31
-424
0
ARC
8
T1
62
3
10
1202.55
20
689.443
30
-424
40
4.00012
50
-94.2724
51
-90
210
0
220
0
230
1
0
LINE
8
T1
62
3
10
1202.55
20
685.443
30
-424
11
1202.55
21
685.443
31
-424
0
ARC
8
T1
62
3
10
1202.55
20
689.443
30
-424
40
4
50
-90
51
-0.888235
210
0
220
0
230
1
0
LINE
8
T1
62
3
10
1206.55
20
689.381
30
-424
11
1206.55
21
689.381
31
-424
0
LINE
8
T1
62
3
10
1206.55
20
689.381
30
-424
11
1209
21
846.7
31
-424
0
LINE
8
T1
62
3
10
1209
20
846.7
30
-424
11
1209
21
846.762
31
-424
0
ARC
8
T1
62
3
10
1205
20
846.762
30
-424
40
4
50
0
51
85.9287
210
0
220
0
230
1
0
LINE
8
T1
62
3
10
1205.28
20
850.752
30
-424
11
1205.28
21
850.752
31
-424
0
LINE
8
T1
62
3
10
1205.28
20
850.752
30
-424
11
1188.34
21
851.957
31
-424
0
LINE
8
T1
62
3
10
1188.34
20
851.957
30
-424
11
1191.02
21
887.756
31
-424
0
ARC
8
T1
62
3
10
1187.03
20
888.054
30
-424
40
4.00012
50
-4.27237
51
0
210
0
220
0
230
1
0
LINE
8
T1
62
3
10
1191.03
20
888.054
30
-424
11
1191.03
21
888.054
31
-424
0
ARC
8
T1
62
3
10
1187.03
20
888.054
30
-424
40
4
50
0
51
90
210
0
220
0
230
1
0
LINE
8
T1
62
3
10
1187.03
20
892.054
30
-424
11
1187.03
21
892.054
31
-424
0
LINE
8
T1
62
3
10
1187.03
20
892.054
30
-424
11
1095.21
21
892.054
31
-424
0
ARC
8
T1
62
3
10
1095.21
20
888.054
30
-424
40
4
50
90
51
180
210
0
220
0
230
1
0
LINE
8
T1
62
3
10
1091.21
20
888.054
30
-424
11
1091.21
21
888.054
31
-424
0
LINE
8
T1
62
3
10
1091.21
20
888.054
30
-424
11
1091.21
21
852.054
31
-424
0
LINE
8
T1
62
3
10
1091.21
20
852.054
30
-424
11
1071.43
21
852.054
31
-424
0
ARC
8
T1
62
3
10
1071.43
20
848.054
30
-424
40
4
50
90
51
173.15
210
0
220
0
230
1
0
LINE
8
T1
62
3
10
1067.46
20
848.531
30
-424
11
1067.46
21
848.531
31
-424
0
LINE
8
T1
62
3
10
1067.46
20
848.531
30
-424
11
1066.24
21
838.378
31
-424
0
LINE
8
T1
62
3
10
1066.24
20
838.378
30
-424
11
1064.81
21
828.375
31
-424
0
LINE
8
T1
62
3
10
1064.81
20
828.375
30
-424
11
1063.18
21
818.477
31
-424
0
LINE
8
T1
62
3
10
1063.18
20
818.477
30
-424
11
1061.34
21
808.685
31
-424
0
LINE
8
T1
62
3
10
1061.34
20
808.685
30
-424
11
1059.29
21
799
31
-424
0
LINE
8
T1
62
3
10
1059.29
20
799
30
-424
11
1057.03
21
789.42
31
-424
0
LINE
8
T1
62
3
10
1057.03
20
789.42
30
-424
11
1054.56
21
779.946
31
-424
0
LINE
8
T1
62
3
10
1054.56
20
779.946
30
-424
11
1051.89
21
770.578
31
-424
0
LINE
8
T1
62
3
10
1051.89
20
770.578
30
-424
11
1049.01
21
761.314
31
-424
0
LINE
8
T1
62
3
10
1049.01
20
761.314
30
-424
11
1045.91
21
752.156
31
-424
0
LINE
8
T1
62
3
10
1045.91
20
752.156
30
-424
11
1042.61
21
743.103
31
-424
0
LINE
8
T1
62
3
10
1042.61
20
743.103
30
-424
11
1039.11
21
734.155
31
-424
0
LINE
8
T1
62
3
10
1039.11
20
734.155
30
-424
11
1035.39
21
725.312
31
-424
0
LINE
8
T1
62
3
10
1035.39
20
725.312
30
-424
11
1031.46
21
716.573
31
-424
0
LINE
8
T1
62
3
10
1031.46
20
716.573
30
-424
11
1027.33
21
707.939
31
-424
0
LINE
8
T1
62
3
10
1027.33
20
707.939
30
-424
11
1022.99
21
699.409
31
-424
0
LINE
8
T1
62
3
10
1022.99
20
699.409
30
-424
11
1018.44
21
690.983
31
-424
0
LINE
8
T1
62
3
10
1018.44
20
690.983
30
-424
11
1013.68
21
682.661
31
-424
0
LINE
8
T1
62
3
10
1013.68
20
682.661
30
-424
11
1008.71
21
674.442
31
-424
0
LINE
8
T1
62
3
10
1008.71
20
674.442
30
-424
11
1003.53
21
666.328
31
-424
0
LINE
8
T1
62
3
10
1003.53
20
666.328
30
-424
11
998.144
21
658.317
31
-424
0
LINE
8
T1
62
3
10
998.144
20
658.317
30
-424
11
992.548
21
650.409
31
-424
0
LINE
8
T1
62
3
10
992.548
20
650.409
30
-424
11
986.743
21
642.605
31
-424
0
LINE
8
T1
62
3
10
986.743
20
642.605
30
-424
11
980.729
21
634.904
31
-424
0
LINE
8
T1
62
3
10
980.729
20
634.904
30
-424
11
974.505
21
627.306
31
-424
0
LINE
8
T1
62
3
10
974.505
20
627.306
30
-424
11
968.071
21
619.811
31
-424
0
LINE
8
T1
62
3
10
968.071
20
619.811
30
-424
11
961.427
21
612.419
31
-424
0
LINE
8
T1
62
3
10
961.427
20
612.419
30
-424
11
954.574
21
605.131
31
-424
0
LINE
8
T1
62
3
10
954.574
20
605.131
30
-424
11
947.51
21
597.945
31
-424
0
LINE
8
T1
62
3
10
947.51
20
597.945
30
-424
11
940.236
21
590.862
31
-424
0
LINE
8
T1
62
3
10
940.236
20
590.862
30
-424
11
932.752
21
583.883
31
-424
0
LINE
8
T1
62
3
10
932.752
20
583.883
30
-424
11
925.026
21
576.978
31
-424
0
ARC
8
T1
62
3
10
927.692
20
573.996
30
-424
40
3.99998
50
131.798
51
180
210
0
220
0
230
1
0
LINE
8
T1
62
3
10
923.692
20
573.996
30
-424
11
923.692
21
573.996
31
-424
0
LINE
8
T1
62
3
10
923.692
20
573.996
30
-424
11
923.692
21
533.996
31
-424
0
ARC
8
T1
62
3
10
927.692
20
533.996
30
-424
40
4
50
180
51
-90
210
0
220
0
230
1
0
LINE
8
T1
62
3
10
927.692
20
529.996
30
-424
11
927.692
21
529.996
31
-424
0
LINE
8
T1
62
3
10
927.692
20
529.996
30
-424
11
944.692
21
529.996
31
-424
0
LINE
8
T1
62
3
10
944.692
20
529.996
30
-424
11
944.692
21
497.996
31
-424
0
LINE
8
T1
62
3
10
944.692
20
497.996
30
-424
11
927.692
21
497.996
31
-424
0
ARC
8
T1
62
3
10
927.692
20
493.996
30
-424
40
4
50
90
51
180
210
0
220
0
230
1
0
LINE
8
T1
62
3
10
923.692
20
493.996
30
-424
11
923.692
21
493.996
31
-424
0
LINE
8
T1
62
3
10
923.692
20
493.996
30
-424
11
923.692
21
466.617
31
-424
0
LINE
8
T1
62
3
10
923.692
20
466.617
30
-424
11
917.692
21
466.617
31
-424
0
LINE
8
T1
62
3
10
917.692
20
466.617
30
-424
11
889.692
21
466.617
31
-424
0
ARC
8
T1
62
3
10
889.692
20
462.617
30
-424
40
4
50
90
51
180
210
0
220
0
230
1
0
LINE
8
T1
62
3
10
885.692
20
462.617
30
-424
11
885.692
21
462.617
31
-424
0
LINE
8
T1
62
3
10
885.692
20
462.617
30
-424
11
885.692
21
391.431
31
-424
0
LINE
8
T1
62
3
10
885.692
20
391.431
30
-424
11
843.692
21
391.431
31
-424
0
LINE
8
T1
62
3
10
843.692
20
391.431
30
-424
11
843.692
21
417.431
31
-424
0
ARC
8
T1
62
3
10
839.692
20
417.431
30
-424
40
4
50
0
51
90
210
0
220
0
230
1
0
LINE
8
T1
62
3
10
839.692
20
421.431
30
-424
11
839.692
21
421.431
31
-424
0
LINE
8
T1
62
3
10
839.692
20
421.431
30
-424
11
779.136
21
421.431
31
-424
0
LINE
8
T1
62
3
10
779.136
20
421.431
30
-424
11
767.34
21
418.087
31
-424
0
LINE
8
T1
62
3
10
767.34
20
418.087
30
-424
11
756.167
21
415.189
31
-424
0
LINE
8
T1
62
3
10
756.167
20
415.189
30
-424
11
745.039
21
412.574
31
-424
0
LINE
8
T1
62
3
10
745.039
20
412.574
30
-424
11
733.955
21
410.241
31
-424
0
LINE
8
T1
62
3
10
733.955
20
410.241
30
-424
11
722.915
21
408.191
31
-424
0
LINE
8
T1
62
3
10
722.915
20
408.191
30
-424
11
711.92
21
406.423
31
-424
0
LINE
8
T1
62
3
10
711.92
20
406.423
30
-424
11
700.969
21
404.938
31
-424
0
LINE
8
T1
62
3
10
700.969
20
404.938
30
-424
11
690.062
21
403.734
31
-424
0
LINE
8
T1
62
3
10
690.062
20
403.734
30
-424
11
679.199
21
402.812
31
-424
0
LINE
8
T1
62
3
10
679.199
20
402.812
30
-424
11
668.38
21
402.172
31
-424
0
LINE
8
T1
62
3
10
668.38
20
402.172
30
-424
11
657.604
21
401.813
31
-424
0
LINE
8
T1
62
3
10
657.604
20
401.813
30
-424
11
646.872
21
401.737
31
-424
0
LINE
8
T1
62
3
10
646.872
20
401.737
30
-424
11
636.183
21
401.941
31
-424
0
LINE
8
T1
62
3
10
636.183
20
401.941
30
-424
11
625.537
21
402.427
31
-424
0
LINE
8
T1
62
3
10
625.537
20
402.427
30
-424
11
614.933
21
403.195
31
-424
0
LINE
8
T1
62
3
10
614.933
20
403.195
30
-424
11
604.372
21
404.244
31
-424
0
LINE
8
T1
62
3
10
604.372
20
404.244
30
-424
11
593.854
21
405.574
31
-424
0
LINE
8
T1
62
3
10
593.854
20
405.574
30
-424
11
583.377
21
407.186
31
-424
0
LINE
8
T1
62
3
10
583.377
20
407.186
30
-424
11
572.943
21
409.08
31
-424
0
LINE
8
T1
62
3
10
572.943
20
409.08
30
-424
11
562.55
21
411.254
31
-424
0
LINE
8
T1
62
3
10
562.55
20
411.254
30
-424
11
552.198
21
413.711
31
-424
0
LINE
8
T1
62
3
10
552.198
20
413.711
30
-424
11
541.887
21
416.449
31
-424
0
LINE
8
T1
62
3
10
541.887
20
416.449
30
-424
11
531.618
21
419.469
31
-424
0
LINE
8
T1
62
3
10
531.618
20
419.469
30
-424
11
521.389
21
422.771
31
-424
0
LINE
8
T1
62
3
10
521.389
20
422.771
30
-424
11
511.201
21
426.355
31
-424
0
LINE
8
T1
62
3
10
511.201
20
426.355
30
-424
11
501.053
21
430.221
31
-424
0
LINE
8
T1
62
3
10
501.053
20
430.221
30
-424
11
490.946
21
434.369
31
-424
0
LINE
8
T1
62
3
10
490.946
20
434.369
30
-424
11
480.879
21
438.8
31
-424
0
LINE
8
T1
62
3
10
480.879
20
438.8
30
-424
11
470.852
21
443.513
31
-424
0
LINE
8
T1
62
3
10
470.852
20
443.513
30
-424
11
460.865
21
448.51
31
-424
0
LINE
8
T1
62
3
10
460.865
20
448.51
30
-424
11
450.918
21
453.789
31
-424
0
LINE
8
T1
62
3
10
450.918
20
453.789
30
-424
11
440.205
21
459.803
31
-424
0
LINE
8
T1
62
3
10
440.205
20
459.803
30
-424
11
365.153
21
465.808
31
-424
0
ARC
8
T1
62
3
10
364.834
20
461.821
30
-424
40
3.99974
50
85.4255
51
90
210
0
220
0
230
1
0
LINE
8
T1
62
3
10
364.834
20
465.821
30
-424
11
364.834
21
465.821
31
-424
0
ARC
8
T1
62
3
10
364.834
20
461.821
30
-424
40
4
50
90
51
180
210
0
220
0
230
1
0
LINE
8
T1
62
3
10
360.834
20
461.821
30
-424
11
360.834
21
461.821
31
-424
0
LINE
8
T1
62
3
10
360.834
20
461.821
30
-424
11
360.834
21
439.821
31
-424
0
LINE
8
T1
62
1
10
360.834
20
439.821
30
-424
11
360.834
21
439.821
31
-399
0
LINE
8
T1
62
1
10
360.834
20
439.821
30
-399
11
360.834
21
439.821
31
-372
0
LINE
8
T1
62
1
10
360.834
20
439.821
30
-372
11
130.87
21
1133.27
31
-372
0
LINE
8
T1
62
1
10
130.87
20
1133.27
30
-372
11
130.87
21
1133.27
31
-402
0
LINE
8
T1
62
3
10
130.87
20
1133.27
30
-402
11
130.87
21
1133.27
31
-418
0
LINE
8
T1
62
3
10
130.87
20
1133.27
30
-418
11
0
21
1133.27
31
-418
0
ARC
8
T1
62
3
10
0
20
1129.27
30
-418
40
4
50
90
51
180
210
0
220
0
230
1
0
LINE
8
T1
62
3
10
-4
20
1129.27
30
-418
11
-4
21
1129.27
31
-418
0
ARC
8
T1
62
3
10
0
20
1129.27
30
-418
40
4
50
180
51
-178.739
210
0
220
0
230
1
0
LINE
8
T1
62
3
10
-3.99903
20
1129.18
30
-418
11
-3.999
21
1129.18
31
-418
0
LINE
8
T1
62
3
10
-3.999
20
1129.18
30
-418
11
10.139
21
483.72
31
-418
0
ARC
8
T1
62
3
10
14.138
20
483.807
30
-418
40
3.99995
50
-178.754
51
-90
210
0
220
0
230
1
0
LINE
8
T1
62
3
10
14.138
20
479.807
30
-418
11
14.138
21
479.807
31
-418
0
LINE
8
T1
62
3
10
14.138
20
479.807
30
-418
11
78.472
21
479.807
31
-418
0
ARC
8
T1
62
3
10
78.472
20
483.807
30
-418
40
4
50
-90
51
0
210
0
220
0
230
1
0
LINE
8
T1
62
3
10
82.472
20
483.807
30
-418
11
82.472
21
483.807
31
-418
0
LINE
8
T1
62
3
10
82.472
20
483.807
30
-418
11
82.472
21
494.807
31
-418
0
LINE
8
T1
62
3
10
82.472
20
494.807
30
-418
11
129.922
21
494.807
31
-418
0
LINE
8
T1
62
3
10
129.922
20
494.807
30
-418
11
129.922
21
483.807
31
-418
0
ARC
8
T1
62
3
10
133.922
20
483.807
30
-418
40
4
50
180
51
-90
210
0
220
0
230
1
0
LINE
8
T1
62
3
10
133.922
20
479.807
30
-418
11
133.922
21
479.807
31
-418
0
LINE
8
T1
62
3
10
133.922
20
479.807
30
-418
11
803.922
21
479.807
31
-418
0
ARC
8
T1
62
3
10
803.922
20
483.807
30
-418
40
4
50
-90
51
0
210
0
220
0
230
1
0
LINE
8
T1
62
3
10
807.922
20
483.807
30
-418
11
807.922
21
483.807
31
-418
0
LINE
8
T1
62
3
10
807.922
20
483.807
30
-418
11
807.922
21
494.807
31
-418
0
LINE
8
T1
62
3
10
807.922
20
494.807
30
-418
11
872.922
21
494.807
31
-418
0
ARC
8
T1
62
3
10
872.922
20
498.807
30
-418
40
4
50
-90
51
0
210
0
220
0
230
1
0
LINE
8
T1
62
3
10
876.922
20
498.807
30
-418
11
876.922
21
498.807
31
-418
0
LINE
8
T1
62
3
10
876.922
20
498.807
30
-418
11
876.922
21
539.807
31
-418
0
LINE
8
T1
62
3
10
876.922
20
539.807
30
-418
11
893.922
21
539.807
31
-418
0
ARC
8
T1
62
3
10
893.922
20
543.807
30
-418
40
4
50
-90
51
0
210
0
220
0
230
1
0
LINE
8
T1
62
3
10
897.922
20
543.807
30
-418
11
897.922
21
543.807
31
-418
0
LINE
8
T1
62
3
10
897.922
20
543.807
30
-418
11
897.922
21
707.037
31
-418
0
ARC
8
T1
62
3
10
893.922
20
707.037
30
-418
40
4
50
0
51
90
210
0
220
0
230
1
0
LINE
8
T1
62
3
10
893.922
20
711.037
30
-418
11
893.922
21
711.037
31
-418
0
LINE
8
T1
62
3
10
893.922
20
711.037
30
-418
11
843.719
21
711.037
31
-418
0
LINE
8
T1
62
3
10
843.719
20
711.037
30
-418
11
368.861
21
662.647
31
-418
0
LINE
8
T1
62
3
10
368.861
20
662.647
30
-418
11
323.064
21
662.647
31
-418
0
LINE
8
T1
62
3
10
323.064
20
662.647
30
-418
11
323.064
21
724.833
31
-418
0
ARC
8
T1
62
3
10
319.064
20
724.833
30
-418
40
4
50
0
51
90
210
0
220
0
230
1
0
LINE
8
T1
62
3
10
319.064
20
728.833
30
-418
11
319.064
21
728.833
31
-418
0
LINE
8
T1
62
3
10
319.064
20
728.833
30
-418
11
285.064
21
728.833
31
-418
0
LINE
8
T1
62
3
10
285.064
20
728.833
30
-418
11
285.064
21
816.119
31
-418
0
LINE
8
T1
62
3
10
285.064
20
816.119
30
-418
11
134.479
21
1130.99
31
-418
0
ARC
8
T1
62
3
10
130.87
20
1129.27
30
-418
40
4.00006
50
25.5465
51
90
210
0
220
0
230
1
0
LINE
8
T1
62
3
10
130.87
20
1133.27
30
-418
11
130.87
21
1133.27
31
-418
0
LINE
8
T1
62
3
10
130.87
20
1133.27
30
-418
11
130.87
21
1133.27
31
-424
0
LINE
8
T1
62
3
10
130.87
20
1133.27
30
-424
11
0
21
1133.27
31
-424
0
ARC
8
T1
62
3
10
0
20
1129.27
30
-424
40
4
50
90
51
180
210
0
220
0
230
1
0
LINE
8
T1
62
3
10
-4
20
1129.27
30
-424
11
-4
21
1129.27
31
-424
0
ARC
8
T1
62
3
10
0
20
1129.27
30
-424
40
4
50
180
51
-178.739
210
0
220
0
230
1
0
LINE
8
T1
62
3
10
-3.99903
20
1129.18
30
-424
11
-3.999
21
1129.18
31
-424
0
LINE
8
T1
62
3
10
-3.999
20
1129.18
30
-424
11
10.139
21
483.72
31
-424
0
ARC
8
T1
62
3
10
14.138
20
483.807
30
-424
40
3.99995
50
-178.754
51
-90
210
0
220
0
230
1
0
LINE
8
T1
62
3
10
14.138
20
479.807
30
-424
11
14.138
21
479.807
31
-424
0
LINE
8
T1
62
3
10
14.138
20
479.807
30
-424
11
78.472
21
479.807
31
-424
0
ARC
8
T1
62
3
10
78.472
20
483.807
30
-424
40
4
50
-90
51
0
210
0
220
0
230
1
0
LINE
8
T1
62
3
10
82.472
20
483.807
30
-424
11
82.472
21
483.807
31
-424
0
LINE
8
T1
62
3
10
82.472
20
483.807
30
-424
11
82.472
21
494.807
31
-424
0
LINE
8
T1
62
3
10
82.472
20
494.807
30
-424
11
129.922
21
494.807
31
-424
0
LINE
8
T1
62
3
10
129.922
20
494.807
30
-424
11
129.922
21
483.807
31
-424
0
ARC
8
T1
62
3
10
133.922
20
483.807
30
-424
40
4
50
180
51
-90
210
0
220
0
230
1
0
LINE
8
T1
62
3
10
133.922
20
479.807
30
-424
11
133.922
21
479.807
31
-424
0
LINE
8
T1
62
3
10
133.922
20
479.807
30
-424
11
803.922
21
479.807
31
-424
0
ARC
8
T1
62
3
10
803.922
20
483.807
30
-424
40
4
50
-90
51
0
210
0
220
0
230
1
0
LINE
8
T1
62
3
10
807.922
20
483.807
30
-424
11
807.922
21
483.807
31
-424
0
LINE
8
T1
62
3
10
807.922
20
483.807
30
-424
11
807.922
21
494.807
31
-424
0
LINE
8
T1
62
3
10
807.922
20
494.807
30
-424
11
872.922
21
494.807
31
-424
0
ARC
8
T1
62
3
10
872.922
20
498.807
30
-424
40
4
50
-90
51
0
210
0
220
0
230
1
0
LINE
8
T1
62
3
10
876.922
20
498.807
30
-424
11
876.922
21
498.807
31
-424
0
LINE
8
T1
62
3
10
876.922
20
498.807
30
-424
11
876.922
21
539.807
31
-424
0
LINE
8
T1
62
3
10
876.922
20
539.807
30
-424
11
893.922
21
539.807
31
-424
0
ARC
8
T1
62
3
10
893.922
20
543.807
30
-424
40
4
50
-90
51
0
210
0
220
0
230
1
0
LINE
8
T1
62
3
10
897.922
20
543.807
30
-424
11
897.922
21
543.807
31
-424
0
LINE
8
T1
62
3
10
897.922
20
543.807
30
-424
11
897.922
21
707.037
31
-424
0
ARC
8
T1
62
3
10
893.922
20
707.037
30
-424
40
4
50
0
51
90
210
0
220
0
230
1
0
LINE
8
T1
62
3
10
893.922
20
711.037
30
-424
11
893.922
21
711.037
31
-424
0
LINE
8
T1
62
3
10
893.922
20
711.037
30
-424
11
843.719
21
711.037
31
-424
0
LINE
8
T1
62
3
10
843.719
20
711.037
30
-424
11
368.861
21
662.647
31
-424
0
LINE
8
T1
62
3
10
368.861
20
662.647
30
-424
11
323.064
21
662.647
31
-424
0
LINE
8
T1
62
3
10
323.064
20
662.647
30
-424
11
323.064
21
724.833
31
-424
0
ARC
8
T1
62
3
10
319.064
20
724.833
30
-424
40
4
50
0
51
90
210
0
220
0
230
1
0
LINE
8
T1
62
3
10
319.064
20
728.833
30
-424
11
319.064
21
728.833
31
-424
0
LINE
8
T1
62
3
10
319.064
20
728.833
30
-424
11
285.064
21
728.833
31
-424
0
LINE
8
T1
62
3
10
285.064
20
728.833
30
-424
11
285.064
21
816.119
31
-424
0
LINE
8
T1
62
3
10
285.064
20
816.119
30
-424
11
134.479
21
1130.99
31
-424
0
ARC
8
T1
62
3
10
130.87
20
1129.27
30
-424
40
4.00006
50
25.5465
51
90
210
0
220
0
230
1
0
LINE
8
T1
62
3
10
130.87
20
1133.27
30
-424
11
130.87
21
1133.27
31
-424
0
LINE
8
T1
62
1
10
130.87
20
1133.27
30
-424
11
130.87
21
1133.27
31
-399
0
LINE
8
T1
62
1
10
130.87
20
1133.27
30
-399
11
130.87
21
1133.27
31
-372
0
LINE
8
T1
62
1
10
130.87
20
1133.27
30
-372
11
562.726
21
963.946
31
-372
0
LINE
8
T1
62
1
10
562.726
20
963.946
30
-372
11
562.726
21
963.946
31
-402
0
LINE
8
T1
62
3
10
562.726
20
963.946
30
-402
11
562.726
21
963.946
31
-418
0
LINE
8
T1
62
3
10
562.726
20
963.946
30
-418
11
466.169
21
963.946
31
-418
0
ARC
8
T1
62
3
10
466.169
20
959.946
30
-418
40
4
50
90
51
180
210
0
220
0
230
1
0
LINE
8
T1
62
3
10
462.169
20
959.946
30
-418
11
462.169
21
959.946
31
-418
0
LINE
8
T1
62
3
10
462.169
20
959.946
30
-418
11
462.169
21
928.407
31
-418
0
ARC
8
T1
62
3
10
539.736
20
406.557
30
-418
40
527.583
50
98.4545
51
100.231
210
0
220
0
230
1
0
LINE
8
T1
62
3
10
446.024
20
925.751
30
-418
11
446.024
21
925.75
31
-418
0
ARC
8
T1
62
3
10
446.734
20
921.814
30
-418
40
3.99952
50
100.225
51
180
210
0
220
0
230
1
0
LINE
8
T1
62
3
10
442.734
20
921.814
30
-418
11
442.734
21
921.814
31
-418
0
ARC
8
T1
62
3
10
446.734
20
921.814
30
-418
40
4
50
180
51
-169.454
210
0
220
0
230
1
0
LINE
8
T1
62
3
10
442.802
20
921.082
30
-418
11
442.802
21
921.082
31
-418
0
ARC
8
T1
62
3
10
441.819
20
920.899
30
-418
40
0.999889
50
0
51
10.5457
210
0
220
0
230
1
0
LINE
8
T1
62
3
10
442.819
20
920.899
30
-418
11
442.819
21
920.899
31
-418
0
ARC
8
T1
62
3
10
441.819
20
920.899
30
-418
40
1
50
-90
51
0
210
0
220
0
230
1
0
LINE
8
T1
62
3
10
441.819
20
919.899
30
-418
11
441.819
21
919.899
31
-418
0
ARC
8
T1
62
3
10
441.819
20
920.899
30
-418
40
1
50
-168.87
51
-90
210
0
220
0
230
1
0
LINE
8
T1
62
3
10
440.838
20
920.706
30
-418
11
440.838
21
920.706
31
-418
0
ARC
8
T1
62
3
10
436.913
20
919.933
30
-418
40
4.00039
50
11.1414
51
90
210
0
220
0
230
1
0
LINE
8
T1
62
3
10
436.913
20
923.933
30
-418
11
436.913
21
923.933
31
-418
0
ARC
8
T1
62
3
10
436.913
20
919.933
30
-418
40
4
50
90
51
101.389
210
0
220
0
230
1
0
LINE
8
T1
62
3
10
436.123
20
923.854
30
-418
11
436.123
21
923.855
31
-418
0
ARC
8
T1
62
3
10
522.326
20
495.738
30
-418
40
436.709
50
101.384
51
105.247
210
0
220
0
230
1
0
LINE
8
T1
62
3
10
407.48
20
917.076
30
-418
11
407.48
21
917.076
31
-418
0
ARC
8
T1
62
3
10
408.532
20
913.216
30
-418
40
4.00079
50
105.245
51
180
210
0
220
0
230
1
0
LINE
8
T1
62
3
10
404.531
20
913.216
30
-418
11
404.531
21
913.216
31
-418
0
LINE
8
T1
62
3
10
404.531
20
913.216
30
-418
11
404.533
21
913.09
31
-418
0
LINE
8
T1
62
3
10
404.533
20
913.09
30
-418
11
404.539
21
912.963
31
-418
0
LINE
8
T1
62
3
10
404.539
20
912.963
30
-418
11
404.549
21
912.837
31
-418
0
LINE
8
T1
62
3
10
404.549
20
912.837
30
-418
11
404.563
21
912.711
31
-418
0
LINE
8
T1
62
3
10
404.563
20
912.711
30
-418
11
404.582
21
912.586
31
-418
0
LINE
8
T1
62
3
10
404.582
20
912.586
30
-418
11
404.604
21
912.462
31
-418
0
LINE
8
T1
62
3
10
404.604
20
912.462
30
-418
11
404.63
21
912.338
31
-418
0
LINE
8
T1
62
3
10
404.63
20
912.338
30
-418
11
404.659
21
912.215
31
-418
0
LINE
8
T1
62
3
10
404.659
20
912.215
30
-418
11
404.681
21
912.136
31
-418
0
ARC
8
T1
62
3
10
403.718
20
911.866
30
-418
40
1.00013
50
0
51
15.6621
210
0
220
0
230
1
0
LINE
8
T1
62
3
10
404.718
20
911.866
30
-418
11
404.718
21
911.866
31
-418
0
ARC
8
T1
62
3
10
403.718
20
911.866
30
-418
40
1
50
-90
51
0
210
0
220
0
230
1
0
LINE
8
T1
62
3
10
403.718
20
910.866
30
-418
11
403.718
21
910.866
31
-418
0
ARC
8
T1
62
3
10
403.718
20
911.866
30
-418
40
1
50
-163.63
51
-90
210
0
220
0
230
1
0
LINE
8
T1
62
3
10
402.759
20
911.584
30
-418
11
402.758
21
911.584
31
-418
0
ARC
8
T1
62
3
10
398.921
20
910.455
30
-418
40
3.99965
50
16.396
51
90
210
0
220
0
230
1
0
LINE
8
T1
62
3
10
398.921
20
914.455
30
-418
11
398.921
21
914.455
31
-418
0
ARC
8
T1
62
3
10
398.921
20
910.455
30
-418
40
4
50
90
51
106.577
210
0
220
0
230
1
0
LINE
8
T1
62
3
10
397.78
20
914.289
30
-418
11
397.78
21
914.288
31
-418
0
ARC
8
T1
62
3
10
491.836
20
598.222
30
-418
40
329.764
50
106.572
51
115.412
210
0
220
0
230
1
0
LINE
8
T1
62
3
10
350.328
20
896.081
30
-418
11
350.328
21
896.081
31
-418
0
ARC
8
T1
62
3
10
352.044
20
892.468
30
-418
40
3.9998
50
115.405
51
180
210
0
220
0
230
1
0
LINE
8
T1
62
3
10
348.044
20
892.468
30
-418
11
348.044
21
892.468
31
-418
0
ARC
8
T1
62
3
10
352.044
20
892.468
30
-418
40
4
50
180
51
-153.864
210
0
220
0
230
1
0
LINE
8
T1
62
3
10
348.453
20
890.706
30
-418
11
348.453
21
890.706
31
-418
0
ARC
8
T1
62
3
10
347.555
20
890.266
30
-418
40
1
50
0
51
26.1038
210
0
220
0
230
1
0
LINE
8
T1
62
3
10
348.555
20
890.266
30
-418
11
348.555
21
890.266
31
-418
0
ARC
8
T1
62
3
10
347.555
20
890.266
30
-418
40
1
50
-90
51
0
210
0
220
0
230
1
0
LINE
8
T1
62
3
10
347.555
20
889.266
30
-418
11
347.555
21
889.266
31
-418
0
ARC
8
T1
62
3
10
347.555
20
890.266
30
-418
40
1
50
-152.794
51
-90
210
0
220
0
230
1
0
LINE
8
T1
62
3
10
346.666
20
889.809
30
-418
11
346.666
21
889.809
31
-418
0
ARC
8
T1
62
3
10
343.107
20
887.983
30
-418
40
4.00009
50
27.1608
51
90
210
0
220
0
230
1
0
LINE
8
T1
62
3
10
343.107
20
891.983
30
-418
11
343.107
21
891.983
31
-418
0
ARC
8
T1
62
3
10
343.107
20
887.983
30
-418
40
4
50
90
51
117.84
210
0
220
0
230
1
0
LINE
8
T1
62
3
10
341.239
20
891.52
30
-418
11
341.239
21
891.52
31
-418
0
ARC
8
T1
62
3
10
464.053
20
658.999
30
-418
40
262.963
50
117.842
51
127.654
210
0
220
0
230
1
0
LINE
8
T1
62
3
10
303.412
20
867.191
30
-418
11
303.412
21
867.191
31
-418
0
ARC
8
T1
62
3
10
305.856
20
864.025
30
-418
40
3.99959
50
127.666
51
180
210
0
220
0
230
1
0
LINE
8
T1
62
3
10
301.856
20
864.025
30
-418
11
301.856
21
864.025
31
-418
0
LINE
8
T1
62
3
10
301.856
20
864.025
30
-418
11
301.856
21
748.325
31
-418
0
ARC
8
T1
62
3
10
305.856
20
748.325
30
-418
40
4
50
180
51
-109.151
210
0
220
0
230
1
0
LINE
8
T1
62
3
10
304.544
20
744.546
30
-418
11
304.544
21
744.547
31
-418
0
LINE
8
T1
62
3
10
304.544
20
744.547
30
-418
11
314.72
21
741.014
31
-418
0
LINE
8
T1
62
3
10
314.72
20
741.014
30
-418
11
325.051
21
737.681
31
-418
0
LINE
8
T1
62
3
10
325.051
20
737.681
30
-418
11
334.51
21
734.874
31
-418
0
LINE
8
T1
62
3
10
334.51
20
734.874
30
-418
11
344.251
21
732.241
31
-418
0
LINE
8
T1
62
3
10
344.251
20
732.241
30
-418
11
354.27
21
729.782
31
-418
0
LINE
8
T1
62
3
10
354.27
20
729.782
30
-418
11
364.565
21
727.497
31
-418
0
LINE
8
T1
62
3
10
364.565
20
727.497
30
-418
11
375.139
21
725.386
31
-418
0
LINE
8
T1
62
3
10
375.139
20
725.386
30
-418
11
385.99
21
723.448
31
-418
0
LINE
8
T1
62
3
10
385.99
20
723.448
30
-418
11
397.119
21
721.683
31
-418
0
LINE
8
T1
62
3
10
397.119
20
721.683
30
-418
11
408.49
21
720.097
31
-418
0
ARC
8
T1
62
3
10
409.043
20
724.058
30
-418
40
3.99942
50
-97.9478
51
-90
210
0
220
0
230
1
0
LINE
8
T1
62
3
10
409.043
20
720.059
30
-418
11
409.043
21
720.059
31
-418
0
LINE
8
T1
62
3
10
409.043
20
720.059
30
-418
11
409.567
21
720.093
31
-418
0
LINE
8
T1
62
3
10
409.567
20
720.093
30
-418
11
410.082
21
720.196
31
-418
0
LINE
8
T1
62
3
10
410.082
20
720.196
30
-418
11
410.579
21
720.365
31
-418
0
LINE
8
T1
62
3
10
410.579
20
720.365
30
-418
11
411.049
21
720.598
31
-418
0
LINE
8
T1
62
3
10
411.049
20
720.598
30
-418
11
411.485
21
720.891
31
-418
0
LINE
8
T1
62
3
10
411.485
20
720.891
30
-418
11
411.879
21
721.238
31
-418
0
LINE
8
T1
62
3
10
411.879
20
721.238
30
-418
11
412.224
21
721.634
31
-418
0
LINE
8
T1
62
3
10
412.224
20
721.634
30
-418
11
412.514
21
722.071
31
-418
0
LINE
8
T1
62
3
10
412.514
20
722.071
30
-418
11
412.744
21
722.543
31
-418
0
LINE
8
T1
62
3
10
412.744
20
722.543
30
-418
11
412.911
21
723.041
31
-418
0
LINE
8
T1
62
3
10
412.911
20
723.041
30
-418
11
413.011
21
723.556
31
-418
0
ARC
8
T1
62
3
10
414.003
20
723.431
30
-418
40
0.999844
50
89.9427
51
172.818
210
0
220
0
230
1
0
LINE
8
T1
62
3
10
414.004
20
724.431
30
-418
11
414.004
21
724.431
31
-418
0
ARC
8
T1
62
3
10
414.004
20
723.431
30
-418
40
1
50
0
51
90
210
0
220
0
230
1
0
LINE
8
T1
62
3
10
415.004
20
723.431
30
-418
11
415.004
21
723.431
31
-418
0
ARC
8
T1
62
3
10
414.004
20
723.431
30
-418
40
1
50
-6.77678
51
0
210
0
220
0
230
1
0
LINE
8
T1
62
3
10
414.997
20
723.313
30
-418
11
414.997
21
723.313
31
-418
0
ARC
8
T1
62
3
10
418.969
20
722.841
30
-418
40
3.99995
50
173.223
51
180
210
0
220
0
230
1
0
LINE
8
T1
62
3
10
414.969
20
722.841
30
-418
11
414.969
21
722.841
31
-418
0
ARC
8
T1
62
3
10
418.969
20
722.841
30
-418
40
4
50
180
51
-96.1852
210
0
220
0
230
1
0
LINE
8
T1
62
3
10
418.538
20
718.864
30
-418
11
418.538
21
718.864
31
-418
0
LINE
8
T1
62
3
10
418.538
20
718.864
30
-418
11
428.055
21
717.834
31
-418
0
LINE
8
T1
62
3
10
428.055
20
717.834
30
-418
11
438.005
21
716.726
31
-418
0
LINE
8
T1
62
3
10
438.005
20
716.726
30
-418
11
450.407
21
715.452
31
-418
0
LINE
8
T1
62
3
10
450.407
20
715.452
30
-418
11
463.378
21
714.529
31
-418
0
LINE
8
T1
62
3
10
463.378
20
714.529
30
-418
11
476.871
21
713.96
31
-418
0
LINE
8
T1
62
3
10
476.871
20
713.96
30
-418
11
490.885
21
713.744
31
-418
0
LINE
8
T1
62
3
10
490.885
20
713.744
30
-418
11
505.421
21
713.882
31
-418
0
LINE
8
T1
62
3
10
505.421
20
713.882
30
-418
11
520.479
21
714.371
31
-418
0
LINE
8
T1
62
3
10
520.479
20
714.371
30
-418
11
536.061
21
715.213
31
-418
0
LINE
8
T1
62
3
10
536.061
20
715.213
30
-418
11
552.129
21
716.403
31
-418
0
ARC
8
T1
62
3
10
551.834
20
720.392
30
-418
40
3.99989
50
-85.7705
51
0
210
0
220
0
230
1
0
LINE
8
T1
62
3
10
555.834
20
720.392
30
-418
11
555.834
21
720.392
31
-418
0
ARC
8
T1
62
3
10
551.834
20
720.392
30
-418
40
4
50
0
51
4.94802
210
0
220
0
230
1
0
LINE
8
T1
62
3
10
555.819
20
720.737
30
-418
11
555.819
21
720.737
31
-418
0
ARC
8
T1
62
3
10
556.815
20
720.823
30
-418
40
0.999706
50
180
51
-175.065
210
0
220
0
230
1
0
LINE
8
T1
62
3
10
555.815
20
720.823
30
-418
11
555.815
21
720.823
31
-418
0
ARC
8
T1
62
3
10
556.815
20
720.823
30
-418
40
1
50
90
51
180
210
0
220
0
230
1
0
LINE
8
T1
62
3
10
556.815
20
721.823
30
-418
11
556.815
21
721.823
31
-418
0
ARC
8
T1
62
3
10
556.815
20
720.823
30
-418
40
1
50
5.27741
51
90
210
0
220
0
230
1
0
LINE
8
T1
62
3
10
557.811
20
720.915
30
-418
11
557.811
21
720.915
31
-418
0
ARC
8
T1
62
3
10
561.794
20
721.281
30
-418
40
3.99978
50
-174.75
51
-90
210
0
220
0
230
1
0
LINE
8
T1
62
3
10
561.794
20
717.281
30
-418
11
561.794
21
717.281
31
-418
0
ARC
8
T1
62
3
10
561.794
20
721.281
30
-418
40
4
50
-90
51
-84.3322
210
0
220
0
230
1
0
LINE
8
T1
62
3
10
562.189
20
717.301
30
-418
11
562.189
21
717.301
31
-418
0
LINE
8
T1
62
3
10
562.189
20
717.301
30
-418
11
570.659
21
718.142
31
-418
0
LINE
8
T1
62
3
10
570.659
20
718.142
30
-418
11
580.637
21
719.187
31
-418
0
LINE
8
T1
62
3
10
580.637
20
719.187
30
-418
11
594.203
21
720.754
31
-418
0
LINE
8
T1
62
3
10
594.203
20
720.754
30
-418
11
608.112
21
722.649
31
-418
0
LINE
8
T1
62
3
10
608.112
20
722.649
30
-418
11
622.341
21
724.869
31
-418
0
LINE
8
T1
62
3
10
622.341
20
724.869
30
-418
11
636.909
21
727.416
31
-418
0
LINE
8
T1
62
3
10
636.909
20
727.416
30
-418
11
666.956
21
733.474
31
-418
0
LINE
8
T1
62
3
10
666.956
20
733.474
30
-418
11
698.253
21
740.819
31
-418
0
ARC
8
T1
62
3
10
697.339
20
744.713
30
-418
40
3.99983
50
-76.7906
51
0
210
0
220
0
230
1
0
LINE
8
T1
62
3
10
701.339
20
744.713
30
-418
11
701.339
21
744.713
31
-418
0
LINE
8
T1
62
3
10
701.339
20
744.713
30
-418
11
701.339
21
836.572
31
-418
0
ARC
8
T1
62
3
10
697.339
20
836.572
30
-418
40
4
50
0
51
89.47
210
0
220
0
230
1
0
LINE
8
T1
62
3
10
697.376
20
840.572
30
-418
11
697.376
21
840.572
31
-418
0
LINE
8
T1
62
3
10
697.376
20
840.572
30
-418
11
631.95
21
841.167
31
-418
0
LINE
8
T1
62
3
10
631.95
20
841.167
30
-418
11
621.153
21
841.604
31
-418
0
LINE
8
T1
62
3
10
621.153
20
841.604
30
-418
11
611.974
21
842.208
31
-418
0
LINE
8
T1
62
3
10
611.974
20
842.208
30
-418
11
607.952
21
842.576
31
-418
0
LINE
8
T1
62
3
10
607.952
20
842.576
30
-418
11
604.229
21
842.995
31
-418
0
LINE
8
T1
62
3
10
604.229
20
842.995
30
-418
11
600.787
21
843.464
31
-418
0
LINE
8
T1
62
3
10
600.787
20
843.464
30
-418
11
597.59
21
843.988
31
-418
0
LINE
8
T1
62
3
10
597.59
20
843.988
30
-418
11
594.603
21
844.567
31
-418
0
LINE
8
T1
62
3
10
594.603
20
844.567
30
-418
11
591.811
21
845.195
31
-418
0
LINE
8
T1
62
3
10
591.811
20
845.195
30
-418
11
589.206
21
845.864
31
-418
0
LINE
8
T1
62
3
10
589.206
20
845.864
30
-418
11
586.783
21
846.566
31
-418
0
LINE
8
T1
62
3
10
586.783
20
846.566
30
-418
11
584.533
21
847.291
31
-418
0
LINE
8
T1
62
3
10
584.533
20
847.291
30
-418
11
582.449
21
848.033
31
-418
0
LINE
8
T1
62
3
10
582.449
20
848.033
30
-418
11
580.524
21
848.783
31
-418
0
LINE
8
T1
62
3
10
580.524
20
848.783
30
-418
11
578.751
21
849.534
31
-418
0
LINE
8
T1
62
3
10
578.751
20
849.534
30
-418
11
577.122
21
850.278
31
-418
0
LINE
8
T1
62
3
10
577.122
20
850.278
30
-418
11
575.63
21
851.008
31
-418
0
LINE
8
T1
62
3
10
575.63
20
851.008
30
-418
11
574.265
21
851.716
31
-418
0
LINE
8
T1
62
3
10
574.265
20
851.716
30
-418
11
573.043
21
852.385
31
-418
0
LINE
8
T1
62
3
10
573.043
20
852.385
30
-418
11
569.045
21
854.737
31
-418
0
LINE
8
T1
62
3
10
569.045
20
854.737
30
-418
11
568.559
21
855.03
31
-418
0
LINE
8
T1
62
3
10
568.559
20
855.03
30
-418
11
568.518
21
855.057
31
-418
0
LINE
8
T1
62
3
10
568.518
20
855.057
30
-418
11
568.512
21
855.069
31
-418
0
LINE
8
T1
62
3
10
568.512
20
855.069
30
-418
11
568.493
21
855.111
31
-418
0
LINE
8
T1
62
3
10
568.493
20
855.111
30
-418
11
568.47
21
855.165
31
-418
0
LINE
8
T1
62
3
10
568.47
20
855.165
30
-418
11
568.445
21
855.23
31
-418
0
LINE
8
T1
62
3
10
568.445
20
855.23
30
-418
11
568.417
21
855.307
31
-418
0
LINE
8
T1
62
3
10
568.417
20
855.307
30
-418
11
568.386
21
855.397
31
-418
0
LINE
8
T1
62
3
10
568.386
20
855.397
30
-418
11
568.353
21
855.501
31
-418
0
LINE
8
T1
62
3
10
568.353
20
855.501
30
-418
11
568.319
21
855.617
31
-418
0
LINE
8
T1
62
3
10
568.319
20
855.617
30
-418
11
568.288
21
855.731
31
-418
0
LINE
8
T1
62
3
10
568.288
20
855.731
30
-418
11
568.208
21
856.049
31
-418
0
LINE
8
T1
62
3
10
568.208
20
856.049
30
-418
11
568.131
21
856.406
31
-418
0
LINE
8
T1
62
3
10
568.131
20
856.406
30
-418
11
568.052
21
856.82
31
-418
0
LINE
8
T1
62
3
10
568.052
20
856.82
30
-418
11
567.974
21
857.291
31
-418
0
LINE
8
T1
62
3
10
567.974
20
857.291
30
-418
11
567.899
21
857.806
31
-418
0
LINE
8
T1
62
3
10
567.899
20
857.806
30
-418
11
567.747
21
859.066
31
-418
0
LINE
8
T1
62
3
10
567.747
20
859.066
30
-418
11
567.607
21
860.561
31
-418
0
LINE
8
T1
62
3
10
567.607
20
860.561
30
-418
11
567.479
21
862.308
31
-418
0
LINE
8
T1
62
3
10
567.479
20
862.308
30
-418
11
567.258
21
866.69
31
-418
0
LINE
8
T1
62
3
10
567.258
20
866.69
30
-418
11
566.951
21
879.38
31
-418
0
LINE
8
T1
62
3
10
566.951
20
879.38
30
-418
11
566.726
21
959.957
31
-418
0
ARC
8
T1
62
3
10
562.726
20
959.946
30
-418
40
4.00002
50
0.157563
51
90
210
0
220
0
230
1
0
LINE
8
T1
62
3
10
562.726
20
963.946
30
-418
11
562.726
21
963.946
31
-418
0
LINE
8
T1
62
3
10
562.726
20
963.946
30
-418
11
562.726
21
963.946
31
-424
0
LINE
8
T1
62
3
10
562.726
20
963.946
30
-424
11
466.169
21
963.946
31
-424
0
ARC
8
T1
62
3
10
466.169
20
959.946
30
-424
40
4
50
90
51
180
210
0
220
0
230
1
0
LINE
8
T1
62
3
10
462.169
20
959.946
30
-424
11
462.169
21
959.946
31
-424
0
LINE
8
T1
62
3
10
462.169
20
959.946
30
-424
11
462.169
21
928.407
31
-424
0
ARC
8
T1
62
3
10
539.736
20
406.557
30
-424
40
527.583
50
98.4545
51
100.231
210
0
220
0
230
1
0
LINE
8
T1
62
3
10
446.024
20
925.751
30
-424
11
446.024
21
925.75
31
-424
0
ARC
8
T1
62
3
10
446.734
20
921.814
30
-424
40
3.99952
50
100.225
51
180
210
0
220
0
230
1
0
LINE
8
T1
62
3
10
442.734
20
921.814
30
-424
11
442.734
21
921.814
31
-424
0
ARC
8
T1
62
3
10
446.734
20
921.814
30
-424
40
4
50
180
51
-169.454
210
0
220
0
230
1
0
LINE
8
T1
62
3
10
442.802
20
921.082
30
-424
11
442.802
21
921.082
31
-424
0
ARC
8
T1
62
3
10
441.819
20
920.899
30
-424
40
0.999889
50
0
51
10.5457
210
0
220
0
230
1
0
LINE
8
T1
62
3
10
442.819
20
920.899
30
-424
11
442.819
21
920.899
31
-424
0
ARC
8
T1
62
3
10
441.819
20
920.899
30
-424
40
1
50
-90
51
0
210
0
220
0
230
1
0
LINE
8
T1
62
3
10
441.819
20
919.899
30
-424
11
441.819
21
919.899
31
-424
0
ARC
8
T1
62
3
10
441.819
20
920.899
30
-424
40
1
50
-168.87
51
-90
210
0
220
0
230
1
0
LINE
8
T1
62
3
10
440.838
20
920.706
30
-424
11
440.838
21
920.706
31
-424
0
ARC
8
T1
62
3
10
436.913
20
919.933
30
-424
40
4.00039
50
11.1414
51
90
210
0
220
0
230
1
0
LINE
8
T1
62
3
10
436.913
20
923.933
30
-424
11
436.913
21
923.933
31
-424
0
ARC
8
T1
62
3
10
436.913
20
919.933
30
-424
40
4
50
90
51
101.389
210
0
220
0
230
1
0
LINE
8
T1
62
3
10
436.123
20
923.854
30
-424
11
436.123
21
923.855
31
-424
0
ARC
8
T1
62
3
10
522.326
20
495.738
30
-424
40
436.709
50
101.384
51
105.247
210
0
220
0
230
1
0
LINE
8
T1
62
3
10
407.48
20
917.076
30
-424
11
407.48
21
917.076
31
-424
0
ARC
8
T1
62
3
10
408.532
20
913.216
30
-424
40
4.00079
50
105.245
51
180
210
0
220
0
230
1
0
LINE
8
T1
62
3
10
404.531
20
913.216
30
-424
11
404.531
21
913.216
31
-424
0
LINE
8
T1
62
3
10
404.531
20
913.216
30
-424
11
404.533
21
913.09
31
-424
0
LINE
8
T1
62
3
10
404.533
20
913.09
30
-424
11
404.539
21
912.963
31
-424
0
LINE
8
T1
62
3
10
404.539
20
912.963
30
-424
11
404.549
21
912.837
31
-424
0
LINE
8
T1
62
3
10
404.549
20
912.837
30
-424
11
404.563
21
912.711
31
-424
0
LINE
8
T1
62
3
10
404.563
20
912.711
30
-424
11
404.582
21
912.586
31
-424
0
LINE
8
T1
62
3
10
404.582
20
912.586
30
-424
11
404.604
21
912.462
31
-424
0
LINE
8
T1
62
3
10
404.604
20
912.462
30
-424
11
404.63
21
912.338
31
-424
0
LINE
8
T1
62
3
10
404.63
20
912.338
30
-424
11
404.659
21
912.215
31
-424
0
LINE
8
T1
62
3
10
404.659
20
912.215
30
-424
11
404.681
21
912.136
31
-424
0
ARC
8
T1
62
3
10
403.718
20
911.866
30
-424
40
1.00013
50
0
51
15.6621
210
0
220
0
230
1
0
LINE
8
T1
62
3
10
404.718
20
911.866
30
-424
11
404.718
21
911.866
31
-424
0
ARC
8
T1
62
3
10
403.718
20
911.866
30
-424
40
1
50
-90
51
0
210
0
220
0
230
1
0
LINE
8
T1
62
3
10
403.718
20
910.866
30
-424
11
403.718
21
910.866
31
-424
0
ARC
8
T1
62
3
10
403.718
20
911.866
30
-424
40
1
50
-163.63
51
-90
210
0
220
0
230
1
0
LINE
8
T1
62
3
10
402.759
20
911.584
30
-424
11
402.758
21
911.584
31
-424
0
ARC
8
T1
62
3
10
398.921
20
910.455
30
-424
40
3.99965
50
16.396
51
90
210
0
220
0
230
1
0
LINE
8
T1
62
3
10
398.921
20
914.455
30
-424
11
398.921
21
914.455
31
-424
0
ARC
8
T1
62
3
10
398.921
20
910.455
30
-424
40
4
50
90
51
106.577
210
0
220
0
230
1
0
LINE
8
T1
62
3
10
397.78
20
914.289
30
-424
11
397.78
21
914.288
31
-424
0
ARC
8
T1
62
3
10
491.836
20
598.222
30
-424
40
329.764
50
106.572
51
115.412
210
0
220
0
230
1
0
LINE
8
T1
62
3
10
350.328
20
896.081
30
-424
11
350.328
21
896.081
31
-424
0
ARC
8
T1
62
3
10
352.044
20
892.468
30
-424
40
3.9998
50
115.405
51
180
210
0
220
0
230
1
0
LINE
8
T1
62
3
10
348.044
20
892.468
30
-424
11
348.044
21
892.468
31
-424
0
ARC
8
T1
62
3
10
352.044
20
892.468
30
-424
40
4
50
180
51
-153.864
210
0
220
0
230
1
0
LINE
8
T1
62
3
10
348.453
20
890.706
30
-424
11
348.453
21
890.706
31
-424
0
ARC
8
T1
62
3
10
347.555
20
890.266
30
-424
40
1
50
0
51
26.1038
210
0
220
0
230
1
0
LINE
8
T1
62
3
10
348.555
20
890.266
30
-424
11
348.555
21
890.266
31
-424
0
ARC
8
T1
62
3
10
347.555
20
890.266
30
-424
40
1
50
-90
51
0
210
0
220
0
230
1
0
LINE
8
T1
62
3
10
347.555
20
889.266
30
-424
11
347.555
21
889.266
31
-424
0
ARC
8
T1
62
3
10
347.555
20
890.266
30
-424
40
1
50
-152.794
51
-90
210
0
220
0
230
1
0
LINE
8
T1
62
3
10
346.666
20
889.809
30
-424
11
346.666
21
889.809
31
-424
0
ARC
8
T1
62
3
10
343.107
20
887.983
30
-424
40
4.00009
50
27.1608
51
90
210
0
220
0
230
1
0
LINE
8
T1
62
3
10
343.107
20
891.983
30
-424
11
343.107
21
891.983
31
-424
0
ARC
8
T1
62
3
10
343.107
20
887.983
30
-424
40
4
50
90
51
117.84
210
0
220
0
230
1
0
LINE
8
T1
62
3
10
341.239
20
891.52
30
-424
11
341.239
21
891.52
31
-424
0
ARC
8
T1
62
3
10
464.053
20
658.999
30
-424
40
262.963
50
117.842
51
127.654
210
0
220
0
230
1
0
LINE
8
T1
62
3
10
303.412
20
867.191
30
-424
11
303.412
21
867.191
31
-424
0
ARC
8
T1
62
3
10
305.856
20
864.025
30
-424
40
3.99959
50
127.666
51
180
210
0
220
0
230
1
0
LINE
8
T1
62
3
10
301.856
20
864.025
30
-424
11
301.856
21
864.025
31
-424
0
LINE
8
T1
62
3
10
301.856
20
864.025
30
-424
11
301.856
21
748.325
31
-424
0
ARC
8
T1
62
3
10
305.856
20
748.325
30
-424
40
4
50
180
51
-109.151
210
0
220
0
230
1
0
LINE
8
T1
62
3
10
304.544
20
744.546
30
-424
11
304.544
21
744.547
31
-424
0
LINE
8
T1
62
3
10
304.544
20
744.547
30
-424
11
314.72
21
741.014
31
-424
0
LINE
8
T1
62
3
10
314.72
20
741.014
30
-424
11
325.051
21
737.681
31
-424
0
LINE
8
T1
62
3
10
325.051
20
737.681
30
-424
11
334.51
21
734.874
31
-424
0
LINE
8
T1
62
3
10
334.51
20
734.874
30
-424
11
344.251
21
732.241
31
-424
0
LINE
8
T1
62
3
10
344.251
20
732.241
30
-424
11
354.27
21
729.782
31
-424
0
LINE
8
T1
62
3
10
354.27
20
729.782
30
-424
11
364.565
21
727.497
31
-424
0
LINE
8
T1
62
3
10
364.565
20
727.497
30
-424
11
375.139
21
725.386
31
-424
0
LINE
8
T1
62
3
10
375.139
20
725.386
30
-424
11
385.99
21
723.448
31
-424
0
LINE
8
T1
62
3
10
385.99
20
723.448
30
-424
11
397.119
21
721.683
31
-424
0
LINE
8
T1
62
3
10
397.119
20
721.683
30
-424
11
408.49
21
720.097
31
-424
0
ARC
8
T1
62
3
10
409.043
20
724.058
30
-424
40
3.99942
50
-97.9478
51
-90
210
0
220
0
230
1
0
LINE
8
T1
62
3
10
409.043
20
720.059
30
-424
11
409.043
21
720.059
31
-424
0
LINE
8
T1
62
3
10
409.043
20
720.059
30
-424
11
409.567
21
720.093
31
-424
0
LINE
8
T1
62
3
10
409.567
20
720.093
30
-424
11
410.082
21
720.196
31
-424
0
LINE
8
T1
62
3
10
410.082
20
720.196
30
-424
11
410.579
21
720.365
31
-424
0
LINE
8
T1
62
3
10
410.579
20
720.365
30
-424
11
411.049
21
720.598
31
-424
0
LINE
8
T1
62
3
10
411.049
20
720.598
30
-424
11
411.485
21
720.891
31
-424
0
LINE
8
T1
62
3
10
411.485
20
720.891
30
-424
11
411.879
21
721.238
31
-424
0
LINE
8
T1
62
3
10
411.879
20
721.238
30
-424
11
412.224
21
721.634
31
-424
0
LINE
8
T1
62
3
10
412.224
20
721.634
30
-424
11
412.514
21
722.071
31
-424
0
LINE
8
T1
62
3
10
412.514
20
722.071
30
-424
11
412.744
21
722.543
31
-424
0
LINE
8
T1
62
3
10
412.744
20
722.543
30
-424
11
412.911
21
723.041
31
-424
0
LINE
8
T1
62
3
10
412.911
20
723.041
30
-424
11
413.011
21
723.556
31
-424
0
ARC
8
T1
62
3
10
414.003
20
723.431
30
-424
40
0.999844
50
89.9427
51
172.818
210
0
220
0
230
1
0
LINE
8
T1
62
3
10
414.004
20
724.431
30
-424
11
414.004
21
724.431
31
-424
0
ARC
8
T1
62
3
10
414.004
20
723.431
30
-424
40
1
50
0
51
90
210
0
220
0
230
1
0
LINE
8
T1
62
3
10
415.004
20
723.431
30
-424
11
415.004
21
723.431
31
-424
0
ARC
8
T1
62
3
10
414.004
20
723.431
30
-424
40
1
50
-6.77678
51
0
210
0
220
0
230
1
0
LINE
8
T1
62
3
10
414.997
20
723.313
30
-424
11
414.997
21
723.313
31
-424
0
ARC
8
T1
62
3
10
418.969
20
722.841
30
-424
40
3.99995
50
173.223
51
180
210
0
220
0
230
1
0
LINE
8
T1
62
3
10
414.969
20
722.841
30
-424
11
414.969
21
722.841
31
-424
0
ARC
8
T1
62
3
10
418.969
20
722.841
30
-424
40
4
50
180
51
-96.1852
210
0
220
0
230
1
0
LINE
8
T1
62
3
10
418.538
20
718.864
30
-424
11
418.538
21
718.864
31
-424
0
LINE
8
T1
62
3
10
418.538
20
718.864
30
-424
11
428.055
21
717.834
31
-424
0
LINE
8
T1
62
3
10
428.055
20
717.834
30
-424
11
438.005
21
716.726
31
-424
0
LINE
8
T1
62
3
10
438.005
20
716.726
30
-424
11
450.407
21
715.452
31
-424
0
LINE
8
T1
62
3
10
450.407
20
715.452
30
-424
11
463.378
21
714.529
31
-424
0
LINE
8
T1
62
3
10
463.378
20
714.529
30
-424
11
476.871
21
713.96
31
-424
0
LINE
8
T1
62
3
10
476.871
20
713.96
30
-424
11
490.885
21
713.744
31
-424
0
LINE
8
T1
62
3
10
490.885
20
713.744
30
-424
11
505.421
21
713.882
31
-424
0
LINE
8
T1
62
3
10
505.421
20
713.882
30
-424
11
520.479
21
714.371
31
-424
0
LINE
8
T1
62
3
10
520.479
20
714.371
30
-424
11
536.061
21
715.213
31
-424
0
LINE
8
T1
62
3
10
536.061
20
715.213
30
-424
11
552.129
21
716.403
31
-424
0
ARC
8
T1
62
3
10
551.834
20
720.392
30
-424
40
3.99989
50
-85.7705
51
0
210
0
220
0
230
1
0
LINE
8
T1
62
3
10
555.834
20
720.392
30
-424
11
555.834
21
720.392
31
-424
0
ARC
8
T1
62
3
10
551.834
20
720.392
30
-424
40
4
50
0
51
4.94802
210
0
220
0
230
1
0
LINE
8
T1
62
3
10
555.819
20
720.737
30
-424
11
555.819
21
720.737
31
-424
0
ARC
8
T1
62
3
10
556.815
20
720.823
30
-424
40
0.999706
50
180
51
-175.065
210
0
220
0
230
1
0
LINE
8
T1
62
3
10
555.815
20
720.823
30
-424
11
555.815
21
720.823
31
-424
0
ARC
8
T1
62
3
10
556.815
20
720.823
30
-424
40
1
50
90
51
180
210
0
220
0
230
1
0
LINE
8
T1
62
3
10
556.815
20
721.823
30
-424
11
556.815
21
721.823
31
-424
0
ARC
8
T1
62
3
10
556.815
20
720.823
30
-424
40
1
50
5.27741
51
90
210
0
220
0
230
1
0
LINE
8
T1
62
3
10
557.811
20
720.915
30
-424
11
557.811
21
720.915
31
-424
0
ARC
8
T1
62
3
10
561.794
20
721.281
30
-424
40
3.99978
50
-174.75
51
-90
210
0
220
0
230
1
0
LINE
8
T1
62
3
10
561.794
20
717.281
30
-424
11
561.794
21
717.281
31
-424
0
ARC
8
T1
62
3
10
561.794
20
721.281
30
-424
40
4
50
-90
51
-84.3322
210
0
220
0
230
1
0
LINE
8
T1
62
3
10
562.189
20
717.301
30
-424
11
562.189
21
717.301
31
-424
0
LINE
8
T1
62
3
10
562.189
20
717.301
30
-424
11
570.659
21
718.142
31
-424
0
LINE
8
T1
62
3
10
570.659
20
718.142
30
-424
11
580.637
21
719.187
31
-424
0
LINE
8
T1
62
3
10
580.637
20
719.187
30
-424
11
594.203
21
720.754
31
-424
0
LINE
8
T1
62
3
10
594.203
20
720.754
30
-424
11
608.112
21
722.649
31
-424
0
LINE
8
T1
62
3
10
608.112
20
722.649
30
-424
11
622.341
21
724.869
31
-424
0
LINE
8
T1
62
3
10
622.341
20
724.869
30
-424
11
636.909
21
727.416
31
-424
0
LINE
8
T1
62
3
10
636.909
20
727.416
30
-424
11
666.956
21
733.474
31
-424
0
LINE
8
T1
62
3
10
666.956
20
733.474
30
-424
11
698.253
21
740.819
31
-424
0
ARC
8
T1
62
3
10
697.339
20
744.713
30
-424
40
3.99983
50
-76.7906
51
0
210
0
220
0
230
1
0
LINE
8
T1
62
3
10
701.339
20
744.713
30
-424
11
701.339
21
744.713
31
-424
0
LINE
8
T1
62
3
10
701.339
20
744.713
30
-424
11
701.339
21
836.572
31
-424
0
ARC
8
T1
62
3
10
697.339
20
836.572
30
-424
40
4
50
0
51
89.47
210
0
220
0
230
1
0
LINE
8
T1
62
3
10
697.376
20
840.572
30
-424
11
697.376
21
840.572
31
-424
0
LINE
8
T1
62
3
10
697.376
20
840.572
30
-424
11
631.95
21
841.167
31
-424
0
LINE
8
T1
62
3
10
631.95
20
841.167
30
-424
11
621.153
21
841.604
31
-424
0
LINE
8
T1
62
3
10
621.153
20
841.604
30
-424
11
611.974
21
842.208
31
-424
0
LINE
8
T1
62
3
10
611.974
20
842.208
30
-424
11
607.952
21
842.576
31
-424
0
LINE
8
T1
62
3
10
607.952
20
842.576
30
-424
11
604.229
21
842.995
31
-424
0
LINE
8
T1
62
3
10
604.229
20
842.995
30
-424
11
600.787
21
843.464
31
-424
0
LINE
8
T1
62
3
10
600.787
20
843.464
30
-424
11
597.59
21
843.988
31
-424
0
LINE
8
T1
62
3
10
597.59
20
843.988
30
-424
11
594.603
21
844.567
31
-424
0
LINE
8
T1
62
3
10
594.603
20
844.567
30
-424
11
591.811
21
845.195
31
-424
0
LINE
8
T1
62
3
10
591.811
20
845.195
30
-424
11
589.206
21
845.864
31
-424
0
LINE
8
T1
62
3
10
589.206
20
845.864
30
-424
11
586.783
21
846.566
31
-424
0
LINE
8
T1
62
3
10
586.783
20
846.566
30
-424
11
584.533
21
847.291
31
-424
0
LINE
8
T1
62
3
10
584.533
20
847.291
30
-424
11
582.449
21
848.033
31
-424
0
LINE
8
T1
62
3
10
582.449
20
848.033
30
-424
11
580.524
21
848.783
31
-424
0
LINE
8
T1
62
3
10
580.524
20
848.783
30
-424
11
578.751
21
849.534
31
-424
0
LINE
8
T1
62
3
10
578.751
20
849.534
30
-424
11
577.122
21
850.278
31
-424
0
LINE
8
T1
62
3
10
577.122
20
850.278
30
-424
11
575.63
21
851.008
31
-424
0
LINE
8
T1
62
3
10
575.63
20
851.008
30
-424
11
574.265
21
851.716
31
-424
0
LINE
8
T1
62
3
10
574.265
20
851.716
30
-424
11
573.043
21
852.385
31
-424
0
LINE
8
T1
62
3
10
573.043
20
852.385
30
-424
11
569.045
21
854.737
31
-424
0
LINE
8
T1
62
3
10
569.045
20
854.737
30
-424
11
568.559
21
855.03
31
-424
0
LINE
8
T1
62
3
10
568.559
20
855.03
30
-424
11
568.518
21
855.057
31
-424
0
LINE
8
T1
62
3
10
568.518
20
855.057
30
-424
11
568.512
21
855.069
31
-424
0
LINE
8
T1
62
3
10
568.512
20
855.069
30
-424
11
568.493
21
855.111
31
-424
0
LINE
8
T1
62
3
10
568.493
20
855.111
30
-424
11
568.47
21
855.165
31
-424
0
LINE
8
T1
62
3
10
568.47
20
855.165
30
-424
11
568.445
21
855.23
31
-424
0
LINE
8
T1
62
3
10
568.445
20
855.23
30
-424
11
568.417
21
855.307
31
-424
0
LINE
8
T1
62
3
10
568.417
20
855.307
30
-424
11
568.386
21
855.397
31
-424
0
LINE
8
T1
62
3
10
568.386
20
855.397
30
-424
11
568.353
21
855.501
31
-424
0
LINE
8
T1
62
3
10
568.353
20
855.501
30
-424
11
568.319
21
855.617
31
-424
0
LINE
8
T1
62
3
10
568.319
20
855.617
30
-424
11
568.288
21
855.731
31
-424
0
LINE
8
T1
62
3
10
568.288
20
855.731
30
-424
11
568.208
21
856.049
31
-424
0
LINE
8
T1
62
3
10
568.208
20
856.049
30
-424
11
568.131
21
856.406
31
-424
0
LINE
8
T1
62
3
10
568.131
20
856.406
30
-424
11
568.052
21
856.82
31
-424
0
LINE
8
T1
62
3
10
568.052
20
856.82
30
-424
11
567.974
21
857.291
31
-424
0
LINE
8
T1
62
3
10
567.974
20
857.291
30
-424
11
567.899
21
857.806
31
-424
0
LINE
8
T1
62
3
10
567.899
20
857.806
30
-424
11
567.747
21
859.066
31
-424
0
LINE
8
T1
62
3
10
567.747
20
859.066
30
-424
11
567.607
21
860.561
31
-424
0
LINE
8
T1
62
3
10
567.607
20
860.561
30
-424
11
567.479
21
862.308
31
-424
0
LINE
8
T1
62
3
10
567.479
20
862.308
30
-424
11
567.258
21
866.69
31
-424
0
LINE
8
T1
62
3
10
567.258
20
866.69
30
-424
11
566.951
21
879.38
31
-424
0
LINE
8
T1
62
3
10
566.951
20
879.38
30
-424
11
566.726
21
959.957
31
-424
0
ARC
8
T1
62
3
10
562.726
20
959.946
30
-424
40
4.00002
50
0.157563
51
90
210
0
220
0
230
1
0
LINE
8
T1
62
3
10
562.726
20
963.946
30
-424
11
562.726
21
963.946
31
-424
0
LINE
8
T1
62
1
10
562.726
20
963.946
30
-424
11
562.726
21
963.946
31
-399
0
LINE
8
T1
62
1
10
562.726
20
963.946
30
-399
11
562.726
21
963.946
31
-372
0
LINE
8
T1
62
1
10
562.726
20
963.946
30
-372
11
769.824
21
1107.71
31
-372
0
LINE
8
T1
62
1
10
769.824
20
1107.71
30
-372
11
769.824
21
1107.71
31
-402
0
LINE
8
T1
62
3
10
769.824
20
1107.71
30
-402
11
769.824
21
1107.71
31
-418
0
LINE
8
T1
62
3
10
769.824
20
1107.71
30
-418
11
781.121
21
879.461
31
-418
0
ARC
8
T1
62
3
10
785.116
20
879.659
30
-418
40
3.9999
50
-177.163
51
-90
210
0
220
0
230
1
0
LINE
8
T1
62
3
10
785.116
20
875.659
30
-418
11
785.116
21
875.659
31
-418
0
LINE
8
T1
62
3
10
785.116
20
875.659
30
-418
11
993.277
21
875.659
31
-418
0
ARC
8
T1
62
3
10
993.277
20
879.659
30
-418
40
4
50
-90
51
0
210
0
220
0
230
1
0
LINE
8
T1
62
3
10
997.277
20
879.659
30
-418
11
997.277
21
879.659
31
-418
0
LINE
8
T1
62
3
10
997.277
20
879.659
30
-418
11
997.277
21
919.871
31
-418
0
LINE
8
T1
62
3
10
997.277
20
919.871
30
-418
11
907.434
21
1109.62
31
-418
0
ARC
8
T1
62
3
10
903.819
20
1107.91
30
-418
40
3.99947
50
25.3285
51
90
210
0
220
0
230
1
0
LINE
8
T1
62
3
10
903.819
20
1111.91
30
-418
11
903.819
21
1111.91
31
-418
0
LINE
8
T1
62
3
10
903.819
20
1111.91
30
-418
11
773.819
21
1111.91
31
-418
0
ARC
8
T1
62
3
10
773.819
20
1107.91
30
-418
40
4
50
90
51
180
210
0
220
0
230
1
0
LINE
8
T1
62
3
10
769.819
20
1107.91
30
-418
11
769.819
21
1107.91
31
-418
0
ARC
8
T1
62
3
10
773.819
20
1107.91
30
-418
40
4
50
180
51
-177.163
210
0
220
0
230
1
0
LINE
8
T1
62
3
10
769.824
20
1107.71
30
-418
11
769.824
21
1107.71
31
-418
0
LINE
8
T1
62
3
10
769.824
20
1107.71
30
-418
11
769.824
21
1107.71
31
-424
0
LINE
8
T1
62
3
10
769.824
20
1107.71
30
-424
11
781.121
21
879.461
31
-424
0
ARC
8
T1
62
3
10
785.116
20
879.659
30
-424
40
3.9999
50
-177.163
51
-90
210
0
220
0
230
1
0
LINE
8
T1
62
3
10
785.116
20
875.659
30
-424
11
785.116
21
875.659
31
-424
0
LINE
8
T1
62
3
10
785.116
20
875.659
30
-424
11
993.277
21
875.659
31
-424
0
ARC
8
T1
62
3
10
993.277
20
879.659
30
-424
40
4
50
-90
51
0
210
0
220
0
230
1
0
LINE
8
T1
62
3
10
997.277
20
879.659
30
-424
11
997.277
21
879.659
31
-424
0
LINE
8
T1
62
3
10
997.277
20
879.659
30
-424
11
997.277
21
919.871
31
-424
0
LINE
8
T1
62
3
10
997.277
20
919.871
30
-424
11
907.434
21
1109.62
31
-424
0
ARC
8
T1
62
3
10
903.819
20
1107.91
30
-424
40
3.99947
50
25.3285
51
90
210
0
220
0
230
1
0
LINE
8
T1
62
3
10
903.819
20
1111.91
30
-424
11
903.819
21
1111.91
31
-424
0
LINE
8
T1
62
3
10
903.819
20
1111.91
30
-424
11
773.819
21
1111.91
31
-424
0
ARC
8
T1
62
3
10
773.819
20
1107.91
30
-424
40
4
50
90
51
180
210
0
220
0
230
1
0
LINE
8
T1
62
3
10
769.819
20
1107.91
30
-424
11
769.819
21
1107.91
31
-424
0
ARC
8
T1
62
3
10
773.819
20
1107.91
30
-424
40
4
50
180
51
-177.163
210
0
220
0
230
1
0
LINE
8
T1
62
3
10
769.824
20
1107.71
30
-424
11
769.824
21
1107.71
31
-424
0
LINE
8
T1
62
1
10
769.824
20
1107.71
30
-424
11
769.824
21
1107.71
31
-399
0
LINE
8
T1
62
1
10
769.824
20
1107.71
30
-399
11
769.824
21
1107.71
31
-372
0
LINE
8
T1
62
1
10
769.824
20
1107.71
30
-372
11
1045.55
21
1143.67
31
-372
0
LINE
8
T1
62
1
10
1045.55
20
1143.67
30
-372
11
1045.55
21
1143.67
31
-402
0
LINE
8
T1
62
3
10
1045.55
20
1143.67
30
-402
11
1045.55
21
1143.67
31
-418
0
LINE
8
T1
62
3
10
1045.55
20
1143.67
30
-418
11
1045.55
21
1109.91
31
-418
0
LINE
8
T1
62
3
10
1045.55
20
1109.91
30
-418
11
1047.48
21
1107.54
31
-418
0
LINE
8
T1
62
3
10
1047.48
20
1107.54
30
-418
11
1048.6
21
1106.11
31
-418
0
LINE
8
T1
62
3
10
1048.6
20
1106.11
30
-418
11
1051.21
21
1102.57
31
-418
0
LINE
8
T1
62
3
10
1051.21
20
1102.57
30
-418
11
1057.63
21
1093.26
31
-418
0
LINE
8
T1
62
3
10
1057.63
20
1093.26
30
-418
11
1073.8
21
1068.08
31
-418
0
LINE
8
T1
62
3
10
1073.8
20
1068.08
30
-418
11
1091.81
21
1038.35
31
-418
0
LINE
8
T1
62
3
10
1091.81
20
1038.35
30
-418
11
1108.68
21
1008.93
31
-418
0
ARC
8
T1
62
3
10
1112.15
20
1010.92
30
-418
40
3.99963
50
-150.179
51
-90
210
0
220
0
230
1
0
LINE
8
T1
62
3
10
1112.15
20
1006.92
30
-418
11
1112.15
21
1006.92
31
-418
0
LINE
8
T1
62
3
10
1112.15
20
1006.92
30
-418
11
1139.55
21
1006.92
31
-418
0
ARC
8
T1
62
3
10
1139.55
20
1010.92
30
-418
40
4
50
-90
51
0
210
0
220
0
230
1
0
LINE
8
T1
62
3
10
1143.55
20
1010.92
30
-418
11
1143.55
21
1010.92
31
-418
0
LINE
8
T1
62
3
10
1143.55
20
1010.92
30
-418
11
1143.55
21
1143.67
31
-418
0
ARC
8
T1
62
3
10
1139.55
20
1143.67
30
-418
40
4
50
0
51
90
210
0
220
0
230
1
0
LINE
8
T1
62
3
10
1139.55
20
1147.67
30
-418
11
1139.55
21
1147.67
31
-418
0
LINE
8
T1
62
3
10
1139.55
20
1147.67
30
-418
11
1049.55
21
1147.67
31
-418
0
ARC
8
T1
62
3
10
1049.55
20
1143.67
30
-418
40
4
50
90
51
180
210
0
220
0
230
1
0
LINE
8
T1
62
3
10
1045.55
20
1143.67
30
-418
11
1045.55
21
1143.67
31
-418
0
LINE
8
T1
62
3
10
1045.55
20
1143.67
30
-418
11
1045.55
21
1143.67
31
-424
0
LINE
8
T1
62
3
10
1045.55
20
1143.67
30
-424
11
1045.55
21
1109.91
31
-424
0
LINE
8
T1
62
3
10
1045.55
20
1109.91
30
-424
11
1047.48
21
1107.54
31
-424
0
LINE
8
T1
62
3
10
1047.48
20
1107.54
30
-424
11
1048.6
21
1106.11
31
-424
0
LINE
8
T1
62
3
10
1048.6
20
1106.11
30
-424
11
1051.21
21
1102.57
31
-424
0
LINE
8
T1
62
3
10
1051.21
20
1102.57
30
-424
11
1057.63
21
1093.26
31
-424
0
LINE
8
T1
62
3
10
1057.63
20
1093.26
30
-424
11
1073.8
21
1068.08
31
-424
0
LINE
8
T1
62
3
10
1073.8
20
1068.08
30
-424
11
1091.81
21
1038.35
31
-424
0
LINE
8
T1
62
3
10
1091.81
20
1038.35
30
-424
11
1108.68
21
1008.93
31
-424
0
ARC
8
T1
62
3
10
1112.15
20
1010.92
30
-424
40
3.99963
50
-150.179
51
-90
210
0
220
0
230
1
0
LINE
8
T1
62
3
10
1112.15
20
1006.92
30
-424
11
1112.15
21
1006.92
31
-424
0
LINE
8
T1
62
3
10
1112.15
20
1006.92
30
-424
11
1139.55
21
1006.92
31
-424
0
ARC
8
T1
62
3
10
1139.55
20
1010.92
30
-424
40
4
50
-90
51
0
210
0
220
0
230
1
0
LINE
8
T1
62
3
10
1143.55
20
1010.92
30
-424
11
1143.55
21
1010.92
31
-424
0
LINE
8
T1
62
3
10
1143.55
20
1010.92
30
-424
11
1143.55
21
1143.67
31
-424
0
ARC
8
T1
62
3
10
1139.55
20
1143.67
30
-424
40
4
50
0
51
90
210
0
220
0
230
1
0
LINE
8
T1
62
3
10
1139.55
20
1147.67
30
-424
11
1139.55
21
1147.67
31
-424
0
LINE
8
T1
62
3
10
1139.55
20
1147.67
30
-424
11
1049.55
21
1147.67
31
-424
0
ARC
8
T1
62
3
10
1049.55
20
1143.67
30
-424
40
4
50
90
51
180
210
0
220
0
230
1
0
LINE
8
T1
62
3
10
1045.55
20
1143.67
30
-424
11
1045.55
21
1143.67
31
-424
0
LINE
8
T1
62
1
10
1045.55
20
1143.67
30
-424
11
1045.55
21
1143.67
31
-399
0
LINE
8
T1
62
1
10
1045.55
20
1143.67
30
-399
11
1045.55
21
1143.67
31
-372
0
LINE
8
T1
62
1
10
1045.55
20
1143.67
30
-372
11
1045.55
21
1230.09
31
-372
0
LINE
8
T1
62
1
10
1045.55
20
1230.09
30
-372
11
1045.55
21
1230.09
31
-402
0
LINE
8
T1
62
3
10
1045.55
20
1230.09
30
-402
11
1045.55
21
1230.09
31
-418
0
LINE
8
T1
62
3
10
1045.55
20
1230.09
30
-418
11
1045.55
21
1196.33
31
-418
0
ARC
8
T1
62
3
10
1049.55
20
1196.33
30
-418
40
4
50
180
51
-90
210
0
220
0
230
1
0
LINE
8
T1
62
3
10
1049.55
20
1192.33
30
-418
11
1049.55
21
1192.33
31
-418
0
LINE
8
T1
62
3
10
1049.55
20
1192.33
30
-418
11
1139.55
21
1192.33
31
-418
0
ARC
8
T1
62
3
10
1139.55
20
1196.33
30
-418
40
4
50
-90
51
0
210
0
220
0
230
1
0
LINE
8
T1
62
3
10
1143.55
20
1196.33
30
-418
11
1143.55
21
1196.33
31
-418
0
LINE
8
T1
62
3
10
1143.55
20
1196.33
30
-418
11
1143.55
21
1329.08
31
-418
0
ARC
8
T1
62
3
10
1139.55
20
1329.08
30
-418
40
4
50
0
51
90
210
0
220
0
230
1
0
LINE
8
T1
62
3
10
1139.55
20
1333.08
30
-418
11
1139.55
21
1333.08
31
-418
0
LINE
8
T1
62
3
10
1139.55
20
1333.08
30
-418
11
1112.15
21
1333.08
31
-418
0
ARC
8
T1
62
3
10
1112.15
20
1329.08
30
-418
40
4
50
90
51
150.179
210
0
220
0
230
1
0
LINE
8
T1
62
3
10
1108.68
20
1331.07
30
-418
11
1108.68
21
1331.07
31
-418
0
LINE
8
T1
62
3
10
1108.68
20
1331.07
30
-418
11
1091.81
21
1301.65
31
-418
0
LINE
8
T1
62
3
10
1091.81
20
1301.65
30
-418
11
1073.8
21
1271.92
31
-418
0
LINE
8
T1
62
3
10
1073.8
20
1271.92
30
-418
11
1057.63
21
1246.74
31
-418
0
LINE
8
T1
62
3
10
1057.63
20
1246.74
30
-418
11
1051.21
21
1237.43
31
-418
0
LINE
8
T1
62
3
10
1051.21
20
1237.43
30
-418
11
1048.6
21
1233.89
31
-418
0
LINE
8
T1
62
3
10
1048.6
20
1233.89
30
-418
11
1047.48
21
1232.46
31
-418
0
LINE
8
T1
62
3
10
1047.48
20
1232.46
30
-418
11
1045.55
21
1230.09
31
-418
0
LINE
8
T1
62
3
10
1045.55
20
1230.09
30
-418
11
1045.55
21
1230.09
31
-424
0
LINE
8
T1
62
3
10
1045.55
20
1230.09
30
-424
11
1045.55
21
1196.33
31
-424
0
ARC
8
T1
62
3
10
1049.55
20
1196.33
30
-424
40
4
50
180
51
-90
210
0
220
0
230
1
0
LINE
8
T1
62
3
10
1049.55
20
1192.33
30
-424
11
1049.55
21
1192.33
31
-424
0
LINE
8
T1
62
3
10
1049.55
20
1192.33
30
-424
11
1139.55
21
1192.33
31
-424
0
ARC
8
T1
62
3
10
1139.55
20
1196.33
30
-424
40
4
50
-90
51
0
210
0
220
0
230
1
0
LINE
8
T1
62
3
10
1143.55
20
1196.33
30
-424
11
1143.55
21
1196.33
31
-424
0
LINE
8
T1
62
3
10
1143.55
20
1196.33
30
-424
11
1143.55
21
1329.08
31
-424
0
ARC
8
T1
62
3
10
1139.55
20
1329.08
30
-424
40
4
50
0
51
90
210
0
220
0
230
1
0
LINE
8
T1
62
3
10
1139.55
20
1333.08
30
-424
11
1139.55
21
1333.08
31
-424
0
LINE
8
T1
62
3
10
1139.55
20
1333.08
30
-424
11
1112.15
21
1333.08
31
-424
0
ARC
8
T1
62
3
10
1112.15
20
1329.08
30
-424
40
4
50
90
51
150.179
210
0
220
0
230
1
0
LINE
8
T1
62
3
10
1108.68
20
1331.07
30
-424
11
1108.68
21
1331.07
31
-424
0
LINE
8
T1
62
3
10
1108.68
20
1331.07
30
-424
11
1091.81
21
1301.65
31
-424
0
LINE
8
T1
62
3
10
1091.81
20
1301.65
30
-424
11
1073.8
21
1271.92
31
-424
0
LINE
8
T1
62
3
10
1073.8
20
1271.92
30
-424
11
1057.63
21
1246.74
31
-424
0
LINE
8
T1
62
3
10
1057.63
20
1246.74
30
-424
11
1051.21
21
1237.43
31
-424
0
LINE
8
T1
62
3
10
1051.21
20
1237.43
30
-424
11
1048.6
21
1233.89
31
-424
0
LINE
8
T1
62
3
10
1048.6
20
1233.89
30
-424
11
1047.48
21
1232.46
31
-424
0
LINE
8
T1
62
3
10
1047.48
20
1232.46
30
-424
11
1045.55
21
1230.09
31
-424
0
LINE
8
T1
62
1
10
1045.55
20
1230.09
30
-424
11
1045.55
21
1230.09
31
-399
0
LINE
8
T1
62
1
10
1045.55
20
1230.09
30
-399
11
1045.55
21
1230.09
31
-372
0
LINE
8
T1
62
1
10
1045.55
20
1230.09
30
-372
11
641.85
21
1160.71
31
-372
0
LINE
8
T1
62
1
10
641.85
20
1160.71
30
-372
11
641.85
21
1160.71
31
-402
0
LINE
8
T1
62
3
10
641.85
20
1160.71
30
-402
11
641.85
21
1160.71
31
-418
0
LINE
8
T1
62
3
10
641.85
20
1160.71
30
-418
11
249.637
21
1160.71
31
-418
0
ARC
8
T1
62
3
10
249.637
20
1156.71
30
-418
40
4
50
90
51
180
210
0
220
0
230
1
0
LINE
8
T1
62
3
10
245.637
20
1156.71
30
-418
11
245.637
21
1156.71
31
-418
0
LINE
8
T1
62
3
10
245.637
20
1156.71
30
-418
11
245.637
21
999.911
31
-418
0
LINE
8
T1
62
3
10
245.637
20
999.911
30
-418
11
245.637
21
979.02
31
-418
0
ARC
8
T1
62
3
10
249.637
20
979.02
30
-418
40
4
50
180
51
-90
210
0
220
0
230
1
0
LINE
8
T1
62
3
10
249.637
20
975.02
30
-418
11
249.637
21
975.02
31
-418
0
ARC
8
T1
62
3
10
249.637
20
979.02
30
-418
40
4
50
-90
51
-85.498
210
0
220
0
230
1
0
LINE
8
T1
62
3
10
249.951
20
975.032
30
-418
11
249.951
21
975.032
31
-418
0
LINE
8
T1
62
3
10
249.951
20
975.032
30
-418
11
642.163
21
1005.88
31
-418
0
ARC
8
T1
62
3
10
641.85
20
1009.87
30
-418
40
4.00026
50
-85.5123
51
0
210
0
220
0
230
1
0
LINE
8
T1
62
3
10
645.85
20
1009.87
30
-418
11
645.85
21
1009.87
31
-418
0
LINE
8
T1
62
3
10
645.85
20
1009.87
30
-418
11
645.85
21
1156.71
31
-418
0
ARC
8
T1
62
3
10
641.85
20
1156.71
30
-418
40
4
50
0
51
90
210
0
220
0
230
1
0
LINE
8
T1
62
3
10
641.85
20
1160.71
30
-418
11
641.85
21
1160.71
31
-418
0
LINE
8
T1
62
3
10
641.85
20
1160.71
30
-418
11
641.85
21
1160.71
31
-424
0
LINE
8
T1
62
3
10
641.85
20
1160.71
30
-424
11
249.637
21
1160.71
31
-424
0
ARC
8
T1
62
3
10
249.637
20
1156.71
30
-424
40
4
50
90
51
180
210
0
220
0
230
1
0
LINE
8
T1
62
3
10
245.637
20
1156.71
30
-424
11
245.637
21
1156.71
31
-424
0
LINE
8
T1
62
3
10
245.637
20
1156.71
30
-424
11
245.637
21
999.911
31
-424
0
LINE
8
T1
62
3
10
245.637
20
999.911
30
-424
11
245.637
21
979.02
31
-424
0
ARC
8
T1
62
3
10
249.637
20
979.02
30
-424
40
4
50
180
51
-90
210
0
220
0
230
1
0
LINE
8
T1
62
3
10
249.637
20
975.02
30
-424
11
249.637
21
975.02
31
-424
0
ARC
8
T1
62
3
10
249.637
20
979.02
30
-424
40
4
50
-90
51
-85.498
210
0
220
0
230
1
0
LINE
8
T1
62
3
10
249.951
20
975.032
30
-424
11
249.951
21
975.032
31
-424
0
LINE
8
T1
62
3
10
249.951
20
975.032
30
-424
11
642.163
21
1005.88
31
-424
0
ARC
8
T1
62
3
10
641.85
20
1009.87
30
-424
40
4.00026
50
-85.5123
51
0
210
0
220
0
230
1
0
LINE
8
T1
62
3
10
645.85
20
1009.87
30
-424
11
645.85
21
1009.87
31
-424
0
LINE
8
T1
62
3
10
645.85
20
1009.87
30
-424
11
645.85
21
1156.71
31
-424
0
ARC
8
T1
62
3
10
641.85
20
1156.71
30
-424
40
4
50
0
51
90
210
0
220
0
230
1
0
LINE
8
T1
62
3
10
641.85
20
1160.71
30
-424
11
641.85
21
1160.71
31
-424
0
LINE
8
T1
62
1
10
641.85
20
1160.71
30
-424
11
641.85
21
1160.71
31
-399
0
LINE
8
T1
62
1
10
641.85
20
1160.71
30
-399
11
641.85
21
1160.71
31
-372
0
LINE
8
T1
62
1
10
641.85
20
1160.71
30
-372
11
642.163
21
1334.12
31
-372
0
LINE
8
T1
62
1
10
642.163
20
1334.12
30
-372
11
642.163
21
1334.12
31
-402
0
LINE
8
T1
62
3
10
642.163
20
1334.12
30
-402
11
642.163
21
1334.12
31
-418
0
LINE
8
T1
62
3
10
642.163
20
1334.12
30
-418
11
249.951
21
1364.97
31
-418
0
ARC
8
T1
62
3
10
249.637
20
1360.98
30
-418
40
4.00034
50
85.498
51
90
210
0
220
0
230
1
0
LINE
8
T1
62
3
10
249.637
20
1364.98
30
-418
11
249.637
21
1364.98
31
-418
0
ARC
8
T1
62
3
10
249.637
20
1360.98
30
-418
40
4
50
90
51
180
210
0
220
0
230
1
0
LINE
8
T1
62
3
10
245.637
20
1360.98
30
-418
11
245.637
21
1360.98
31
-418
0
LINE
8
T1
62
3
10
245.637
20
1360.98
30
-418
11
245.637
21
1340.09
31
-418
0
LINE
8
T1
62
3
10
245.637
20
1340.09
30
-418
11
245.637
21
1183.29
31
-418
0
ARC
8
T1
62
3
10
249.637
20
1183.29
30
-418
40
4
50
180
51
-90
210
0
220
0
230
1
0
LINE
8
T1
62
3
10
249.637
20
1179.29
30
-418
11
249.637
21
1179.29
31
-418
0
LINE
8
T1
62
3
10
249.637
20
1179.29
30
-418
11
641.85
21
1179.29
31
-418
0
ARC
8
T1
62
3
10
641.85
20
1183.29
30
-418
40
4
50
-90
51
0
210
0
220
0
230
1
0
LINE
8
T1
62
3
10
645.85
20
1183.29
30
-418
11
645.85
21
1183.29
31
-418
0
LINE
8
T1
62
3
10
645.85
20
1183.29
30
-418
11
645.85
21
1330.13
31
-418
0
ARC
8
T1
62
3
10
641.85
20
1330.13
30
-418
40
4
50
0
51
85.5123
210
0
220
0
230
1
0
LINE
8
T1
62
3
10
642.163
20
1334.11
30
-418
11
642.163
21
1334.12
31
-418
0
LINE
8
T1
62
3
10
642.163
20
1334.12
30
-418
11
642.163
21
1334.12
31
-424
0
LINE
8
T1
62
3
10
642.163
20
1334.12
30
-424
11
249.951
21
1364.97
31
-424
0
ARC
8
T1
62
3
10
249.637
20
1360.98
30
-424
40
4.00034
50
85.498
51
90
210
0
220
0
230
1
0
LINE
8
T1
62
3
10
249.637
20
1364.98
30
-424
11
249.637
21
1364.98
31
-424
0
ARC
8
T1
62
3
10
249.637
20
1360.98
30
-424
40
4
50
90
51
180
210
0
220
0
230
1
0
LINE
8
T1
62
3
10
245.637
20
1360.98
30
-424
11
245.637
21
1360.98
31
-424
0
LINE
8
T1
62
3
10
245.637
20
1360.98
30
-424
11
245.637
21
1340.09
31
-424
0
LINE
8
T1
62
3
10
245.637
20
1340.09
30
-424
11
245.637
21
1183.29
31
-424
0
ARC
8
T1
62
3
10
249.637
20
1183.29
30
-424
40
4
50
180
51
-90
210
0
220
0
230
1
0
LINE
8
T1
62
3
10
249.637
20
1179.29
30
-424
11
249.637
21
1179.29
31
-424
0
LINE
8
T1
62
3
10
249.637
20
1179.29
30
-424
11
641.85
21
1179.29
31
-424
0
ARC
8
T1
62
3
10
641.85
20
1183.29
30
-424
40
4
50
-90
51
0
210
0
220
0
230
1
0
LINE
8
T1
62
3
10
645.85
20
1183.29
30
-424
11
645.85
21
1183.29
31
-424
0
LINE
8
T1
62
3
10
645.85
20
1183.29
30
-424
11
645.85
21
1330.13
31
-424
0
ARC
8
T1
62
3
10
641.85
20
1330.13
30
-424
40
4
50
0
51
85.5123
210
0
220
0
230
1
0
LINE
8
T1
62
3
10
642.163
20
1334.11
30
-424
11
642.163
21
1334.12
31
-424
0
LINE
8
T1
62
1
10
642.163
20
1334.12
30
-424
11
642.163
21
1334.12
31
-399
0
LINE
8
T1
62
1
10
642.163
20
1334.12
30
-399
11
642.163
21
1334.12
31
-372
0
LINE
8
T1
62
1
10
642.163
20
1334.12
30
-372
11
781.121
21
1460.54
31
-372
0
LINE
8
T1
62
1
10
781.121
20
1460.54
30
-372
11
781.121
21
1460.54
31
-402
0
LINE
8
T1
62
3
10
781.121
20
1460.54
30
-402
11
781.121
21
1460.54
31
-418
0
LINE
8
T1
62
3
10
781.121
20
1460.54
30
-418
11
769.824
21
1232.29
31
-418
0
ARC
8
T1
62
3
10
773.819
20
1232.09
30
-418
40
3.9999
50
177.163
51
180
210
0
220
0
230
1
0
LINE
8
T1
62
3
10
769.819
20
1232.09
30
-418
11
769.819
21
1232.09
31
-418
0
ARC
8
T1
62
3
10
773.819
20
1232.09
30
-418
40
4
50
180
51
-90
210
0
220
0
230
1
0
LINE
8
T1
62
3
10
773.819
20
1228.09
30
-418
11
773.819
21
1228.09
31
-418
0
LINE
8
T1
62
3
10
773.819
20
1228.09
30
-418
11
903.819
21
1228.09
31
-418
0
ARC
8
T1
62
3
10
903.819
20
1232.09
30
-418
40
4
50
-90
51
-25.3285
210
0
220
0
230
1
0
LINE
8
T1
62
3
10
907.434
20
1230.38
30
-418
11
907.434
21
1230.38
31
-418
0
LINE
8
T1
62
3
10
907.434
20
1230.38
30
-418
11
997.277
21
1420.13
31
-418
0
LINE
8
T1
62
3
10
997.277
20
1420.13
30
-418
11
997.277
21
1460.34
31
-418
0
ARC
8
T1
62
3
10
993.277
20
1460.34
30
-418
40
4
50
0
51
90
210
0
220
0
230
1
0
LINE
8
T1
62
3
10
993.277
20
1464.34
30
-418
11
993.277
21
1464.34
31
-418
0
LINE
8
T1
62
3
10
993.277
20
1464.34
30
-418
11
785.116
21
1464.34
31
-418
0
ARC
8
T1
62
3
10
785.116
20
1460.34
30
-418
40
4
50
90
51
177.163
210
0
220
0
230
1
0
LINE
8
T1
62
3
10
781.121
20
1460.54
30
-418
11
781.121
21
1460.54
31
-418
0
LINE
8
T1
62
3
10
781.121
20
1460.54
30
-418
11
781.121
21
1460.54
31
-424
0
LINE
8
T1
62
3
10
781.121
20
1460.54
30
-424
11
769.824
21
1232.29
31
-424
0
ARC
8
T1
62
3
10
773.819
20
1232.09
30
-424
40
3.9999
50
177.163
51
180
210
0
220
0
230
1
0
LINE
8
T1
62
3
10
769.819
20
1232.09
30
-424
11
769.819
21
1232.09
31
-424
0
ARC
8
T1
62
3
10
773.819
20
1232.09
30
-424
40
4
50
180
51
-90
210
0
220
0
230
1
0
LINE
8
T1
62
3
10
773.819
20
1228.09
30
-424
11
773.819
21
1228.09
31
-424
0
LINE
8
T1
62
3
10
773.819
20
1228.09
30
-424
11
903.819
21
1228.09
31
-424
0
ARC
8
T1
62
3
10
903.819
20
1232.09
30
-424
40
4
50
-90
51
-25.3285
210
0
220
0
230
1
0
LINE
8
T1
62
3
10
907.434
20
1230.38
30
-424
11
907.434
21
1230.38
31
-424
0
LINE
8
T1
62
3
10
907.434
20
1230.38
30
-424
11
997.277
21
1420.13
31
-424
0
LINE
8
T1
62
3
10
997.277
20
1420.13
30
-424
11
997.277
21
1460.34
31
-424
0
ARC
8
T1
62
3
10
993.277
20
1460.34
30
-424
40
4
50
0
51
90
210
0
220
0
230
1
0
LINE
8
T1
62
3
10
993.277
20
1464.34
30
-424
11
993.277
21
1464.34
31
-424
0
LINE
8
T1
62
3
10
993.277
20
1464.34
30
-424
11
785.116
21
1464.34
31
-424
0
ARC
8
T1
62
3
10
785.116
20
1460.34
30
-424
40
4
50
90
51
177.163
210
0
220
0
230
1
0
LINE
8
T1
62
3
10
781.121
20
1460.54
30
-424
11
781.121
21
1460.54
31
-424
0
LINE
8
T1
62
1
10
781.121
20
1460.54
30
-424
11
781.121
21
1460.54
31
-399
0
LINE
8
T1
62
1
10
781.121
20
1460.54
30
-399
11
781.121
21
1460.54
31
-372
0
LINE
8
T1
62
1
10
781.121
20
1460.54
30
-372
11
301.856
21
1591.67
31
-372
0
LINE
8
T1
62
1
10
301.856
20
1591.67
30
-372
11
301.856
21
1591.67
31
-402
0
LINE
8
T1
62
3
10
301.856
20
1591.67
30
-402
11
301.856
21
1591.67
31
-418
0
LINE
8
T1
62
3
10
301.856
20
1591.67
30
-418
11
301.856
21
1475.97
31
-418
0
ARC
8
T1
62
3
10
305.856
20
1475.97
30
-418
40
4
50
180
51
-127.666
210
0
220
0
230
1
0
LINE
8
T1
62
3
10
303.412
20
1472.81
30
-418
11
303.412
21
1472.81
31
-418
0
ARC
8
T1
62
3
10
464.053
20
1681
30
-418
40
262.963
50
-127.654
51
-117.842
210
0
220
0
230
1
0
LINE
8
T1
62
3
10
341.239
20
1448.48
30
-418
11
341.239
21
1448.48
31
-418
0
ARC
8
T1
62
3
10
343.107
20
1452.02
30
-418
40
3.99997
50
-117.84
51
-90
210
0
220
0
230
1
0
LINE
8
T1
62
3
10
343.107
20
1448.02
30
-418
11
343.107
21
1448.02
31
-418
0
ARC
8
T1
62
3
10
343.107
20
1452.02
30
-418
40
4
50
-90
51
-27.1608
210
0
220
0
230
1
0
LINE
8
T1
62
3
10
346.666
20
1450.19
30
-418
11
346.666
21
1450.19
31
-418
0
ARC
8
T1
62
3
10
347.555
20
1449.73
30
-418
40
0.999585
50
90
51
152.794
210
0
220
0
230
1
0
LINE
8
T1
62
3
10
347.555
20
1450.73
30
-418
11
347.555
21
1450.73
31
-418
0
ARC
8
T1
62
3
10
347.555
20
1449.73
30
-418
40
1
50
0
51
90
210
0
220
0
230
1
0
LINE
8
T1
62
3
10
348.555
20
1449.73
30
-418
11
348.555
21
1449.73
31
-418
0
ARC
8
T1
62
3
10
347.555
20
1449.73
30
-418
40
1
50
-26.1038
51
0
210
0
220
0
230
1
0
LINE
8
T1
62
3
10
348.453
20
1449.29
30
-418
11
348.453
21
1449.29
31
-418
0
ARC
8
T1
62
3
10
352.044
20
1447.53
30
-418
40
3.99999
50
153.864
51
-180
210
0
220
0
230
1
0
LINE
8
T1
62
3
10
348.044
20
1447.53
30
-418
11
348.044
21
1447.53
31
-418
0
ARC
8
T1
62
3
10
352.044
20
1447.53
30
-418
40
4
50
180
51
-115.405
210
0
220
0
230
1
0
LINE
8
T1
62
3
10
350.328
20
1443.92
30
-418
11
350.328
21
1443.92
31
-418
0
ARC
8
T1
62
3
10
491.836
20
1741.78
30
-418
40
329.764
50
-115.412
51
-106.572
210
0
220
0
230
1
0
LINE
8
T1
62
3
10
397.78
20
1425.71
30
-418
11
397.78
21
1425.71
31
-418
0
ARC
8
T1
62
3
10
398.921
20
1429.55
30
-418
40
3.99922
50
-106.577
51
-90
210
0
220
0
230
1
0
LINE
8
T1
62
3
10
398.921
20
1425.55
30
-418
11
398.921
21
1425.55
31
-418
0
ARC
8
T1
62
3
10
398.921
20
1429.55
30
-418
40
3.999
50
-90
51
-16.396
210
0
220
0
230
1
0
LINE
8
T1
62
3
10
402.757
20
1428.42
30
-418
11
402.758
21
1428.42
31
-418
0
ARC
8
T1
62
3
10
403.718
20
1428.13
30
-418
40
1.00056
50
90
51
163.63
210
0
220
0
230
1
0
LINE
8
T1
62
3
10
403.718
20
1429.13
30
-418
11
403.718
21
1429.13
31
-418
0
ARC
8
T1
62
3
10
403.718
20
1428.13
30
-418
40
1.001
50
0
51
90
210
0
220
0
230
1
0
LINE
8
T1
62
3
10
404.719
20
1428.13
30
-418
11
404.719
21
1428.13
31
-418
0
ARC
8
T1
62
3
10
403.718
20
1428.13
30
-418
40
1.001
50
-15.6621
51
0
210
0
220
0
230
1
0
LINE
8
T1
62
3
10
404.682
20
1427.86
30
-418
11
404.681
21
1427.86
31
-418
0
ARC
8
T1
62
3
10
408.532
20
1426.78
30
-418
40
3.99958
50
164.334
51
180
210
0
220
0
230
1
0
LINE
8
T1
62
3
10
404.532
20
1426.78
30
-418
11
404.532
21
1426.78
31
-418
0
ARC
8
T1
62
3
10
408.532
20
1426.78
30
-418
40
4
50
180
51
-105.245
210
0
220
0
230
1
0
LINE
8
T1
62
3
10
407.48
20
1422.92
30
-418
11
407.48
21
1422.92
31
-418
0
ARC
8
T1
62
3
10
522.326
20
1844.26
30
-418
40
436.71
50
-105.247
51
-101.384
210
0
220
0
230
1
0
LINE
8
T1
62
3
10
436.123
20
1416.14
30
-418
11
436.123
21
1416.14
31
-418
0
ARC
8
T1
62
3
10
436.913
20
1420.07
30
-418
40
4.00077
50
-101.389
51
-90
210
0
220
0
230
1
0
LINE
8
T1
62
3
10
436.913
20
1416.07
30
-418
11
436.913
21
1416.07
31
-418
0
ARC
8
T1
62
3
10
436.913
20
1420.07
30
-418
40
4.001
50
-90
51
-11.1414
210
0
220
0
230
1
0
LINE
8
T1
62
3
10
440.839
20
1419.29
30
-418
11
440.838
21
1419.29
31
-418
0
ARC
8
T1
62
3
10
441.819
20
1419.1
30
-418
40
0.999805
50
90
51
168.87
210
0
220
0
230
1
0
LINE
8
T1
62
3
10
441.819
20
1420.1
30
-418
11
441.819
21
1420.1
31
-418
0
ARC
8
T1
62
3
10
441.819
20
1419.1
30
-418
40
1
50
0
51
90
210
0
220
0
230
1
0
LINE
8
T1
62
3
10
442.819
20
1419.1
30
-418
11
442.819
21
1419.1
31
-418
0
ARC
8
T1
62
3
10
441.819
20
1419.1
30
-418
40
1
50
-10.5457
51
0
210
0
220
0
230
1
0
LINE
8
T1
62
3
10
442.802
20
1418.92
30
-418
11
442.802
21
1418.92
31
-418
0
ARC
8
T1
62
3
10
446.734
20
1418.19
30
-418
40
3.99956
50
169.454
51
180
210
0
220
0
230
1
0
LINE
8
T1
62
3
10
442.734
20
1418.19
30
-418
11
442.734
21
1418.19
31
-418
0
ARC
8
T1
62
3
10
446.734
20
1418.19
30
-418
40
4
50
180
51
-100.225
210
0
220
0
230
1
0
LINE
8
T1
62
3
10
446.024
20
1414.25
30
-418
11
446.024
21
1414.25
31
-418
0
ARC
8
T1
62
3
10
539.736
20
1933.44
30
-418
40
527.583
50
-100.231
51
-98.4545
210
0
220
0
230
1
0
LINE
8
T1
62
3
10
462.169
20
1411.59
30
-418
11
462.169
21
1411.59
31
-418
0
LINE
8
T1
62
3
10
462.169
20
1411.59
30
-418
11
462.169
21
1380.05
31
-418
0
ARC
8
T1
62
3
10
466.169
20
1380.05
30
-418
40
4
50
180
51
-90
210
0
220
0
230
1
0
LINE
8
T1
62
3
10
466.169
20
1376.05
30
-418
11
466.169
21
1376.05
31
-418
0
LINE
8
T1
62
3
10
466.169
20
1376.05
30
-418
11
562.726
21
1376.05
31
-418
0
ARC
8
T1
62
3
10
562.726
20
1380.05
30
-418
40
4
50
-90
51
-0.157563
210
0
220
0
230
1
0
LINE
8
T1
62
3
10
566.726
20
1380.04
30
-418
11
566.726
21
1380.04
31
-418
0
LINE
8
T1
62
3
10
566.726
20
1380.04
30
-418
11
566.951
21
1460.62
31
-418
0
LINE
8
T1
62
3
10
566.951
20
1460.62
30
-418
11
567.258
21
1473.31
31
-418
0
LINE
8
T1
62
3
10
567.258
20
1473.31
30
-418
11
567.479
21
1477.69
31
-418
0
LINE
8
T1
62
3
10
567.479
20
1477.69
30
-418
11
567.607
21
1479.44
31
-418
0
LINE
8
T1
62
3
10
567.607
20
1479.44
30
-418
11
567.747
21
1480.93
31
-418
0
LINE
8
T1
62
3
10
567.747
20
1480.93
30
-418
11
567.899
21
1482.19
31
-418
0
LINE
8
T1
62
3
10
567.899
20
1482.19
30
-418
11
567.974
21
1482.71
31
-418
0
LINE
8
T1
62
3
10
567.974
20
1482.71
30
-418
11
568.052
21
1483.18
31
-418
0
LINE
8
T1
62
3
10
568.052
20
1483.18
30
-418
11
568.131
21
1483.59
31
-418
0
LINE
8
T1
62
3
10
568.131
20
1483.59
30
-418
11
568.208
21
1483.95
31
-418
0
LINE
8
T1
62
3
10
568.208
20
1483.95
30
-418
11
568.288
21
1484.27
31
-418
0
LINE
8
T1
62
3
10
568.288
20
1484.27
30
-418
11
568.319
21
1484.38
31
-418
0
LINE
8
T1
62
3
10
568.319
20
1484.38
30
-418
11
568.353
21
1484.5
31
-418
0
LINE
8
T1
62
3
10
568.353
20
1484.5
30
-418
11
568.386
21
1484.6
31
-418
0
LINE
8
T1
62
3
10
568.386
20
1484.6
30
-418
11
568.417
21
1484.69
31
-418
0
LINE
8
T1
62
3
10
568.417
20
1484.69
30
-418
11
568.445
21
1484.77
31
-418
0
LINE
8
T1
62
3
10
568.445
20
1484.77
30
-418
11
568.47
21
1484.84
31
-418
0
LINE
8
T1
62
3
10
568.47
20
1484.84
30
-418
11
568.493
21
1484.89
31
-418
0
LINE
8
T1
62
3
10
568.493
20
1484.89
30
-418
11
568.512
21
1484.93
31
-418
0
LINE
8
T1
62
3
10
568.512
20
1484.93
30
-418
11
568.518
21
1484.94
31
-418
0
LINE
8
T1
62
3
10
568.518
20
1484.94
30
-418
11
568.559
21
1484.97
31
-418
0
LINE
8
T1
62
3
10
568.559
20
1484.97
30
-418
11
569.045
21
1485.26
31
-418
0
LINE
8
T1
62
3
10
569.045
20
1485.26
30
-418
11
573.043
21
1487.62
31
-418
0
LINE
8
T1
62
3
10
573.043
20
1487.62
30
-418
11
574.265
21
1488.28
31
-418
0
LINE
8
T1
62
3
10
574.265
20
1488.28
30
-418
11
575.63
21
1488.99
31
-418
0
LINE
8
T1
62
3
10
575.63
20
1488.99
30
-418
11
577.122
21
1489.72
31
-418
0
LINE
8
T1
62
3
10
577.122
20
1489.72
30
-418
11
578.751
21
1490.47
31
-418
0
LINE
8
T1
62
3
10
578.751
20
1490.47
30
-418
11
580.524
21
1491.22
31
-418
0
LINE
8
T1
62
3
10
580.524
20
1491.22
30
-418
11
582.449
21
1491.97
31
-418
0
LINE
8
T1
62
3
10
582.449
20
1491.97
30
-418
11
584.533
21
1492.71
31
-418
0
LINE
8
T1
62
3
10
584.533
20
1492.71
30
-418
11
586.783
21
1493.43
31
-418
0
LINE
8
T1
62
3
10
586.783
20
1493.43
30
-418
11
589.206
21
1494.14
31
-418
0
LINE
8
T1
62
3
10
589.206
20
1494.14
30
-418
11
591.811
21
1494.81
31
-418
0
LINE
8
T1
62
3
10
591.811
20
1494.81
30
-418
11
594.603
21
1495.43
31
-418
0
LINE
8
T1
62
3
10
594.603
20
1495.43
30
-418
11
597.59
21
1496.01
31
-418
0
LINE
8
T1
62
3
10
597.59
20
1496.01
30
-418
11
600.787
21
1496.54
31
-418
0
LINE
8
T1
62
3
10
600.787
20
1496.54
30
-418
11
604.229
21
1497.01
31
-418
0
LINE
8
T1
62
3
10
604.229
20
1497.01
30
-418
11
607.952
21
1497.42
31
-418
0
LINE
8
T1
62
3
10
607.952
20
1497.42
30
-418
11
611.974
21
1497.79
31
-418
0
LINE
8
T1
62
3
10
611.974
20
1497.79
30
-418
11
621.153
21
1498.4
31
-418
0
LINE
8
T1
62
3
10
621.153
20
1498.4
30
-418
11
631.95
21
1498.83
31
-418
0
LINE
8
T1
62
3
10
631.95
20
1498.83
30
-418
11
697.376
21
1499.43
31
-418
0
ARC
8
T1
62
3
10
697.339
20
1503.43
30
-418
40
4.00017
50
-89.47
51
0
210
0
220
0
230
1
0
LINE
8
T1
62
3
10
701.339
20
1503.43
30
-418
11
701.339
21
1503.43
31
-418
0
LINE
8
T1
62
3
10
701.339
20
1503.43
30
-418
11
701.339
21
1595.29
31
-418
0
ARC
8
T1
62
3
10
697.339
20
1595.29
30
-418
40
4
50
0
51
76.7906
210
0
220
0
230
1
0
LINE
8
T1
62
3
10
698.253
20
1599.18
30
-418
11
698.253
21
1599.18
31
-418
0
LINE
8
T1
62
3
10
698.253
20
1599.18
30
-418
11
666.956
21
1606.53
31
-418
0
LINE
8
T1
62
3
10
666.956
20
1606.53
30
-418
11
636.909
21
1612.58
31
-418
0
LINE
8
T1
62
3
10
636.909
20
1612.58
30
-418
11
622.341
21
1615.13
31
-418
0
LINE
8
T1
62
3
10
622.341
20
1615.13
30
-418
11
608.112
21
1617.35
31
-418
0
LINE
8
T1
62
3
10
608.112
20
1617.35
30
-418
11
594.203
21
1619.25
31
-418
0
LINE
8
T1
62
3
10
594.203
20
1619.25
30
-418
11
580.637
21
1620.81
31
-418
0
LINE
8
T1
62
3
10
580.637
20
1620.81
30
-418
11
570.659
21
1621.86
31
-418
0
LINE
8
T1
62
3
10
570.659
20
1621.86
30
-418
11
562.189
21
1622.7
31
-418
0
ARC
8
T1
62
3
10
561.794
20
1618.72
30
-418
40
3.99955
50
84.3322
51
90
210
0
220
0
230
1
0
LINE
8
T1
62
3
10
561.794
20
1622.72
30
-418
11
561.794
21
1622.72
31
-418
0
ARC
8
T1
62
3
10
561.794
20
1618.72
30
-418
40
4
50
90
51
174.75
210
0
220
0
230
1
0
LINE
8
T1
62
3
10
557.811
20
1619.09
30
-418
11
557.811
21
1619.09
31
-418
0
ARC
8
T1
62
3
10
556.815
20
1619.18
30
-418
40
1.00024
50
-90
51
-5.27741
210
0
220
0
230
1
0
LINE
8
T1
62
3
10
556.815
20
1618.18
30
-418
11
556.815
21
1618.18
31
-418
0
ARC
8
T1
62
3
10
556.815
20
1619.18
30
-418
40
1
50
180
51
-90
210
0
220
0
230
1
0
LINE
8
T1
62
3
10
555.815
20
1619.18
30
-418
11
555.815
21
1619.18
31
-418
0
ARC
8
T1
62
3
10
556.815
20
1619.18
30
-418
40
1
50
175.065
51
180
210
0
220
0
230
1
0
LINE
8
T1
62
3
10
555.819
20
1619.26
30
-418
11
555.819
21
1619.26
31
-418
0
ARC
8
T1
62
3
10
551.834
20
1619.61
30
-418
40
3.99991
50
-4.94802
51
0
210
0
220
0
230
1
0
LINE
8
T1
62
3
10
555.834
20
1619.61
30
-418
11
555.834
21
1619.61
31
-418
0
ARC
8
T1
62
3
10
551.834
20
1619.61
30
-418
40
4
50
0
51
85.7705
210
0
220
0
230
1
0
LINE
8
T1
62
3
10
552.129
20
1623.6
30
-418
11
552.129
21
1623.6
31
-418
0
LINE
8
T1
62
3
10
552.129
20
1623.6
30
-418
11
536.061
21
1624.79
31
-418
0
LINE
8
T1
62
3
10
536.061
20
1624.79
30
-418
11
520.479
21
1625.63
31
-418
0
LINE
8
T1
62
3
10
520.479
20
1625.63
30
-418
11
505.421
21
1626.12
31
-418
0
LINE
8
T1
62
3
10
505.421
20
1626.12
30
-418
11
490.885
21
1626.26
31
-418
0
LINE
8
T1
62
3
10
490.885
20
1626.26
30
-418
11
476.871
21
1626.04
31
-418
0
LINE
8
T1
62
3
10
476.871
20
1626.04
30
-418
11
463.378
21
1625.47
31
-418
0
LINE
8
T1
62
3
10
463.378
20
1625.47
30
-418
11
450.407
21
1624.55
31
-418
0
LINE
8
T1
62
3
10
450.407
20
1624.55
30
-418
11
438.005
21
1623.27
31
-418
0
LINE
8
T1
62
3
10
438.005
20
1623.27
30
-418
11
428.055
21
1622.17
31
-418
0
LINE
8
T1
62
3
10
428.055
20
1622.17
30
-418
11
418.538
21
1621.14
31
-418
0
ARC
8
T1
62
3
10
418.969
20
1617.16
30
-418
40
4.00029
50
96.1852
51
180
210
0
220
0
230
1
0
LINE
8
T1
62
3
10
414.969
20
1617.16
30
-418
11
414.969
21
1617.16
31
-418
0
ARC
8
T1
62
3
10
418.969
20
1617.16
30
-418
40
4
50
180
51
-173.223
210
0
220
0
230
1
0
LINE
8
T1
62
3
10
414.997
20
1616.69
30
-418
11
414.997
21
1616.69
31
-418
0
ARC
8
T1
62
3
10
414.004
20
1616.57
30
-418
40
0.999986
50
0
51
6.77678
210
0
220
0
230
1
0
LINE
8
T1
62
3
10
415.004
20
1616.57
30
-418
11
415.004
21
1616.57
31
-418
0
ARC
8
T1
62
3
10
414.004
20
1616.57
30
-418
40
1
50
-90
51
0
210
0
220
0
230
1
0
LINE
8
T1
62
3
10
414.004
20
1615.57
30
-418
11
414.004
21
1615.57
31
-418
0
ARC
8
T1
62
3
10
414.004
20
1616.57
30
-418
40
1
50
-172.818
51
-90
210
0
220
0
230
1
0
LINE
8
T1
62
3
10
413.012
20
1616.44
30
-418
11
413.012
21
1616.44
31
-418
0
ARC
8
T1
62
3
10
409.043
20
1615.94
30
-418
40
4.00062
50
7.20851
51
90
210
0
220
0
230
1
0
LINE
8
T1
62
3
10
409.043
20
1619.94
30
-418
11
409.043
21
1619.94
31
-418
0
LINE
8
T1
62
3
10
409.043
20
1619.94
30
-418
11
408.766
21
1619.93
31
-418
0
LINE
8
T1
62
3
10
408.766
20
1619.93
30
-418
11
408.49
21
1619.9
31
-418
0
LINE
8
T1
62
3
10
408.49
20
1619.9
30
-418
11
397.119
21
1618.32
31
-418
0
LINE
8
T1
62
3
10
397.119
20
1618.32
30
-418
11
385.99
21
1616.55
31
-418
0
LINE
8
T1
62
3
10
385.99
20
1616.55
30
-418
11
375.139
21
1614.61
31
-418
0
LINE
8
T1
62
3
10
375.139
20
1614.61
30
-418
11
364.565
21
1612.5
31
-418
0
LINE
8
T1
62
3
10
364.565
20
1612.5
30
-418
11
354.27
21
1610.22
31
-418
0
LINE
8
T1
62
3
10
354.27
20
1610.22
30
-418
11
344.251
21
1607.76
31
-418
0
LINE
8
T1
62
3
10
344.251
20
1607.76
30
-418
11
334.51
21
1605.13
31
-418
0
LINE
8
T1
62
3
10
334.51
20
1605.13
30
-418
11
325.051
21
1602.32
31
-418
0
LINE
8
T1
62
3
10
325.051
20
1602.32
30
-418
11
314.72
21
1598.99
31
-418
0
LINE
8
T1
62
3
10
314.72
20
1598.99
30
-418
11
304.544
21
1595.45
31
-418
0
ARC
8
T1
62
3
10
305.856
20
1591.67
30
-418
40
3.99933
50
109.151
51
180
210
0
220
0
230
1
0
LINE
8
T1
62
3
10
301.857
20
1591.67
30
-418
11
301.856
21
1591.67
31
-418
0
LINE
8
T1
62
3
10
301.856
20
1591.67
30
-418
11
301.856
21
1591.67
31
-424
0
LINE
8
T1
62
3
10
301.856
20
1591.67
30
-424
11
301.856
21
1475.97
31
-424
0
ARC
8
T1
62
3
10
305.856
20
1475.97
30
-424
40
4
50
180
51
-127.666
210
0
220
0
230
1
0
LINE
8
T1
62
3
10
303.412
20
1472.81
30
-424
11
303.412
21
1472.81
31
-424
0
ARC
8
T1
62
3
10
464.053
20
1681
30
-424
40
262.963
50
-127.654
51
-117.842
210
0
220
0
230
1
0
LINE
8
T1
62
3
10
341.239
20
1448.48
30
-424
11
341.239
21
1448.48
31
-424
0
ARC
8
T1
62
3
10
343.107
20
1452.02
30
-424
40
3.99997
50
-117.84
51
-90
210
0
220
0
230
1
0
LINE
8
T1
62
3
10
343.107
20
1448.02
30
-424
11
343.107
21
1448.02
31
-424
0
ARC
8
T1
62
3
10
343.107
20
1452.02
30
-424
40
4
50
-90
51
-27.1608
210
0
220
0
230
1
0
LINE
8
T1
62
3
10
346.666
20
1450.19
30
-424
11
346.666
21
1450.19
31
-424
0
ARC
8
T1
62
3
10
347.555
20
1449.73
30
-424
40
0.999585
50
90
51
152.794
210
0
220
0
230
1
0
LINE
8
T1
62
3
10
347.555
20
1450.73
30
-424
11
347.555
21
1450.73
31
-424
0
ARC
8
T1
62
3
10
347.555
20
1449.73
30
-424
40
1
50
0
51
90
210
0
220
0
230
1
0
LINE
8
T1
62
3
10
348.555
20
1449.73
30
-424
11
348.555
21
1449.73
31
-424
0
ARC
8
T1
62
3
10
347.555
20
1449.73
30
-424
40
1
50
-26.1038
51
0
210
0
220
0
230
1
0
LINE
8
T1
62
3
10
348.453
20
1449.29
30
-424
11
348.453
21
1449.29
31
-424
0
ARC
8
T1
62
3
10
352.044
20
1447.53
30
-424
40
3.99999
50
153.864
51
-180
210
0
220
0
230
1
0
LINE
8
T1
62
3
10
348.044
20
1447.53
30
-424
11
348.044
21
1447.53
31
-424
0
ARC
8
T1
62
3
10
352.044
20
1447.53
30
-424
40
4
50
180
51
-115.405
210
0
220
0
230
1
0
LINE
8
T1
62
3
10
350.328
20
1443.92
30
-424
11
350.328
21
1443.92
31
-424
0
ARC
8
T1
62
3
10
491.836
20
1741.78
30
-424
40
329.764
50
-115.412
51
-106.572
210
0
220
0
230
1
0
LINE
8
T1
62
3
10
397.78
20
1425.71
30
-424
11
397.78
21
1425.71
31
-424
0
ARC
8
T1
62
3
10
398.921
20
1429.55
30
-424
40
3.99922
50
-106.577
51
-90
210
0
220
0
230
1
0
LINE
8
T1
62
3
10
398.921
20
1425.55
30
-424
11
398.921
21
1425.55
31
-424
0
ARC
8
T1
62
3
10
398.921
20
1429.55
30
-424
40
3.999
50
-90
51
-16.396
210
0
220
0
230
1
0
LINE
8
T1
62
3
10
402.757
20
1428.42
30
-424
11
402.758
21
1428.42
31
-424
0
ARC
8
T1
62
3
10
403.718
20
1428.13
30
-424
40
1.00056
50
90
51
163.63
210
0
220
0
230
1
0
LINE
8
T1
62
3
10
403.718
20
1429.13
30
-424
11
403.718
21
1429.13
31
-424
0
ARC
8
T1
62
3
10
403.718
20
1428.13
30
-424
40
1.001
50
0
51
90
210
0
220
0
230
1
0
LINE
8
T1
62
3
10
404.719
20
1428.13
30
-424
11
404.719
21
1428.13
31
-424
0
ARC
8
T1
62
3
10
403.718
20
1428.13
30
-424
40
1.001
50
-15.6621
51
0
210
0
220
0
230
1
0
LINE
8
T1
62
3
10
404.682
20
1427.86
30
-424
11
404.681
21
1427.86
31
-424
0
ARC
8
T1
62
3
10
408.532
20
1426.78
30
-424
40
3.99958
50
164.334
51
180
210
0
220
0
230
1
0
LINE
8
T1
62
3
10
404.532
20
1426.78
30
-424
11
404.532
21
1426.78
31
-424
0
ARC
8
T1
62
3
10
408.532
20
1426.78
30
-424
40
4
50
180
51
-105.245
210
0
220
0
230
1
0
LINE
8
T1
62
3
10
407.48
20
1422.92
30
-424
11
407.48
21
1422.92
31
-424
0
ARC
8
T1
62
3
10
522.326
20
1844.26
30
-424
40
436.71
50
-105.247
51
-101.384
210
0
220
0
230
1
0
LINE
8
T1
62
3
10
436.123
20
1416.14
30
-424
11
436.123
21
1416.14
31
-424
0
ARC
8
T1
62
3
10
436.913
20
1420.07
30
-424
40
4.00077
50
-101.389
51
-90
210
0
220
0
230
1
0
LINE
8
T1
62
3
10
436.913
20
1416.07
30
-424
11
436.913
21
1416.07
31
-424
0
ARC
8
T1
62
3
10
436.913
20
1420.07
30
-424
40
4.001
50
-90
51
-11.1414
210
0
220
0
230
1
0
LINE
8
T1
62
3
10
440.839
20
1419.29
30
-424
11
440.838
21
1419.29
31
-424
0
ARC
8
T1
62
3
10
441.819
20
1419.1
30
-424
40
0.999805
50
90
51
168.87
210
0
220
0
230
1
0
LINE
8
T1
62
3
10
441.819
20
1420.1
30
-424
11
441.819
21
1420.1
31
-424
0
ARC
8
T1
62
3
10
441.819
20
1419.1
30
-424
40
1
50
0
51
90
210
0
220
0
230
1
0
LINE
8
T1
62
3
10
442.819
20
1419.1
30
-424
11
442.819
21
1419.1
31
-424
0
ARC
8
T1
62
3
10
441.819
20
1419.1
30
-424
40
1
50
-10.5457
51
0
210
0
220
0
230
1
0
LINE
8
T1
62
3
10
442.802
20
1418.92
30
-424
11
442.802
21
1418.92
31
-424
0
ARC
8
T1
62
3
10
446.734
20
1418.19
30
-424
40
3.99956
50
169.454
51
180
210
0
220
0
230
1
0
LINE
8
T1
62
3
10
442.734
20
1418.19
30
-424
11
442.734
21
1418.19
31
-424
0
ARC
8
T1
62
3
10
446.734
20
1418.19
30
-424
40
4
50
180
51
-100.225
210
0
220
0
230
1
0
LINE
8
T1
62
3
10
446.024
20
1414.25
30
-424
11
446.024
21
1414.25
31
-424
0
ARC
8
T1
62
3
10
539.736
20
1933.44
30
-424
40
527.583
50
-100.231
51
-98.4545
210
0
220
0
230
1
0
LINE
8
T1
62
3
10
462.169
20
1411.59
30
-424
11
462.169
21
1411.59
31
-424
0
LINE
8
T1
62
3
10
462.169
20
1411.59
30
-424
11
462.169
21
1380.05
31
-424
0
ARC
8
T1
62
3
10
466.169
20
1380.05
30
-424
40
4
50
180
51
-90
210
0
220
0
230
1
0
LINE
8
T1
62
3
10
466.169
20
1376.05
30
-424
11
466.169
21
1376.05
31
-424
0
LINE
8
T1
62
3
10
466.169
20
1376.05
30
-424
11
562.726
21
1376.05
31
-424
0
ARC
8
T1
62
3
10
562.726
20
1380.05
30
-424
40
4
50
-90
51
-0.157563
210
0
220
0
230
1
0
LINE
8
T1
62
3
10
566.726
20
1380.04
30
-424
11
566.726
21
1380.04
31
-424
0
LINE
8
T1
62
3
10
566.726
20
1380.04
30
-424
11
566.951
21
1460.62
31
-424
0
LINE
8
T1
62
3
10
566.951
20
1460.62
30
-424
11
567.258
21
1473.31
31
-424
0
LINE
8
T1
62
3
10
567.258
20
1473.31
30
-424
11
567.479
21
1477.69
31
-424
0
LINE
8
T1
62
3
10
567.479
20
1477.69
30
-424
11
567.607
21
1479.44
31
-424
0
LINE
8
T1
62
3
10
567.607
20
1479.44
30
-424
11
567.747
21
1480.93
31
-424
0
LINE
8
T1
62
3
10
567.747
20
1480.93
30
-424
11
567.899
21
1482.19
31
-424
0
LINE
8
T1
62
3
10
567.899
20
1482.19
30
-424
11
567.974
21
1482.71
31
-424
0
LINE
8
T1
62
3
10
567.974
20
1482.71
30
-424
11
568.052
21
1483.18
31
-424
0
LINE
8
T1
62
3
10
568.052
20
1483.18
30
-424
11
568.131
21
1483.59
31
-424
0
LINE
8
T1
62
3
10
568.131
20
1483.59
30
-424
11
568.208
21
1483.95
31
-424
0
LINE
8
T1
62
3
10
568.208
20
1483.95
30
-424
11
568.288
21
1484.27
31
-424
0
LINE
8
T1
62
3
10
568.288
20
1484.27
30
-424
11
568.319
21
1484.38
31
-424
0
LINE
8
T1
62
3
10
568.319
20
1484.38
30
-424
11
568.353
21
1484.5
31
-424
0
LINE
8
T1
62
3
10
568.353
20
1484.5
30
-424
11
568.386
21
1484.6
31
-424
0
LINE
8
T1
62
3
10
568.386
20
1484.6
30
-424
11
568.417
21
1484.69
31
-424
0
LINE
8
T1
62
3
10
568.417
20
1484.69
30
-424
11
568.445
21
1484.77
31
-424
0
LINE
8
T1
62
3
10
568.445
20
1484.77
30
-424
11
568.47
21
1484.84
31
-424
0
LINE
8
T1
62
3
10
568.47
20
1484.84
30
-424
11
568.493
21
1484.89
31
-424
0
LINE
8
T1
62
3
10
568.493
20
1484.89
30
-424
11
568.512
21
1484.93
31
-424
0
LINE
8
T1
62
3
10
568.512
20
1484.93
30
-424
11
568.518
21
1484.94
31
-424
0
LINE
8
T1
62
3
10
568.518
20
1484.94
30
-424
11
568.559
21
1484.97
31
-424
0
LINE
8
T1
62
3
10
568.559
20
1484.97
30
-424
11
569.045
21
1485.26
31
-424
0
LINE
8
T1
62
3
10
569.045
20
1485.26
30
-424
11
573.043
21
1487.62
31
-424
0
LINE
8
T1
62
3
10
573.043
20
1487.62
30
-424
11
574.265
21
1488.28
31
-424
0
LINE
8
T1
62
3
10
574.265
20
1488.28
30
-424
11
575.63
21
1488.99
31
-424
0
LINE
8
T1
62
3
10
575.63
20
1488.99
30
-424
11
577.122
21
1489.72
31
-424
0
LINE
8
T1
62
3
10
577.122
20
1489.72
30
-424
11
578.751
21
1490.47
31
-424
0
LINE
8
T1
62
3
10
578.751
20
1490.47
30
-424
11
580.524
21
1491.22
31
-424
0
LINE
8
T1
62
3
10
580.524
20
1491.22
30
-424
11
582.449
21
1491.97
31
-424
0
LINE
8
T1
62
3
10
582.449
20
1491.97
30
-424
11
584.533
21
1492.71
31
-424
0
LINE
8
T1
62
3
10
584.533
20
1492.71
30
-424
11
586.783
21
1493.43
31
-424
0
LINE
8
T1
62
3
10
586.783
20
1493.43
30
-424
11
589.206
21
1494.14
31
-424
0
LINE
8
T1
62
3
10
589.206
20
1494.14
30
-424
11
591.811
21
1494.81
31
-424
0
LINE
8
T1
62
3
10
591.811
20
1494.81
30
-424
11
594.603
21
1495.43
31
-424
0
LINE
8
T1
62
3
10
594.603
20
1495.43
30
-424
11
597.59
21
1496.01
31
-424
0
LINE
8
T1
62
3
10
597.59
20
1496.01
30
-424
11
600.787
21
1496.54
31
-424
0
LINE
8
T1
62
3
10
600.787
20
1496.54
30
-424
11
604.229
21
1497.01
31
-424
0
LINE
8
T1
62
3
10
604.229
20
1497.01
30
-424
11
607.952
21
1497.42
31
-424
0
LINE
8
T1
62
3
10
607.952
20
1497.42
30
-424
11
611.974
21
1497.79
31
-424
0
LINE
8
T1
62
3
10
611.974
20
1497.79
30
-424
11
621.153
21
1498.4
31
-424
0
LINE
8
T1
62
3
10
621.153
20
1498.4
30
-424
11
631.95
21
1498.83
31
-424
0
LINE
8
T1
62
3
10
631.95
20
1498.83
30
-424
11
697.376
21
1499.43
31
-424
0
ARC
8
T1
62
3
10
697.339
20
1503.43
30
-424
40
4.00017
50
-89.47
51
0
210
0
220
0
230
1
0
LINE
8
T1
62
3
10
701.339
20
1503.43
30
-424
11
701.339
21
1503.43
31
-424
0
LINE
8
T1
62
3
10
701.339
20
1503.43
30
-424
11
701.339
21
1595.29
31
-424
0
ARC
8
T1
62
3
10
697.339
20
1595.29
30
-424
40
4
50
0
51
76.7906
210
0
220
0
230
1
0
LINE
8
T1
62
3
10
698.253
20
1599.18
30
-424
11
698.253
21
1599.18
31
-424
0
LINE
8
T1
62
3
10
698.253
20
1599.18
30
-424
11
666.956
21
1606.53
31
-424
0
LINE
8
T1
62
3
10
666.956
20
1606.53
30
-424
11
636.909
21
1612.58
31
-424
0
LINE
8
T1
62
3
10
636.909
20
1612.58
30
-424
11
622.341
21
1615.13
31
-424
0
LINE
8
T1
62
3
10
622.341
20
1615.13
30
-424
11
608.112
21
1617.35
31
-424
0
LINE
8
T1
62
3
10
608.112
20
1617.35
30
-424
11
594.203
21
1619.25
31
-424
0
LINE
8
T1
62
3
10
594.203
20
1619.25
30
-424
11
580.637
21
1620.81
31
-424
0
LINE
8
T1
62
3
10
580.637
20
1620.81
30
-424
11
570.659
21
1621.86
31
-424
0
LINE
8
T1
62
3
10
570.659
20
1621.86
30
-424
11
562.189
21
1622.7
31
-424
0
ARC
8
T1
62
3
10
561.794
20
1618.72
30
-424
40
3.99955
50
84.3322
51
90
210
0
220
0
230
1
0
LINE
8
T1
62
3
10
561.794
20
1622.72
30
-424
11
561.794
21
1622.72
31
-424
0
ARC
8
T1
62
3
10
561.794
20
1618.72
30
-424
40
4
50
90
51
174.75
210
0
220
0
230
1
0
LINE
8
T1
62
3
10
557.811
20
1619.09
30
-424
11
557.811
21
1619.09
31
-424
0
ARC
8
T1
62
3
10
556.815
20
1619.18
30
-424
40
1.00024
50
-90
51
-5.27741
210
0
220
0
230
1
0
LINE
8
T1
62
3
10
556.815
20
1618.18
30
-424
11
556.815
21
1618.18
31
-424
0
ARC
8
T1
62
3
10
556.815
20
1619.18
30
-424
40
1
50
180
51
-90
210
0
220
0
230
1
0
LINE
8
T1
62
3
10
555.815
20
1619.18
30
-424
11
555.815
21
1619.18
31
-424
0
ARC
8
T1
62
3
10
556.815
20
1619.18
30
-424
40
1
50
175.065
51
180
210
0
220
0
230
1
0
LINE
8
T1
62
3
10
555.819
20
1619.26
30
-424
11
555.819
21
1619.26
31
-424
0
ARC
8
T1
62
3
10
551.834
20
1619.61
30
-424
40
3.99991
50
-4.94802
51
0
210
0
220
0
230
1
0
LINE
8
T1
62
3
10
555.834
20
1619.61
30
-424
11
555.834
21
1619.61
31
-424
0
ARC
8
T1
62
3
10
551.834
20
1619.61
30
-424
40
4
50
0
51
85.7705
210
0
220
0
230
1
0
LINE
8
T1
62
3
10
552.129
20
1623.6
30
-424
11
552.129
21
1623.6
31
-424
0
LINE
8
T1
62
3
10
552.129
20
1623.6
30
-424
11
536.061
21
1624.79
31
-424
0
LINE
8
T1
62
3
10
536.061
20
1624.79
30
-424
11
520.479
21
1625.63
31
-424
0
LINE
8
T1
62
3
10
520.479
20
1625.63
30
-424
11
505.421
21
1626.12
31
-424
0
LINE
8
T1
62
3
10
505.421
20
1626.12
30
-424
11
490.885
21
1626.26
31
-424
0
LINE
8
T1
62
3
10
490.885
20
1626.26
30
-424
11
476.871
21
1626.04
31
-424
0
LINE
8
T1
62
3
10
476.871
20
1626.04
30
-424
11
463.378
21
1625.47
31
-424
0
LINE
8
T1
62
3
10
463.378
20
1625.47
30
-424
11
450.407
21
1624.55
31
-424
0
LINE
8
T1
62
3
10
450.407
20
1624.55
30
-424
11
438.005
21
1623.27
31
-424
0
LINE
8
T1
62
3
10
438.005
20
1623.27
30
-424
11
428.055
21
1622.17
31
-424
0
LINE
8
T1
62
3
10
428.055
20
1622.17
30
-424
11
418.538
21
1621.14
31
-424
0
ARC
8
T1
62
3
10
418.969
20
1617.16
30
-424
40
4.00029
50
96.1852
51
180
210
0
220
0
230
1
0
LINE
8
T1
62
3
10
414.969
20
1617.16
30
-424
11
414.969
21
1617.16
31
-424
0
ARC
8
T1
62
3
10
418.969
20
1617.16
30
-424
40
4
50
180
51
-173.223
210
0
220
0
230
1
0
LINE
8
T1
62
3
10
414.997
20
1616.69
30
-424
11
414.997
21
1616.69
31
-424
0
ARC
8
T1
62
3
10
414.004
20
1616.57
30
-424
40
0.999986
50
0
51
6.77678
210
0
220
0
230
1
0
LINE
8
T1
62
3
10
415.004
20
1616.57
30
-424
11
415.004
21
1616.57
31
-424
0
ARC
8
T1
62
3
10
414.004
20
1616.57
30
-424
40
1
50
-90
51
0
210
0
220
0
230
1
0
LINE
8
T1
62
3
10
414.004
20
1615.57
30
-424
11
414.004
21
1615.57
31
-424
0
ARC
8
T1
62
3
10
414.004
20
1616.57
30
-424
40
1
50
-172.818
51
-90
210
0
220
0
230
1
0
LINE
8
T1
62
3
10
413.012
20
1616.44
30
-424
11
413.012
21
1616.44
31
-424
0
ARC
8
T1
62
3
10
409.043
20
1615.94
30
-424
40
4.00062
50
7.20851
51
90
210
0
220
0
230
1
0
LINE
8
T1
62
3
10
409.043
20
1619.94
30
-424
11
409.043
21
1619.94
31
-424
0
LINE
8
T1
62
3
10
409.043
20
1619.94
30
-424
11
408.766
21
1619.93
31
-424
0
LINE
8
T1
62
3
10
408.766
20
1619.93
30
-424
11
408.49
21
1619.9
31
-424
0
LINE
8
T1
62
3
10
408.49
20
1619.9
30
-424
11
397.119
21
1618.32
31
-424
0
LINE
8
T1
62
3
10
397.119
20
1618.32
30
-424
11
385.99
21
1616.55
31
-424
0
LINE
8
T1
62
3
10
385.99
20
1616.55
30
-424
11
375.139
21
1614.61
31
-424
0
LINE
8
T1
62
3
10
375.139
20
1614.61
30
-424
11
364.565
21
1612.5
31
-424
0
LINE
8
T1
62
3
10
364.565
20
1612.5
30
-424
11
354.27
21
1610.22
31
-424
0
LINE
8
T1
62
3
10
354.27
20
1610.22
30
-424
11
344.251
21
1607.76
31
-424
0
LINE
8
T1
62
3
10
344.251
20
1607.76
30
-424
11
334.51
21
1605.13
31
-424
0
LINE
8
T1
62
3
10
334.51
20
1605.13
30
-424
11
325.051
21
1602.32
31
-424
0
LINE
8
T1
62
3
10
325.051
20
1602.32
30
-424
11
314.72
21
1598.99
31
-424
0
LINE
8
T1
62
3
10
314.72
20
1598.99
30
-424
11
304.544
21
1595.45
31
-424
0
ARC
8
T1
62
3
10
305.856
20
1591.67
30
-424
40
3.99933
50
109.151
51
180
210
0
220
0
230
1
0
LINE
8
T1
62
3
10
301.857
20
1591.67
30
-424
11
301.856
21
1591.67
31
-424
0
LINE
8
T1
62
1
10
301.856
20
1591.67
30
-424
11
301.856
21
1591.67
31
-399
0
LINE
8
T1
62
1
10
301.856
20
1591.67
30
-399
11
301.856
21
1591.67
31
-372
0
LINE
8
T1
62
1
10
301.856
20
1591.67
30
-372
11
78.472
21
1860.19
31
-372
0
LINE
8
T1
62
1
10
78.472
20
1860.19
30
-372
11
78.472
21
1860.19
31
-402
0
LINE
8
T1
62
3
10
78.472
20
1860.19
30
-402
11
78.472
21
1860.19
31
-418
0
LINE
8
T1
62
3
10
78.472
20
1860.19
30
-418
11
14.138
21
1860.19
31
-418
0
ARC
8
T1
62
3
10
14.138
20
1856.19
30
-418
40
4
50
90
51
178.754
210
0
220
0
230
1
0
LINE
8
T1
62
3
10
10.1389
20
1856.28
30
-418
11
10.139
21
1856.28
31
-418
0
LINE
8
T1
62
3
10
10.139
20
1856.28
30
-418
11
-3.999
21
1210.82
31
-418
0
ARC
8
T1
62
3
10
0
20
1210.73
30
-418
40
3.99997
50
178.739
51
180
210
0
220
0
230
1
0
LINE
8
T1
62
3
10
-3.99997
20
1210.73
30
-418
11
-4
21
1210.73
31
-418
0
ARC
8
T1
62
3
10
0
20
1210.73
30
-418
40
4
50
180
51
-90
210
0
220
0
230
1
0
LINE
8
T1
62
3
10
0
20
1206.73
30
-418
11
0
21
1206.73
31
-418
0
LINE
8
T1
62
3
10
0
20
1206.73
30
-418
11
130.87
21
1206.73
31
-418
0
ARC
8
T1
62
3
10
130.87
20
1210.73
30
-418
40
4
50
-90
51
-25.5465
210
0
220
0
230
1
0
LINE
8
T1
62
3
10
134.479
20
1209.01
30
-418
11
134.479
21
1209.01
31
-418
0
LINE
8
T1
62
3
10
134.479
20
1209.01
30
-418
11
285.064
21
1523.88
31
-418
0
LINE
8
T1
62
3
10
285.064
20
1523.88
30
-418
11
285.064
21
1611.17
31
-418
0
LINE
8
T1
62
3
10
285.064
20
1611.17
30
-418
11
319.064
21
1611.17
31
-418
0
ARC
8
T1
62
3
10
319.064
20
1615.17
30
-418
40
4
50
-90
51
0
210
0
220
0
230
1
0
LINE
8
T1
62
3
10
323.064
20
1615.17
30
-418
11
323.064
21
1615.17
31
-418
0
LINE
8
T1
62
3
10
323.064
20
1615.17
30
-418
11
323.064
21
1677.35
31
-418
0
LINE
8
T1
62
3
10
323.064
20
1677.35
30
-418
11
368.861
21
1677.35
31
-418
0
LINE
8
T1
62
3
10
368.861
20
1677.35
30
-418
11
843.719
21
1628.96
31
-418
0
LINE
8
T1
62
3
10
843.719
20
1628.96
30
-418
11
893.922
21
1628.96
31
-418
0
ARC
8
T1
62
3
10
893.922
20
1632.96
30
-418
40
4
50
-90
51
0
210
0
220
0
230
1
0
LINE
8
T1
62
3
10
897.922
20
1632.96
30
-418
11
897.922
21
1632.96
31
-418
0
LINE
8
T1
62
3
10
897.922
20
1632.96
30
-418
11
897.922
21
1796.19
31
-418
0
ARC
8
T1
62
3
10
893.922
20
1796.19
30
-418
40
4
50
0
51
90
210
0
220
0
230
1
0
LINE
8
T1
62
3
10
893.922
20
1800.19
30
-418
11
893.922
21
1800.19
31
-418
0
LINE
8
T1
62
3
10
893.922
20
1800.19
30
-418
11
876.922
21
1800.19
31
-418
0
LINE
8
T1
62
3
10
876.922
20
1800.19
30
-418
11
876.922
21
1841.19
31
-418
0
ARC
8
T1
62
3
10
872.922
20
1841.19
30
-418
40
4
50
0
51
90
210
0
220
0
230
1
0
LINE
8
T1
62
3
10
872.922
20
1845.19
30
-418
11
872.922
21
1845.19
31
-418
0
LINE
8
T1
62
3
10
872.922
20
1845.19
30
-418
11
807.922
21
1845.19
31
-418
0
LINE
8
T1
62
3
10
807.922
20
1845.19
30
-418
11
807.922
21
1856.19
31
-418
0
ARC
8
T1
62
3
10
803.922
20
1856.19
30
-418
40
4
50
0
51
90
210
0
220
0
230
1
0
LINE
8
T1
62
3
10
803.922
20
1860.19
30
-418
11
803.922
21
1860.19
31
-418
0
LINE
8
T1
62
3
10
803.922
20
1860.19
30
-418
11
133.922
21
1860.19
31
-418
0
ARC
8
T1
62
3
10
133.922
20
1856.19
30
-418
40
4
50
90
51
180
210
0
220
0
230
1
0
LINE
8
T1
62
3
10
129.922
20
1856.19
30
-418
11
129.922
21
1856.19
31
-418
0
LINE
8
T1
62
3
10
129.922
20
1856.19
30
-418
11
129.922
21
1845.19
31
-418
0
LINE
8
T1
62
3
10
129.922
20
1845.19
30
-418
11
82.472
21
1845.19
31
-418
0
LINE
8
T1
62
3
10
82.472
20
1845.19
30
-418
11
82.472
21
1856.19
31
-418
0
ARC
8
T1
62
3
10
78.472
20
1856.19
30
-418
40
4
50
0
51
90
210
0
220
0
230
1
0
LINE
8
T1
62
3
10
78.472
20
1860.19
30
-418
11
78.472
21
1860.19
31
-418
0
LINE
8
T1
62
3
10
78.472
20
1860.19
30
-418
11
78.472
21
1860.19
31
-424
0
LINE
8
T1
62
3
10
78.472
20
1860.19
30
-424
11
14.138
21
1860.19
31
-424
0
ARC
8
T1
62
3
10
14.138
20
1856.19
30
-424
40
4
50
90
51
178.754
210
0
220
0
230
1
0
LINE
8
T1
62
3
10
10.1389
20
1856.28
30
-424
11
10.139
21
1856.28
31
-424
0
LINE
8
T1
62
3
10
10.139
20
1856.28
30
-424
11
-3.999
21
1210.82
31
-424
0
ARC
8
T1
62
3
10
0
20
1210.73
30
-424
40
3.99997
50
178.739
51
180
210
0
220
0
230
1
0
LINE
8
T1
62
3
10
-3.99997
20
1210.73
30
-424
11
-4
21
1210.73
31
-424
0
ARC
8
T1
62
3
10
0
20
1210.73
30
-424
40
4
50
180
51
-90
210
0
220
0
230
1
0
LINE
8
T1
62
3
10
0
20
1206.73
30
-424
11
0
21
1206.73
31
-424
0
LINE
8
T1
62
3
10
0
20
1206.73
30
-424
11
130.87
21
1206.73
31
-424
0
ARC
8
T1
62
3
10
130.87
20
1210.73
30
-424
40
4
50
-90
51
-25.5465
210
0
220
0
230
1
0
LINE
8
T1
62
3
10
134.479
20
1209.01
30
-424
11
134.479
21
1209.01
31
-424
0
LINE
8
T1
62
3
10
134.479
20
1209.01
30
-424
11
285.064
21
1523.88
31
-424
0
LINE
8
T1
62
3
10
285.064
20
1523.88
30
-424
11
285.064
21
1611.17
31
-424
0
LINE
8
T1
62
3
10
285.064
20
1611.17
30
-424
11
319.064
21
1611.17
31
-424
0
ARC
8
T1
62
3
10
319.064
20
1615.17
30
-424
40
4
50
-90
51
0
210
0
220
0
230
1
0
LINE
8
T1
62
3
10
323.064
20
1615.17
30
-424
11
323.064
21
1615.17
31
-424
0
LINE
8
T1
62
3
10
323.064
20
1615.17
30
-424
11
323.064
21
1677.35
31
-424
0
LINE
8
T1
62
3
10
323.064
20
1677.35
30
-424
11
368.861
21
1677.35
31
-424
0
LINE
8
T1
62
3
10
368.861
20
1677.35
30
-424
11
843.719
21
1628.96
31
-424
0
LINE
8
T1
62
3
10
843.719
20
1628.96
30
-424
11
893.922
21
1628.96
31
-424
0
ARC
8
T1
62
3
10
893.922
20
1632.96
30
-424
40
4
50
-90
51
0
210
0
220
0
230
1
0
LINE
8
T1
62
3
10
897.922
20
1632.96
30
-424
11
897.922
21
1632.96
31
-424
0
LINE
8
T1
62
3
10
897.922
20
1632.96
30
-424
11
897.922
21
1796.19
31
-424
0
ARC
8
T1
62
3
10
893.922
20
1796.19
30
-424
40
4
50
0
51
90
210
0
220
0
230
1
0
LINE
8
T1
62
3
10
893.922
20
1800.19
30
-424
11
893.922
21
1800.19
31
-424
0
LINE
8
T1
62
3
10
893.922
20
1800.19
30
-424
11
876.922
21
1800.19
31
-424
0
LINE
8
T1
62
3
10
876.922
20
1800.19
30
-424
11
876.922
21
1841.19
31
-424
0
ARC
8
T1
62
3
10
872.922
20
1841.19
30
-424
40
4
50
0
51
90
210
0
220
0
230
1
0
LINE
8
T1
62
3
10
872.922
20
1845.19
30
-424
11
872.922
21
1845.19
31
-424
0
LINE
8
T1
62
3
10
872.922
20
1845.19
30
-424
11
807.922
21
1845.19
31
-424
0
LINE
8
T1
62
3
10
807.922
20
1845.19
30
-424
11
807.922
21
1856.19
31
-424
0
ARC
8
T1
62
3
10
803.922
20
1856.19
30
-424
40
4
50
0
51
90
210
0
220
0
230
1
0
LINE
8
T1
62
3
10
803.922
20
1860.19
30
-424
11
803.922
21
1860.19
31
-424
0
LINE
8
T1
62
3
10
803.922
20
1860.19
30
-424
11
133.922
21
1860.19
31
-424
0
ARC
8
T1
62
3
10
133.922
20
1856.19
30
-424
40
4
50
90
51
180
210
0
220
0
230
1
0
LINE
8
T1
62
3
10
129.922
20
1856.19
30
-424
11
129.922
21
1856.19
31
-424
0
LINE
8
T1
62
3
10
129.922
20
1856.19
30
-424
11
129.922
21
1845.19
31
-424
0
LINE
8
T1
62
3
10
129.922
20
1845.19
30
-424
11
82.472
21
1845.19
31
-424
0
LINE
8
T1
62
3
10
82.472
20
1845.19
30
-424
11
82.472
21
1856.19
31
-424
0
ARC
8
T1
62
3
10
78.472
20
1856.19
30
-424
40
4
50
0
51
90
210
0
220
0
230
1
0
LINE
8
T1
62
3
10
78.472
20
1860.19
30
-424
11
78.472
21
1860.19
31
-424
0
LINE
8
T1
62
1
10
78.472
20
1860.19
30
-424
11
78.472
21
1860.19
31
-399
0
LINE
8
T1
62
1
10
78.472
20
1860.19
30
-399
11
78.472
21
1860.19
31
-372
0
LINE
8
T1
62
1
10
78.472
20
1860.19
30
-372
11
14.808
21
2120.89
31
-372
0
LINE
8
T1
62
1
10
14.808
20
2120.89
30
-372
11
14.808
21
2120.89
31
-402
0
LINE
8
T1
62
3
10
14.808
20
2120.89
30
-402
11
14.808
21
2120.89
31
-418
0
LINE
8
T1
62
3
10
14.808
20
2120.89
30
-418
11
14.808
21
1897.66
31
-418
0
ARC
8
T1
62
3
10
18.808
20
1897.66
30
-418
40
4
50
180
51
-90
210
0
220
0
230
1
0
LINE
8
T1
62
3
10
18.808
20
1893.66
30
-418
11
18.808
21
1893.66
31
-418
0
LINE
8
T1
62
3
10
18.808
20
1893.66
30
-418
11
931.863
21
1893.66
31
-418
0
LINE
8
T1
62
3
10
931.863
20
1893.66
30
-418
11
931.88
21
1892.51
31
-418
0
LINE
8
T1
62
3
10
931.88
20
1892.51
30
-418
11
932.353
21
1864.85
31
-418
0
LINE
8
T1
62
3
10
932.353
20
1864.85
30
-418
11
932.751
21
1854.79
31
-418
0
LINE
8
T1
62
3
10
932.751
20
1854.79
30
-418
11
932.992
21
1850.69
31
-418
0
LINE
8
T1
62
3
10
932.992
20
1850.69
30
-418
11
933.258
21
1847.26
31
-418
0
ARC
8
T1
62
3
10
937.246
20
1847.57
30
-418
40
3.99995
50
-175.569
51
-90
210
0
220
0
230
1
0
LINE
8
T1
62
3
10
937.246
20
1843.57
30
-418
11
937.246
21
1843.57
31
-418
0
ARC
8
T1
62
3
10
937.246
20
1847.57
30
-418
40
4
50
-90
51
-84.4476
210
0
220
0
230
1
0
LINE
8
T1
62
3
10
937.633
20
1843.59
30
-418
11
937.633
21
1843.59
31
-418
0
ARC
8
T1
62
3
10
937.73
20
1842.59
30
-418
40
0.999717
50
90
51
95.568
210
0
220
0
230
1
0
LINE
8
T1
62
3
10
937.73
20
1843.59
30
-418
11
937.73
21
1843.59
31
-418
0
ARC
8
T1
62
3
10
937.73
20
1842.59
30
-418
40
1
50
0
51
90
210
0
220
0
230
1
0
LINE
8
T1
62
3
10
938.73
20
1842.59
30
-418
11
938.73
21
1842.59
31
-418
0
ARC
8
T1
62
3
10
937.73
20
1842.59
30
-418
40
1
50
-83.6282
51
0
210
0
220
0
230
1
0
LINE
8
T1
62
3
10
937.841
20
1841.6
30
-418
11
937.841
21
1841.6
31
-418
0
ARC
8
T1
62
3
10
938.286
20
1837.62
30
-418
40
3.99983
50
96.3876
51
180
210
0
220
0
230
1
0
LINE
8
T1
62
3
10
934.286
20
1837.62
30
-418
11
934.286
21
1837.62
31
-418
0
ARC
8
T1
62
3
10
938.286
20
1837.62
30
-418
40
4
50
180
51
-164.053
210
0
220
0
230
1
0
LINE
8
T1
62
3
10
934.44
20
1836.52
30
-418
11
934.44
21
1836.52
31
-418
0
LINE
8
T1
62
3
10
934.44
20
1836.52
30
-418
11
945.373
21
1798.26
31
-418
0
LINE
8
T1
62
3
10
945.373
20
1798.26
30
-418
11
957.336
21
1768.95
31
-418
0
ARC
8
T1
62
3
10
961.04
20
1770.46
30
-418
40
4.00034
50
-157.808
51
-90
210
0
220
0
230
1
0
LINE
8
T1
62
3
10
961.04
20
1766.46
30
-418
11
961.04
21
1766.46
31
-418
0
ARC
8
T1
62
3
10
961.04
20
1770.46
30
-418
40
4
50
-90
51
-65.9022
210
0
220
0
230
1
0
LINE
8
T1
62
3
10
962.673
20
1766.81
30
-418
11
962.673
21
1766.81
31
-418
0
ARC
8
T1
62
3
10
963.081
20
1765.9
30
-418
40
1.00002
50
90
51
114.079
210
0
220
0
230
1
0
LINE
8
T1
62
3
10
963.081
20
1766.9
30
-418
11
963.081
21
1766.9
31
-418
0
ARC
8
T1
62
3
10
963.081
20
1765.9
30
-418
40
1
50
0
51
90
210
0
220
0
230
1
0
LINE
8
T1
62
3
10
964.081
20
1765.9
30
-418
11
964.081
21
1765.9
31
-418
0
ARC
8
T1
62
3
10
963.081
20
1765.9
30
-418
40
1
50
-64.9208
51
0
210
0
220
0
230
1
0
LINE
8
T1
62
3
10
963.505
20
1764.99
30
-418
11
963.505
21
1764.99
31
-418
0
ARC
8
T1
62
3
10
965.203
20
1761.37
30
-418
40
4.00026
50
115.117
51
180
210
0
220
0
230
1
0
LINE
8
T1
62
3
10
961.203
20
1761.37
30
-418
11
961.203
21
1761.37
31
-418
0
ARC
8
T1
62
3
10
965.203
20
1761.37
30
-418
40
4
50
180
51
-145.77
210
0
220
0
230
1
0
LINE
8
T1
62
3
10
961.896
20
1759.12
30
-418
11
961.896
21
1759.12
31
-418
0
LINE
8
T1
62
3
10
961.896
20
1759.12
30
-418
11
993.86
21
1712.16
31
-418
0
ARC
8
T1
62
3
10
997.166
20
1714.41
30
-418
40
3.99958
50
-145.75
51
-90
210
0
220
0
230
1
0
LINE
8
T1
62
3
10
997.166
20
1710.41
30
-418
11
997.166
21
1710.41
31
-418
0
LINE
8
T1
62
3
10
997.166
20
1710.41
30
-418
11
1095.34
21
1710.41
31
-418
0
LINE
8
T1
62
3
10
1095.34
20
1710.41
30
-418
11
1117.3
21
1710.41
31
-418
0
ARC
8
T1
62
3
10
1117.3
20
1714.41
30
-418
40
4
50
-90
51
-13.9598
210
0
220
0
230
1
0
LINE
8
T1
62
3
10
1121.18
20
1713.45
30
-418
11
1121.18
21
1713.45
31
-418
0
LINE
8
T1
62
3
10
1121.18
20
1713.45
30
-418
11
1127.47
21
1738.74
31
-418
0
LINE
8
T1
62
3
10
1127.47
20
1738.74
30
-418
11
1128.25
21
1742.27
31
-418
0
LINE
8
T1
62
3
10
1128.25
20
1742.27
30
-418
11
1129.15
21
1746.85
31
-418
0
LINE
8
T1
62
3
10
1129.15
20
1746.85
30
-418
11
1131.3
21
1759.07
31
-418
0
LINE
8
T1
62
3
10
1131.3
20
1759.07
30
-418
11
1137.12
21
1796.15
31
-418
0
LINE
8
T1
62
3
10
1137.12
20
1796.15
30
-418
11
1137.19
21
1796.78
31
-418
0
LINE
8
T1
62
3
10
1137.19
20
1796.78
30
-418
11
1139.39
21
1817.66
31
-418
0
ARC
8
T1
62
3
10
1135.41
20
1818.08
30
-418
40
3.9999
50
-5.99851
51
0
210
0
220
0
230
1
0
LINE
8
T1
62
3
10
1139.41
20
1818.08
30
-418
11
1139.41
21
1818.08
31
-418
0
ARC
8
T1
62
3
10
1135.41
20
1818.08
30
-418
40
4
50
0
51
89.8281
210
0
220
0
230
1
0
LINE
8
T1
62
3
10
1135.42
20
1822.08
30
-418
11
1135.42
21
1822.08
31
-418
0
ARC
8
T1
62
3
10
1135.43
20
1823.08
30
-418
40
1
50
180
51
-90.1719
210
0
220
0
230
1
0
LINE
8
T1
62
3
10
1134.43
20
1823.08
30
-418
11
1134.43
21
1823.08
31
-418
0
ARC
8
T1
62
3
10
1135.43
20
1823.08
30
-418
40
1
50
92.2906
51
180
210
0
220
0
230
1
0
LINE
8
T1
62
3
10
1135.39
20
1824.08
30
-418
11
1135.39
21
1824.08
31
-418
0
ARC
8
T1
62
3
10
1135.23
20
1828.08
30
-418
40
3.9992
50
-87.7071
51
0
210
0
220
0
230
1
0
LINE
8
T1
62
3
10
1139.23
20
1828.08
30
-418
11
1139.23
21
1828.08
31
-418
0
LINE
8
T1
62
3
10
1139.23
20
1828.08
30
-418
11
1139.23
21
1828.14
31
-418
0
LINE
8
T1
62
3
10
1139.23
20
1828.14
30
-418
11
1139.19
21
1830.52
31
-418
0
LINE
8
T1
62
3
10
1139.19
20
1830.52
30
-418
11
1139.2
21
1832.98
31
-418
0
LINE
8
T1
62
3
10
1139.2
20
1832.98
30
-418
11
1139.52
21
1843.45
31
-418
0
LINE
8
T1
62
3
10
1139.52
20
1843.45
30
-418
11
1139.53
21
1843.57
31
-418
0
LINE
8
T1
62
3
10
1139.53
20
1843.57
30
-418
11
1139.52
21
1843.7
31
-418
0
LINE
8
T1
62
3
10
1139.52
20
1843.7
30
-418
11
1138.05
21
1879.15
31
-418
0
LINE
8
T1
62
3
10
1138.05
20
1879.15
30
-418
11
1136
21
1907.89
31
-418
0
LINE
8
T1
62
3
10
1136
20
1907.89
30
-418
11
1133.58
21
1931.18
31
-418
0
LINE
8
T1
62
3
10
1133.58
20
1931.18
30
-418
11
1130.98
21
1950.26
31
-418
0
LINE
8
T1
62
3
10
1130.98
20
1950.26
30
-418
11
1129.24
21
1961.16
31
-418
0
ARC
8
T1
62
3
10
1125.29
20
1960.52
30
-418
40
4.0004
50
9.10442
51
90
210
0
220
0
230
1
0
LINE
8
T1
62
3
10
1125.29
20
1964.52
30
-418
11
1125.29
21
1964.52
31
-418
0
ARC
8
T1
62
3
10
1125.29
20
1960.52
30
-418
40
4
50
90
51
104.269
210
0
220
0
230
1
0
LINE
8
T1
62
3
10
1124.3
20
1964.4
30
-418
11
1124.3
21
1964.4
31
-418
0
ARC
8
T1
62
3
10
1124.06
20
1965.37
30
-418
40
0.999985
50
-90
51
-75.6997
210
0
220
0
230
1
0
LINE
8
T1
62
3
10
1124.06
20
1964.37
30
-418
11
1124.06
21
1964.37
31
-418
0
ARC
8
T1
62
3
10
1124.06
20
1965.37
30
-418
40
1
50
180
51
-90
210
0
220
0
230
1
0
LINE
8
T1
62
3
10
1123.06
20
1965.37
30
-418
11
1123.06
21
1965.37
31
-418
0
ARC
8
T1
62
3
10
1124.06
20
1965.37
30
-418
40
1
50
96.2579
51
180
210
0
220
0
230
1
0
LINE
8
T1
62
3
10
1123.95
20
1966.36
30
-418
11
1123.95
21
1966.36
31
-418
0
ARC
8
T1
62
3
10
1123.51
20
1970.34
30
-418
40
3.99973
50
-83.7563
51
-3.25689e-12
210
0
220
0
230
1
0
LINE
8
T1
62
3
10
1127.51
20
1970.34
30
-418
11
1127.51
21
1970.34
31
-418
0
ARC
8
T1
62
3
10
1123.51
20
1970.34
30
-418
40
4
50
0
51
11.6246
210
0
220
0
230
1
0
LINE
8
T1
62
3
10
1127.43
20
1971.15
30
-418
11
1127.43
21
1971.15
31
-418
0
LINE
8
T1
62
3
10
1127.43
20
1971.15
30
-418
11
1125.23
21
1981.84
31
-418
0
LINE
8
T1
62
3
10
1125.23
20
1981.84
30
-418
11
1122.59
21
1993.22
31
-418
0
LINE
8
T1
62
3
10
1122.59
20
1993.22
30
-418
11
1119.39
21
2005.61
31
-418
0
LINE
8
T1
62
3
10
1119.39
20
2005.61
30
-418
11
1115.52
21
2019.39
31
-418
0
LINE
8
T1
62
3
10
1115.52
20
2019.39
30
-418
11
1112.04
21
2031
31
-418
0
LINE
8
T1
62
3
10
1112.04
20
2031
30
-418
11
1108.01
21
2043.45
31
-418
0
LINE
8
T1
62
3
10
1108.01
20
2043.45
30
-418
11
1103.37
21
2056.49
31
-418
0
LINE
8
T1
62
3
10
1103.37
20
2056.49
30
-418
11
1100.78
21
2063.2
31
-418
0
LINE
8
T1
62
3
10
1100.78
20
2063.2
30
-418
11
1098.02
21
2069.96
31
-418
0
LINE
8
T1
62
3
10
1098.02
20
2069.96
30
-418
11
1095.06
21
2076.77
31
-418
0
LINE
8
T1
62
3
10
1095.06
20
2076.77
30
-418
11
1091.89
21
2083.59
31
-418
0
LINE
8
T1
62
3
10
1091.89
20
2083.59
30
-418
11
1088.51
21
2090.4
31
-418
0
LINE
8
T1
62
3
10
1088.51
20
2090.4
30
-418
11
1084.91
21
2097.17
31
-418
0
LINE
8
T1
62
3
10
1084.91
20
2097.17
30
-418
11
1081.07
21
2103.88
31
-418
0
LINE
8
T1
62
3
10
1081.07
20
2103.88
30
-418
11
1076.99
21
2110.47
31
-418
0
LINE
8
T1
62
3
10
1076.99
20
2110.47
30
-418
11
1074.84
21
2113.75
31
-418
0
LINE
8
T1
62
3
10
1074.84
20
2113.75
30
-418
11
1072.64
21
2116.97
31
-418
0
LINE
8
T1
62
3
10
1072.64
20
2116.97
30
-418
11
1070.37
21
2120.16
31
-418
0
LINE
8
T1
62
3
10
1070.37
20
2120.16
30
-418
11
1068.05
21
2123.28
31
-418
0
ARC
8
T1
62
3
10
1064.84
20
2120.89
30
-418
40
3.99964
50
36.6235
51
90
210
0
220
0
230
1
0
LINE
8
T1
62
3
10
1064.84
20
2124.89
30
-418
11
1064.84
21
2124.89
31
-418
0
LINE
8
T1
62
3
10
1064.84
20
2124.89
30
-418
11
18.808
21
2124.89
31
-418
0
ARC
8
T1
62
3
10
18.808
20
2120.89
30
-418
40
4
50
90
51
180
210
0
220
0
230
1
0
LINE
8
T1
62
3
10
14.808
20
2120.89
30
-418
11
14.808
21
2120.89
31
-418
0
LINE
8
T1
62
3
10
14.808
20
2120.89
30
-418
11
14.808
21
2120.89
31
-424
0
LINE
8
T1
62
3
10
14.808
20
2120.89
30
-424
11
14.808
21
1897.66
31
-424
0
ARC
8
T1
62
3
10
18.808
20
1897.66
30
-424
40
4
50
180
51
-90
210
0
220
0
230
1
0
LINE
8
T1
62
3
10
18.808
20
1893.66
30
-424
11
18.808
21
1893.66
31
-424
0
LINE
8
T1
62
3
10
18.808
20
1893.66
30
-424
11
931.863
21
1893.66
31
-424
0
LINE
8
T1
62
3
10
931.863
20
1893.66
30
-424
11
931.88
21
1892.51
31
-424
0
LINE
8
T1
62
3
10
931.88
20
1892.51
30
-424
11
932.353
21
1864.85
31
-424
0
LINE
8
T1
62
3
10
932.353
20
1864.85
30
-424
11
932.751
21
1854.79
31
-424
0
LINE
8
T1
62
3
10
932.751
20
1854.79
30
-424
11
932.992
21
1850.69
31
-424
0
LINE
8
T1
62
3
10
932.992
20
1850.69
30
-424
11
933.258
21
1847.26
31
-424
0
ARC
8
T1
62
3
10
937.246
20
1847.57
30
-424
40
3.99995
50
-175.569
51
-90
210
0
220
0
230
1
0
LINE
8
T1
62
3
10
937.246
20
1843.57
30
-424
11
937.246
21
1843.57
31
-424
0
ARC
8
T1
62
3
10
937.246
20
1847.57
30
-424
40
4
50
-90
51
-84.4476
210
0
220
0
230
1
0
LINE
8
T1
62
3
10
937.633
20
1843.59
30
-424
11
937.633
21
1843.59
31
-424
0
ARC
8
T1
62
3
10
937.73
20
1842.59
30
-424
40
0.999717
50
90
51
95.568
210
0
220
0
230
1
0
LINE
8
T1
62
3
10
937.73
20
1843.59
30
-424
11
937.73
21
1843.59
31
-424
0
ARC
8
T1
62
3
10
937.73
20
1842.59
30
-424
40
1
50
0
51
90
210
0
220
0
230
1
0
LINE
8
T1
62
3
10
938.73
20
1842.59
30
-424
11
938.73
21
1842.59
31
-424
0
ARC
8
T1
62
3
10
937.73
20
1842.59
30
-424
40
1
50
-83.6282
51
0
210
0
220
0
230
1
0
LINE
8
T1
62
3
10
937.841
20
1841.6
30
-424
11
937.841
21
1841.6
31
-424
0
ARC
8
T1
62
3
10
938.286
20
1837.62
30
-424
40
3.99983
50
96.3876
51
180
210
0
220
0
230
1
0
LINE
8
T1
62
3
10
934.286
20
1837.62
30
-424
11
934.286
21
1837.62
31
-424
0
ARC
8
T1
62
3
10
938.286
20
1837.62
30
-424
40
4
50
180
51
-164.053
210
0
220
0
230
1
0
LINE
8
T1
62
3
10
934.44
20
1836.52
30
-424
11
934.44
21
1836.52
31
-424
0
LINE
8
T1
62
3
10
934.44
20
1836.52
30
-424
11
945.373
21
1798.26
31
-424
0
LINE
8
T1
62
3
10
945.373
20
1798.26
30
-424
11
957.336
21
1768.95
31
-424
0
ARC
8
T1
62
3
10
961.04
20
1770.46
30
-424
40
4.00034
50
-157.808
51
-90
210
0
220
0
230
1
0
LINE
8
T1
62
3
10
961.04
20
1766.46
30
-424
11
961.04
21
1766.46
31
-424
0
ARC
8
T1
62
3
10
961.04
20
1770.46
30
-424
40
4
50
-90
51
-65.9022
210
0
220
0
230
1
0
LINE
8
T1
62
3
10
962.673
20
1766.81
30
-424
11
962.673
21
1766.81
31
-424
0
ARC
8
T1
62
3
10
963.081
20
1765.9
30
-424
40
1.00002
50
90
51
114.079
210
0
220
0
230
1
0
LINE
8
T1
62
3
10
963.081
20
1766.9
30
-424
11
963.081
21
1766.9
31
-424
0
ARC
8
T1
62
3
10
963.081
20
1765.9
30
-424
40
1
50
0
51
90
210
0
220
0
230
1
0
LINE
8
T1
62
3
10
964.081
20
1765.9
30
-424
11
964.081
21
1765.9
31
-424
0
ARC
8
T1
62
3
10
963.081
20
1765.9
30
-424
40
1
50
-64.9208
51
0
210
0
220
0
230
1
0
LINE
8
T1
62
3
10
963.505
20
1764.99
30
-424
11
963.505
21
1764.99
31
-424
0
ARC
8
T1
62
3
10
965.203
20
1761.37
30
-424
40
4.00026
50
115.117
51
180
210
0
220
0
230
1
0
LINE
8
T1
62
3
10
961.203
20
1761.37
30
-424
11
961.203
21
1761.37
31
-424
0
ARC
8
T1
62
3
10
965.203
20
1761.37
30
-424
40
4
50
180
51
-145.77
210
0
220
0
230
1
0
LINE
8
T1
62
3
10
961.896
20
1759.12
30
-424
11
961.896
21
1759.12
31
-424
0
LINE
8
T1
62
3
10
961.896
20
1759.12
30
-424
11
993.86
21
1712.16
31
-424
0
ARC
8
T1
62
3
10
997.166
20
1714.41
30
-424
40
3.99958
50
-145.75
51
-90
210
0
220
0
230
1
0
LINE
8
T1
62
3
10
997.166
20
1710.41
30
-424
11
997.166
21
1710.41
31
-424
0
LINE
8
T1
62
3
10
997.166
20
1710.41
30
-424
11
1095.34
21
1710.41
31
-424
0
LINE
8
T1
62
3
10
1095.34
20
1710.41
30
-424
11
1117.3
21
1710.41
31
-424
0
ARC
8
T1
62
3
10
1117.3
20
1714.41
30
-424
40
4
50
-90
51
-13.9598
210
0
220
0
230
1
0
LINE
8
T1
62
3
10
1121.18
20
1713.45
30
-424
11
1121.18
21
1713.45
31
-424
0
LINE
8
T1
62
3
10
1121.18
20
1713.45
30
-424
11
1127.47
21
1738.74
31
-424
0
LINE
8
T1
62
3
10
1127.47
20
1738.74
30
-424
11
1128.25
21
1742.27
31
-424
0
LINE
8
T1
62
3
10
1128.25
20
1742.27
30
-424
11
1129.15
21
1746.85
31
-424
0
LINE
8
T1
62
3
10
1129.15
20
1746.85
30
-424
11
1131.3
21
1759.07
31
-424
0
LINE
8
T1
62
3
10
1131.3
20
1759.07
30
-424
11
1137.12
21
1796.15
31
-424
0
LINE
8
T1
62
3
10
1137.12
20
1796.15
30
-424
11
1137.19
21
1796.78
31
-424
0
LINE
8
T1
62
3
10
1137.19
20
1796.78
30
-424
11
1139.39
21
1817.66
31
-424
0
ARC
8
T1
62
3
10
1135.41
20
1818.08
30
-424
40
3.9999
50
-5.99851
51
0
210
0
220
0
230
1
0
LINE
8
T1
62
3
10
1139.41
20
1818.08
30
-424
11
1139.41
21
1818.08
31
-424
0
ARC
8
T1
62
3
10
1135.41
20
1818.08
30
-424
40
4
50
0
51
89.8281
210
0
220
0
230
1
0
LINE
8
T1
62
3
10
1135.42
20
1822.08
30
-424
11
1135.42
21
1822.08
31
-424
0
ARC
8
T1
62
3
10
1135.43
20
1823.08
30
-424
40
1
50
180
51
-90.1719
210
0
220
0
230
1
0
LINE
8
T1
62
3
10
1134.43
20
1823.08
30
-424
11
1134.43
21
1823.08
31
-424
0
ARC
8
T1
62
3
10
1135.43
20
1823.08
30
-424
40
1
50
92.2906
51
180
210
0
220
0
230
1
0
LINE
8
T1
62
3
10
1135.39
20
1824.08
30
-424
11
1135.39
21
1824.08
31
-424
0
ARC
8
T1
62
3
10
1135.23
20
1828.08
30
-424
40
3.9992
50
-87.7071
51
0
210
0
220
0
230
1
0
LINE
8
T1
62
3
10
1139.23
20
1828.08
30
-424
11
1139.23
21
1828.08
31
-424
0
LINE
8
T1
62
3
10
1139.23
20
1828.08
30
-424
11
1139.23
21
1828.14
31
-424
0
LINE
8
T1
62
3
10
1139.23
20
1828.14
30
-424
11
1139.19
21
1830.52
31
-424
0
LINE
8
T1
62
3
10
1139.19
20
1830.52
30
-424
11
1139.2
21
1832.98
31
-424
0
LINE
8
T1
62
3
10
1139.2
20
1832.98
30
-424
11
1139.52
21
1843.45
31
-424
0
LINE
8
T1
62
3
10
1139.52
20
1843.45
30
-424
11
1139.53
21
1843.57
31
-424
0
LINE
8
T1
62
3
10
1139.53
20
1843.57
30
-424
11
1139.52
21
1843.7
31
-424
0
LINE
8
T1
62
3
10
1139.52
20
1843.7
30
-424
11
1138.05
21
1879.15
31
-424
0
LINE
8
T1
62
3
10
1138.05
20
1879.15
30
-424
11
1136
21
1907.89
31
-424
0
LINE
8
T1
62
3
10
1136
20
1907.89
30
-424
11
1133.58
21
1931.18
31
-424
0
LINE
8
T1
62
3
10
1133.58
20
1931.18
30
-424
11
1130.98
21
1950.26
31
-424
0
LINE
8
T1
62
3
10
1130.98
20
1950.26
30
-424
11
1129.24
21
1961.16
31
-424
0
ARC
8
T1
62
3
10
1125.29
20
1960.52
30
-424
40
4.0004
50
9.10442
51
90
210
0
220
0
230
1
0
LINE
8
T1
62
3
10
1125.29
20
1964.52
30
-424
11
1125.29
21
1964.52
31
-424
0
ARC
8
T1
62
3
10
1125.29
20
1960.52
30
-424
40
4
50
90
51
104.269
210
0
220
0
230
1
0
LINE
8
T1
62
3
10
1124.3
20
1964.4
30
-424
11
1124.3
21
1964.4
31
-424
0
ARC
8
T1
62
3
10
1124.06
20
1965.37
30
-424
40
0.999985
50
-90
51
-75.6997
210
0
220
0
230
1
0
LINE
8
T1
62
3
10
1124.06
20
1964.37
30
-424
11
1124.06
21
1964.37
31
-424
0
ARC
8
T1
62
3
10
1124.06
20
1965.37
30
-424
40
1
50
180
51
-90
210
0
220
0
230
1
0
LINE
8
T1
62
3
10
1123.06
20
1965.37
30
-424
11
1123.06
21
1965.37
31
-424
0
ARC
8
T1
62
3
10
1124.06
20
1965.37
30
-424
40
1
50
96.2579
51
180
210
0
220
0
230
1
0
LINE
8
T1
62
3
10
1123.95
20
1966.36
30
-424
11
1123.95
21
1966.36
31
-424
0
ARC
8
T1
62
3
10
1123.51
20
1970.34
30
-424
40
3.99973
50
-83.7563
51
-3.25689e-12
210
0
220
0
230
1
0
LINE
8
T1
62
3
10
1127.51
20
1970.34
30
-424
11
1127.51
21
1970.34
31
-424
0
ARC
8
T1
62
3
10
1123.51
20
1970.34
30
-424
40
4
50
0
51
11.6246
210
0
220
0
230
1
0
LINE
8
T1
62
3
10
1127.43
20
1971.15
30
-424
11
1127.43
21
1971.15
31
-424
0
LINE
8
T1
62
3
10
1127.43
20
1971.15
30
-424
11
1125.23
21
1981.84
31
-424
0
LINE
8
T1
62
3
10
1125.23
20
1981.84
30
-424
11
1122.59
21
1993.22
31
-424
0
LINE
8
T1
62
3
10
1122.59
20
1993.22
30
-424
11
1119.39
21
2005.61
31
-424
0
LINE
8
T1
62
3
10
1119.39
20
2005.61
30
-424
11
1115.52
21
2019.39
31
-424
0
LINE
8
T1
62
3
10
1115.52
20
2019.39
30
-424
11
1112.04
21
2031
31
-424
0
LINE
8
T1
62
3
10
1112.04
20
2031
30
-424
11
1108.01
21
2043.45
31
-424
0
LINE
8
T1
62
3
10
1108.01
20
2043.45
30
-424
11
1103.37
21
2056.49
31
-424
0
LINE
8
T1
62
3
10
1103.37
20
2056.49
30
-424
11
1100.78
21
2063.2
31
-424
0
LINE
8
T1
62
3
10
1100.78
20
2063.2
30
-424
11
1098.02
21
2069.96
31
-424
0
LINE
8
T1
62
3
10
1098.02
20
2069.96
30
-424
11
1095.06
21
2076.77
31
-424
0
LINE
8
T1
62
3
10
1095.06
20
2076.77
30
-424
11
1091.89
21
2083.59
31
-424
0
LINE
8
T1
62
3
10
1091.89
20
2083.59
30
-424
11
1088.51
21
2090.4
31
-424
0
LINE
8
T1
62
3
10
1088.51
20
2090.4
30
-424
11
1084.91
21
2097.17
31
-424
0
LINE
8
T1
62
3
10
1084.91
20
2097.17
30
-424
11
1081.07
21
2103.88
31
-424
0
LINE
8
T1
62
3
10
1081.07
20
2103.88
30
-424
11
1076.99
21
2110.47
31
-424
0
LINE
8
T1
62
3
10
1076.99
20
2110.47
30
-424
11
1074.84
21
2113.75
31
-424
0
LINE
8
T1
62
3
10
1074.84
20
2113.75
30
-424
11
1072.64
21
2116.97
31
-424
0
LINE
8
T1
62
3
10
1072.64
20
2116.97
30
-424
11
1070.37
21
2120.16
31
-424
0
LINE
8
T1
62
3
10
1070.37
20
2120.16
30
-424
11
1068.05
21
2123.28
31
-424
0
ARC
8
T1
62
3
10
1064.84
20
2120.89
30
-424
40
3.99964
50
36.6235
51
90
210
0
220
0
230
1
0
LINE
8
T1
62
3
10
1064.84
20
2124.89
30
-424
11
1064.84
21
2124.89
31
-424
0
LINE
8
T1
62
3
10
1064.84
20
2124.89
30
-424
11
18.808
21
2124.89
31
-424
0
ARC
8
T1
62
3
10
18.808
20
2120.89
30
-424
40
4
50
90
51
180
210
0
220
0
230
1
0
LINE
8
T1
62
3
10
14.808
20
2120.89
30
-424
11
14.808
21
2120.89
31
-424
0
LINE
8
T1
62
1
10
14.808
20
2120.89
30
-424
11
14.808
21
2120.89
31
-372
0
ENDSEC
0
EOF
